<?xml version="1.0" encoding="utf-8"?>
<!-- Generator: Adobe Illustrator 25.1.0, SVG Export Plug-In . SVG Version: 6.00 Build 0)  -->
<svg version="1.1" id="Layer_1" xmlns="http://www.w3.org/2000/svg" xmlns:xlink="http://www.w3.org/1999/xlink" x="0px" y="0px"
	 viewBox="0 0 77.3 73.1" style="enable-background:new 0 0 77.3 73.1;" xml:space="preserve">
<style type="text/css">
	.st0{opacity:0.47;fill:#484440;enable-background:new    ;}
</style>
<g>
	<g id="Layer_2_1_">
		<g id="Layer_1-2">
			<path class="st0" d="M77.2,32.5L77.2,32.5L77.2,32.5L77.2,32.5L77.2,32.5L77,32.6l-0.2,0.1l-0.2,0.1l-0.2,0.1h-0.1l0,0L76.1,33
				h-0.2c-0.5,0.2-1,0.3-1.6,0.4c0.1-0.1,0.1-0.2,0.2-0.2l0.1-0.2l0.2-0.2l0.2-0.2l0.1-0.1l0.1-0.1l0.2-0.2l0.1-0.1l0,0l0,0
				l-0.8,0.6l-0.2,0.2L74.4,33l0,0h-0.1l-0.2,0.2l-0.2,0.2l-0.1,0.1l-0.1,0.1l-0.2,0.2L73.3,34H73l-0.4,0.3l-0.3,0.2
				c0-0.1,0.1-0.2,0.1-0.3c0.1-0.1,0.1-0.1,0.2-0.2l0.1-0.1c0.1-0.1,0.2-0.2,0.3-0.3l0.2-0.1l0.2-0.1c0.2-0.2,0.4-0.3,0.5-0.4
				l0.2-0.2c-0.5,0.3-1.2,0.7-1.8,1.1l0,0l0,0L72.2,34l0,0h-0.1H72h-0.1h-0.1l-0.4,0.2l-0.2,0.1L71,34.4l-0.4,0.2
				c0.1-0.2,0.3-0.4,0.4-0.5l0,0l0,0l0.1-0.1l0,0l0,0l0.2-0.1l0.3-0.2l0.3-0.2l0.2-0.2l0.2-0.1h0.1l-0.2,0.1l0,0l0,0L72,33.4
				l-0.2,0.1h-0.1h-0.1h-0.1l-0.4,0.2l0,0H71L70.6,34l-0.2,0.1l-0.2,0.1h-0.1l0,0l-0.4,0.2L69,34.7l0,0h-0.1l0,0c0,0,0,0,0-0.1
				l0.1-0.1c0.1-0.1,0.2-0.2,0.3-0.3c0.2-0.2,0.4-0.3,0.7-0.4l0.3-0.2l0.3-0.2l0.3-0.1l-0.4,0.2h-0.1h-0.1l0,0l0,0l-0.2,0.1
				l-0.5,0.2l-0.3,0.1l0,0H69l0,0L68.9,34l-0.5,0.2l-0.2,0.1h-0.1l0,0H68l0,0l-0.4,0.2l-0.3,0.2c0.1-0.2,0.2-0.4,0.4-0.5
				c0.1-0.1,0.2-0.2,0.3-0.2l0.2-0.1l0.2-0.1l0.3-0.2l0.3-0.1l0.3-0.1l-0.2,0.1L68.6,34l-0.4,0.2l0,0h-0.1H68l-0.1,0.1l-0.3,0.1
				l-0.3,0.1L67,34.6l0,0l0,0l0,0l-0.4,0.2L66.1,35l-0.2,0.1l0,0h-0.1l0,0l-0.1,0.1l-0.3,0.2c0.1-0.2,0.2-0.4,0.4-0.5l0.3-0.2l0,0
				l0.3-0.2l0.2-0.1l0.2-0.1h0.3l0.2-0.1h0.1l0,0l0,0l-0.2,0.1L67,34.4l-0.2,0.1l-0.1,0.1l-0.1,0.1l-0.1,0.1l0,0h-0.1l0,0L66.1,35
				l-0.2,0.1L65.4,35l-0.3,0.2l0,0H65l0,0l-0.6,0.3l-0.1,0.1l-0.1,0.1L64,35.8l-0.2,0.1l0,0l0,0L63.7,36c0.1-0.2,0.2-0.4,0.4-0.5
				l0.1-0.1l0.2-0.1l0.3-0.2c0.2-0.2,0.4-0.3,0.6-0.4h0.1l0,0l0.2-0.1l-0.1,0.1l0,0l0,0l0,0l-0.3,0.1L64.7,35l-0.3,0.2l0,0h-0.1l0,0
				l-0.1,0.1l-0.5,0.3l-0.2,0.2l-0.2,0.1L63,35.8l0,0l0,0l0,0L62.7,36L62,36.5c0.1-0.2,0.2-0.4,0.3-0.6l0.1-0.1c0,0,0,0,0.1-0.1
				l0.1-0.1l0.3-0.2l0.3-0.2l0.1-0.1l0,0l0.1-0.1l0.2-0.2L63.5,35l0,0l0,0l0,0h-0.1c-0.1,0-0.2,0.1-0.2,0.1L63,35.2l-0.2,0.2
				l-0.1,0.1l-0.1,0.1l-0.2,0.1l0,0l0,0l0,0L62,35.9c-0.2,0.1-0.3,0.2-0.5,0.3s-0.3,0.2-0.4,0.3L61,36.7l0,0h-0.1l0,0L60.5,37
				c0.1-0.2,0.2-0.4,0.3-0.6c0-0.1,0.1-0.1,0.1-0.1l0.1-0.2l0.3-0.3l0.3-0.2l0.1-0.1l0.1-0.1l0.2-0.2l-0.4,0.2l-0.2,0.1l0,0
				l-0.3,0.2L61,36l-0.1,0.1l-0.1,0.1l-0.5,0.3l-0.2,0.2l0,0l0,0l0,0c-0.1,0.1-0.1,0.1-0.2,0.2l-0.4,0.3l-0.2,0.2l-0.2,0.2l-0.3,0.2
				c0.2-0.5,0.4-0.9,0.8-1.2l0.3-0.2l0.2-0.2l0.2-0.2L60,36.2c-0.1,0.1-0.3,0.2-0.4,0.3l-0.2,0.2l0,0l-0.2,0.2l-0.4,0.4l-0.2,0.2
				l-0.2,0.2L58,38h-0.2l0,0l0,0l0,0l-0.1,0.1l-0.3,0.3c0-0.2,0.1-0.4,0.3-0.6c0.1-0.1,0.2-0.2,0.2-0.3l0.3-0.3l0.3-0.3l0.2-0.2
				l0.2-0.2c-0.1,0.1-0.3,0.2-0.4,0.3l-0.1,0.1L58.3,37l-0.2,0.2l-0.4,0.4L57.3,38H57l-0.1,0.1l0,0l0,0l0,0l-0.1,0.1l-0.4,0.4
				l-0.2,0.2L56,39l-0.3,0.3c0-0.1,0-0.2,0.1-0.3l0.1-0.2l0.1-0.2c0.1-0.2,0.3-0.4,0.5-0.6l0.1-0.2l0.1-0.1l0.2-0.2l0.2-0.2
				c-0.4,0.3-0.9,0.7-1.3,1.1l0,0l0,0l0,0c-0.1,0.1-0.2,0.2-0.3,0.3l-0.4,0.4L55,39.3l-0.2,0.2l-0.3,0.3L54.4,40l-0.1,0.1
				c0-0.1,0-0.2,0.1-0.3c0-0.1,0.1-0.2,0.2-0.3c0.1-0.2,0.3-0.5,0.5-0.7c0.3-0.4,0.7-0.7,0.7-0.7c-0.2,0.2-0.4,0.4-0.6,0.6l0,0
				l-0.1,0.1l-0.4,0.4l-0.2,0.2L54,39.7l-0.4,0.4l-0.2,0.2l-0.1,0.1l-0.1,0.1l-0.5,0.7c0-0.1,0-0.2,0-0.3v-0.1
				c0-0.1,0.1-0.2,0.1-0.2c0.1-0.1,0.1-0.2,0.2-0.3c0-0.1,0.1-0.1,0.1-0.2l0.1-0.2c0.1-0.1,0.2-0.2,0.2-0.3l0,0l0.2-0.2l0.1-0.2
				l0.2-0.1l-0.2,0.2l0,0l0,0l-0.1,0.1l-0.4,0.4L53.1,40l-0.2,0.2l-0.4,0.4c-0.1,0.1-0.2,0.3-0.3,0.4l-0.3,0.4l-0.1,0.2l-0.1,0.2
				l-0.2,0.3V42l0,0c0-0.2,0.1-0.3,0.2-0.5v-0.1v-0.1l0.1-0.2l0.2-0.3l0.2-0.3c0.1-0.1,0.1-0.2,0.2-0.2l0.1-0.2l0,0l0,0l0,0l0,0l0,0
				l0,0l-0.3,0.3l-0.3,0.4l-0.4,0.4L51,41.7l-0.3,0.5l-0.3,0.4L50.2,43L50,43.2l-0.1,0.2c0,0,0-0.1,0-0.2c0,0,0-0.1,0-0.2
				c0-0.1,0.1-0.2,0.1-0.3c0.1-0.3,0.2-0.5,0.4-0.7c0.1-0.2,0.3-0.4,0.4-0.6l0.1-0.1v-0.1l0,0l0,0v0.1l0,0c-0.1,0.1-0.2,0.2-0.3,0.3
				s-0.1,0.1-0.2,0.2L50.2,42l-0.3,0.5l-0.2,0.2c-0.1,0.1-0.1,0.2-0.2,0.2L49,43.8l-0.4,0.7l0,0l0,0c0-0.1,0-0.1,0-0.2
				c0-0.1,0.1-0.3,0.1-0.4l0.2-0.4L49,43l0.1-0.2l0.1-0.2l0,0c0,0,0-0.1,0.1-0.1v-0.1c0-0.1,0.1-0.1,0.1-0.2v-0.1l-0.1,0.2l0,0l0,0
				l-0.1,0.1l0,0l-0.1,0.1L48.9,43c-0.2,0.3-0.4,0.6-0.6,1l-0.2,0.2L48,44.4l-0.1,0.1L47.7,45l-0.2,0.4l-0.1,0.2l-0.1,0.2
				c0-0.2,0-0.4,0.1-0.7c0-0.1,0.1-0.2,0.1-0.4l0.1-0.2c0-0.1,0.1-0.2,0.1-0.2c0-0.1,0-0.1,0.1-0.2l0.1-0.2l0.2-0.3l0.2-0.3L48,43.8
				l0,0V44l-0.1,0.1l0,0l0,0c-0.2,0.4-0.5,0.8-0.7,1.1l-0.3,0.5L46.6,46l-0.1,0.2l-0.3,0.7l0,0L46.1,47c0-0.1,0-0.2,0-0.3l0,0
				c0-0.1,0.1-0.1,0.1-0.2l0.5-0.8L46.5,46l-0.4,0.5c0-0.1,0-0.1,0-0.2c0-0.1,0.1-0.3,0.1-0.4c0-0.1,0.1-0.3,0.2-0.4
				s0.2-0.4,0.3-0.6v-0.1l0.2-0.3l0.5-0.7l0.2-0.3l0.1-0.2l0.1-0.2l-0.3,0.4c-0.2,0.3-0.4,0.5-0.6,0.8s-0.2,0.3-0.4,0.4
				s-0.3,0.3-0.4,0.4c-0.2,0.2-0.4,0.3-0.7,0.4l0.7-0.9c0.1-0.1,0.2-0.2,0.2-0.3l0.2-0.3l0.5-0.7l0.5-0.7l0,0l0.2-0.3l0,0
				c0.4-0.5,0.8-1.1,1.1-1.6l-0.3,0.4l-0.3,0.4c-0.1,0.1-0.1,0.1-0.2,0.2c0.1,0.3,0.1,0.3,0,0.4c-0.3,0.3-0.5,0.6-0.8,0.9
				c-0.2,0.2-0.5,0.4-0.7,0.5l0.2-0.2L47,43l0.4-0.5l0.5-0.6l0.1-0.2l0.1-0.2l0.2-0.3l0.7-1l0,0l0.2-0.3l0,0l0.1-0.1
				c0.2-0.2,0.3-0.4,0.5-0.7l0.2-0.3l0.2-0.3c0,0,0,0.1-0.1,0.1l-0.2,0.3l-0.7,0.8L49,40.2c-0.1,0.2-0.3,0.3-0.4,0.4
				c-0.2,0.2-0.5,0.4-0.8,0.5l0.8-1c0.3-0.4,0.7-0.8,1-1.3l0.3-0.3l0.3-0.3l0.5-0.7v-0.1l0,0c0.1-0.1,0.1-0.2,0.2-0.3l0.2-0.3
				l0.4-0.6l-0.3,0.3c-0.2,0.3-0.5,0.5-0.7,0.8c-0.3,0.3-0.6,0.6-0.9,0.9c-0.1,0.1-0.3,0.2-0.4,0.3c-0.1,0.1-0.2,0.2-0.3,0.3
				l0.2-0.2l0.2-0.2l0.4-0.5l0.5-0.6l0.5-0.7l0.5-0.7l0.5-0.7l0.5-0.6c0.2-0.2,0.3-0.4,0.4-0.6l-0.3,0.3L52.2,35l-0.4,0.4l-0.4,0.4
				L51.2,36l-0.1,0.1L51,36.2c-0.2,0.2-0.5,0.4-0.8,0.6l0.4-0.4l0.2-0.2l0.2-0.3c0.2-0.2,0.3-0.4,0.5-0.6l0.5-0.6l0.5-0.6l0.3-0.3
				l0.2-0.3c0.2-0.2,0.3-0.4,0.5-0.6s0.2-0.2,0.2-0.3l0.2-0.3l-0.1,0.1l-0.2,0.2L53,33.3l-0.2,0.2l-0.2,0.2l-0.4,0.4
				c-0.2,0.2-0.5,0.4-0.8,0.5c0.3-0.3,0.5-0.6,0.8-0.9l0.1-0.1l0.1-0.2l0.2-0.3l0.5-0.6l0.2-0.2l0,0l0.1-0.1
				c0.1-0.1,0.2-0.2,0.2-0.3l0.5-0.6l0.8-1.2c-0.3,0.4-0.6,0.7-0.9,1s-0.5,0.5-0.8,0.8c-0.1,0.1-0.3,0.2-0.4,0.3
				c-0.1,0.1-0.2,0.2-0.4,0.2l0.2-0.2c0.1-0.1,0.1-0.1,0.2-0.2l0.4-0.5l0.2-0.3l0.2-0.3l0.5-0.6c0.6-0.7,1.2-1.5,1.7-2.3l0,0l0,0
				l-0.2,0.3l-0.3,0.3l-0.2,0.2L54.9,29c-0.2,0.3-0.5,0.5-0.8,0.8L53.9,30c-0.1,0.1-0.1,0.1-0.2,0.1c-0.1,0.1-0.2,0.2-0.3,0.2L54,30
				l0.2-0.2l0.2-0.2l0.5-0.5l0.2-0.3l0.2-0.3l0.5-0.6c0.2-0.2,0.3-0.4,0.5-0.6c0.1-0.1,0.2-0.2,0.2-0.3l0.1-0.1l0.1-0.1l0.3-0.5
				l-0.2,0.3l-0.2,0.3l-0.3,0.4c-0.1,0.1-0.2,0.3-0.4,0.4s-0.3,0.3-0.4,0.4c-0.2,0.1-0.3,0.3-0.5,0.4h-0.1l-0.1,0.1l0.3-0.4
				c0.1-0.1,0.1-0.1,0.2-0.2s0.1-0.2,0.2-0.3l0.4-0.5l0.2-0.3l0.2-0.3l0.1-0.2l0,0V26l0,0l0.3-0.4l0.2-0.3l0.2-0.3
				c0.1-0.2,0.3-0.4,0.4-0.6l0.2-0.4l0,0l0,0l0,0l0.1-0.1l-0.1,0.2l0,0l0,0l0,0l-0.1,0.1l-0.2,0.3L57.1,25c-0.4,0.5-0.9,0.9-1.4,1.2
				l0.3-0.4l0.2-0.2c0.1-0.1,0.1-0.2,0.2-0.3c0.1-0.1,0.1-0.2,0.2-0.2l0,0l0.1-0.1l0,0l0.2-0.2c0.1-0.2,0.3-0.4,0.4-0.6l0.4-0.6
				l0.1-0.2l0.1-0.1l0.1-0.1l0,0l0,0V23c0.1-0.2,0.3-0.4,0.4-0.6s0.2-0.4,0.3-0.5l-0.2,0.3l-0.1,0.2l-0.1,0.2
				c-0.1,0.1-0.2,0.3-0.3,0.4l-0.3,0.4l-0.2,0.2l-0.2,0.2c-0.2,0.2-0.4,0.4-0.7,0.5v-0.1l0,0l0.1-0.1l0,0l0.5-0.7l0.4-0.6l0.3-0.5
				l0,0v-0.1l0,0c0,0,0,0,0-0.1l0.4-0.6c0-0.1,0.1-0.1,0.1-0.2l0.1-0.2l0.2-0.3l0.2-0.3l0,0l0,0c0.1-0.1,0.1-0.2,0.1-0.3l0.3-0.6
				l-0.2,0.3l-0.2,0.3c-0.1,0.1-0.2,0.3-0.3,0.4L58.3,21l-0.1,0.1l-0.1,0.1c-0.1,0.1-0.1,0.1-0.2,0.2c-0.2,0.2-0.4,0.4-0.6,0.5
				c0.2-0.3,0.4-0.6,0.6-0.8l0,0V21l0,0l0.4-0.6l0.2-0.3c0.1-0.1,0.1-0.2,0.2-0.3l0.2-0.4l0,0v-0.1l0,0c0-0.1,0.1-0.1,0.1-0.2
				c0.1-0.2,0.2-0.4,0.3-0.6s0.2-0.4,0.3-0.6l0,0l0,0l0,0c0.1-0.2,0.2-0.4,0.2-0.5l-0.2,0.4c-0.1,0.2-0.3,0.5-0.5,0.8L59,19
				l-0.2,0.2l-0.2,0.2c-0.2,0.2-0.4,0.4-0.6,0.5l0.3-0.4l0.2-0.2l0.1-0.1l0.1-0.1l0.2-0.4l0,0v-0.1l0,0c0.1-0.2,0.3-0.5,0.4-0.7
				s0.1-0.2,0.2-0.3s0.1-0.2,0.2-0.4v-0.1l0,0V17l0,0l0.2-0.5l0.1-0.2l0.1-0.2c0-0.1,0.1-0.2,0.1-0.3s0.1-0.2,0.1-0.2l0,0v-0.1l0,0
				c0-0.1,0.1-0.2,0.1-0.3v0.1c0,0.1-0.1,0.2-0.1,0.3L60,15.7c0,0.1-0.1,0.1-0.1,0.2l-0.1,0.2c-0.2,0.3-0.3,0.6-0.5,0.9
				c-0.2,0.2-0.4,0.4-0.6,0.5c0.1-0.1,0.2-0.3,0.2-0.5l0.1-0.3c0.1-0.1,0.1-0.2,0.1-0.3c0.1-0.2,0.2-0.4,0.3-0.6l0.3-0.7l0.2-0.4
				c0-0.1,0.1-0.2,0.1-0.4l0.1-0.4v-0.1l0,0V14l0,0l0,0l0.1-0.2c0.1-0.2,0.2-0.5,0.2-0.7c0-0.1,0.1-0.2,0.1-0.3s0-0.1,0-0.2l0,0
				v-0.1l0,0l0,0c0,0,0,0.1-0.1,0.4l-0.1,0.4l-0.2,0.5c0,0.1-0.1,0.2-0.1,0.2l-0.1,0.2c-0.1,0.2-0.2,0.3-0.3,0.4
				c-0.1,0.2-0.3,0.4-0.5,0.6l0.2-0.5c0.1-0.2,0.2-0.4,0.2-0.6l0.1-0.3l0.1-0.3l0.2-0.7l0,0l0,0v-0.1l0,0c0.1-0.2,0.1-0.4,0.2-0.6
				s0.2-0.5,0.2-0.8v-0.1l0,0v-0.1l0,0c0-0.1,0-0.1,0-0.2c0-0.1,0-0.1,0-0.2s0-0.1,0-0.2c0.1-0.2,0.1-0.4,0.2-0.6l-0.1,0.4l-0.1,0.4
				l-0.2,0.5c-0.1,0.3-0.3,0.7-0.4,1c-0.1,0.3-0.3,0.5-0.5,0.6c0.1-0.4,0.2-0.7,0.4-1.1l0.1-0.4v-0.1l0,0l0.1-0.2
				c0-0.1,0.1-0.2,0.1-0.4l0.1-0.4l1-0.5l0,0V9.5l0,0l0,0c0.1-0.2,0.2-0.5,0.2-0.7c0-0.1,0-0.1,0-0.2V8.5V8.4c0-0.1,0.1-0.2,0.1-0.4
				l0,0l0,0c0-0.1,0-0.1,0-0.2l0,0V7.7c0-0.1,0-0.2,0.1-0.3v0.1l-0.1,0.3v0.1V8l-0.1,0.2c0,0.1-0.1,0.3-0.2,0.5s0,0.3-0.1,0.4
				l-0.1,0.2l-0.1,0.2l0,0c-0.1,0.3-0.3,0.5-0.5,0.7l0.1-0.4l0,0V9.7V9.6l0,0l0.1-0.2c0-0.1,0.1-0.2,0.1-0.3s0.2-0.4,0.2-0.7V8.3
				V8.2c0-0.1,0-0.1,0-0.1l0,0l0,0V7.9l0,0L61,7.7c0.1-0.4,0.3-0.9,0.4-1.3l0,0l0.1-0.2l0,0c0.1-0.4,0.2-0.8,0.4-1.2
				c0,0,0,0.1-0.1,0.4s-0.2,0.5-0.3,0.8c0,0.1-0.1,0.2-0.1,0.2l-0.1,0.2C61.1,6.7,61,6.9,60.9,7l-0.1,0.2l-0.1,0.2
				c-0.1,0.1-0.2,0.2-0.2,0.2c0-0.2,0.1-0.3,0.2-0.5s0.1-0.4,0.2-0.6V6.4l0,0L61,6.2l0,0c0-0.1,0.1-0.2,0.1-0.3l0.1-0.4l0.1-0.2
				l0.1-0.2l0.1-0.4c0-0.1,0.1-0.2,0.1-0.4L61.7,4c0-0.1,0.1-0.2,0.1-0.3c0.1-0.4,0.2-0.8,0.4-1.2v0.1v0.1v0.1C62,2.8,62,2.9,61.9,3
				c0,0.1,0,0.1-0.1,0.2c0,0.1,0,0.1-0.1,0.2l-0.2,0.4l-0.2,0.4c-0.1,0.1-0.1,0.2-0.2,0.4C61,4.7,61,4.8,60.9,4.9c0-0.8,0-1.6,0-2.4
				V1.7c0-0.1,0-0.2,0-0.3s0-0.2,0-0.3V0.7l0,0V0.3v0.3c0,0.1,0,0.2,0,0.3s0,0.2,0,0.3v0.3v0.1c0,0.1,0,0.2,0,0.3
				c0,0.1,0,0.2-0.1,0.3c-0.2,0.7-0.4,1.5-0.6,2.2c0-0.1-0.1-0.3-0.1-0.4s0-0.3-0.1-0.5L59.9,3c0-0.2,0-0.3-0.1-0.5l0,0V2.3
				c0-0.1,0-0.2,0-0.3s0-0.1,0-0.1V1.8V1.6c0,0.5,0,0.9,0.1,1.4v1.2c0,0.1,0,0.3,0,0.4s0,0.1,0,0.2s0,0.1,0,0.2v0.4v0.4
				c0,0.1,0,0.2,0,0.4S60,6.6,60,6.8s-0.1,0.4-0.1,0.5c0-0.1-0.1-0.2-0.1-0.4c0-0.1,0-0.2,0-0.2c0-0.1,0-0.2,0-0.3
				c0-0.2,0-0.3,0-0.5V5.4c0-0.4,0-0.7,0-0.9s0-0.4,0-0.4c-0.2,1-0.5,2-0.9,3c0,0.1,0,0.3-0.1,0.4c0,0.1,0,0.1,0,0.2v0.1v0.1
				c-0.1,0.2-0.1,0.5-0.2,0.7l-0.1,0.3c0,0.1-0.1,0.2-0.1,0.3s-0.1,0.4-0.2,0.5c-0.1-0.3-0.1-0.6,0-0.8l0,0l0,0c0-0.1,0-0.1,0-0.2
				l0,0l0,0V8.3c0-0.2,0-0.4,0.1-0.5s0-0.3,0.1-0.5s0-0.3,0.1-0.4s0-0.2,0-0.3s0-0.1,0-0.1c0,0.1,0,0.2-0.1,0.3v0.1l0,0V7
				c0,0.1-0.1,0.2-0.1,0.3v0.1v0.1v0.2c-0.1,0.2-0.1,0.5-0.2,0.7s-0.2,0.5-0.2,0.8l-0.1,0.4L57.7,10c-0.1,0.2-0.2,0.5-0.2,0.7
				c-0.1,0.4-0.3,0.7-0.4,1.1v-0.1c0-0.1,0-0.1,0-0.2c0-0.2,0-0.4,0-0.5c0.1-0.4,0.2-0.7,0.3-1c0-0.2,0.1-0.3,0.1-0.5
				s0.1-0.3,0.1-0.4s0.1-0.4,0.1-0.4l-0.2,0.6l-0.1,0.2c0,0.1,0,0.1-0.1,0.2c0,0.1-0.1,0.2-0.1,0.4s-0.2,0.5-0.3,0.7
				s-0.2,0.5-0.3,0.7l-0.3,0.7L56,12.4c0,0.1-0.1,0.2-0.1,0.3s-0.2,0.4-0.2,0.6s-0.1,0.3-0.2,0.5c-0.1-0.3-0.1-0.5,0-0.8
				c0-0.1,0.1-0.3,0.1-0.5c0-0.1,0-0.2,0.1-0.3l0.1-0.3c0.1-0.2,0.1-0.3,0.2-0.5s0.1-0.3,0.2-0.4s0.2-0.4,0.2-0.4l-0.2,0.3L56,11.2
				c-0.1,0.2-0.2,0.4-0.3,0.6l0,0v0.1l-0.1,0.2c0,0.1-0.1,0.1-0.1,0.2l-0.2,0.4l-0.2,0.4L55,13.5c-0.1,0.2-0.2,0.5-0.3,0.7
				s-0.2,0.4-0.2,0.6l-0.1,0.3v0.1l0,0c0,0.1,0,0.1-0.1,0.2l-0.2,0.5c-0.1-0.2-0.1-0.5,0-0.7c0-0.1,0.1-0.3,0.1-0.4s0-0.1,0-0.1l0,0
				c0-0.1,0.1-0.3,0.1-0.4c0-0.1,0-0.2,0.1-0.2c0-0.1,0-0.2,0.1-0.2l0.1-0.4c0-0.1,0.1-0.2,0.1-0.3l0,0l0,0V13l0,0l0,0
				c0,0.1-0.1,0.1-0.1,0.2l-0.2,0.3c0,0.1-0.1,0.2-0.1,0.3V14c0,0.1,0,0.1-0.1,0.2l-0.1,0.2v0.1l0,0c-0.1,0.1-0.1,0.3-0.2,0.4
				s-0.1,0.2-0.1,0.4s-0.1,0.2-0.1,0.4L53.5,16l0,0v0.1l0,0c-0.1,0.3-0.2,0.6-0.3,0.8L53.1,17v0.1c0,0-0.1,0.3-0.1,0.4L52.9,18
				c-0.1-0.2-0.1-0.5,0-0.7c0-0.1,0-0.1,0-0.2l0.1-0.2c0-0.2,0.1-0.3,0.1-0.5c0.1-0.3,0.2-0.6,0.3-0.8v-0.1l0,0l0.1-0.2
				c0,0.1,0,0.1-0.1,0.2l0,0v0.1l0,0L53.2,16c-0.1,0.2-0.2,0.4-0.3,0.6s-0.1,0.3-0.2,0.5l0,0v0.1l0,0V17c-0.1,0.2-0.2,0.5-0.3,0.7
				s-0.1,0.2-0.1,0.3l-0.1,0.3L51.9,19c-0.1,0.3-0.2,0.7-0.3,1c-0.1-0.2-0.1-0.5,0-0.7c0-0.1,0-0.2,0-0.2V19v-0.1
				c0-0.2,0.1-0.3,0.1-0.5s0.1-0.3,0.1-0.5l0.1-0.2l0,0l0,0l0,0v-0.1l0.1-0.4l-0.2,0.4l0,0l0,0l0,0l-0.1,0.1c0,0.1-0.1,0.2-0.1,0.3
				c0,0.1-0.1,0.2-0.1,0.3s-0.1,0.2-0.1,0.3l-0.1,0.2c0,0.1-0.1,0.1-0.1,0.2s0,0.1-0.1,0.2l0,0l0,0l0,0L51,19.7
				c-0.1,0.2-0.2,0.5-0.2,0.7s-0.1,0.4-0.2,0.6l-0.1,0.3l0,0v0.1l0,0c-0.1,0.2-0.1,0.4-0.2,0.6c-0.1-0.2-0.1-0.5,0-0.7V21
				c0-0.1,0-0.2,0-0.2s0.1-0.3,0.1-0.5l0.1-0.4l0.1-0.2l0.1-0.2l0.1-0.4c-0.1,0.2-0.2,0.4-0.2,0.6c-0.1,0.2-0.2,0.4-0.2,0.6
				l-0.1,0.3l-0.1,0.2L50,21c-0.1,0.2-0.2,0.5-0.2,0.7L49.7,22l0,0l0,0l0,0c0,0.1-0.1,0.2-0.1,0.3s-0.1,0.4-0.2,0.6l-0.1,0.3
				c0,0.1,0,0.2-0.1,0.3L49.1,24c-0.1-0.6-0.1-1.2,0.1-1.7c0-0.2,0.1-0.3,0.1-0.5l0.1-0.4l0.1-0.3c-0.1,0.2-0.2,0.4-0.2,0.6
				s-0.2,0.4-0.2,0.6L49,22.7l0,0l0,0c0,0.1-0.1,0.2-0.1,0.3l-0.2,0.7c0,0.1-0.1,0.2-0.1,0.3l-0.1,0.3c-0.1,0.2-0.1,0.4-0.2,0.6
				s-0.1,0.2-0.1,0.3c0,0.1,0,0.2-0.1,0.3c0,0.2-0.1,0.3-0.1,0.5c-0.1-0.2-0.1-0.5-0.1-0.8c0-0.2,0-0.3,0-0.5s0-0.3,0.1-0.5
				s0.1-0.3,0.1-0.5l0.1-0.4l0.1-0.4c-0.1,0.2-0.1,0.4-0.2,0.6c0,0.1,0,0.1,0,0.2v0.1c0,0-0.1,0.4-0.1,0.5L47.8,25l-0.2,0.7L47.5,26
				c0,0.1,0,0.1,0,0.2l0,0c0,0,0,0,0,0.1l0,0v0.1L47.3,27c0,0.1,0,0.2-0.1,0.3l-0.1,0.3c0,0.2-0.1,0.4-0.1,0.5
				c0-0.1-0.1-0.2-0.1-0.4c0-0.1,0-0.1,0-0.2s0-0.2,0-0.2c0-0.3,0-0.7,0.1-1c0-0.1,0-0.2,0-0.2c0-0.1,0-0.1,0-0.2
				c0-0.2,0-0.3,0.1-0.4c0-0.2,0.1-0.4,0.1-0.4c-0.2,0.7-0.4,1.4-0.6,2l0,0c0,0.2-0.1,0.4-0.1,0.6l-0.2,0.7l-0.1,0.3L46.1,29
				c0,0.2-0.1,0.4-0.1,0.6s0,0.2,0,0.3s0,0.2,0,0.2c-0.1-0.1-0.1-0.2-0.2-0.3c0-0.1,0-0.3,0-0.5c0-0.4,0-0.7,0.1-1.1
				s0.1-0.8,0.2-1.3c-0.1,0.4-0.2,0.7-0.3,1.1l0,0l0,0l0,0c0,0.1,0,0.1,0,0.2c0,0.2-0.1,0.5-0.2,0.7s0,0.2-0.1,0.4s0,0.2-0.1,0.4
				l-0.1,0.7c0,0.1,0,0.2,0,0.4c0,0.1,0,0.1,0,0.2s0,0.1,0,0.2c0,0.4-0.1,0.8-0.1,1.2c0-0.1-0.1-0.2-0.1-0.3s0-0.1,0-0.2
				c0-0.1,0-0.2,0-0.4c0-0.2,0-0.4,0-0.5s0-0.2,0-0.3c0-0.1,0-0.2,0-0.3c0-0.2,0-0.3,0-0.5l0,0l0.1-0.5v-0.3c0-0.1,0-0.1,0-0.1
				s0,0.2-0.1,0.3v0.1l0,0l0,0l0,0c0,0.1,0,0.2,0,0.2S45,30.1,45,30.3V31v0.4c0,0.3-0.1,0.5-0.1,0.8c0,0.3,0,0.5-0.1,0.8
				s0,0.5-0.1,0.7s0,0.2,0,0.3s0,0.2,0,0.3s0,0.4,0,0.6v-0.1v-0.1c-0.1-0.2-0.1-0.4-0.1-0.7v-0.1v-0.1c0-0.1,0-0.2,0-0.3
				c0-0.2,0-0.4,0-0.6s0-0.4,0-0.5s0-0.3,0-0.4s0-0.2,0-0.3l0,0v-0.1l0,0l0,0l0,0v0.1l0,0c0,0.2-0.1,0.4-0.1,0.6
				c0,0.2-0.1,0.5-0.1,0.8l-0.1,0.8l-0.1,0.8c0,0.3,0,0.5,0,0.8s0,0.5,0,0.8s0,0.5,0,0.7v0.3c0,0.1,0,0.2,0,0.2l0,0l0,0
				c0-0.1-0.1-0.1-0.1-0.2L44,37c-0.1-0.2-0.1-0.3-0.1-0.5c0-0.4-0.1-0.8-0.1-1.2s0-0.7,0-1s0-0.4,0-0.4V34l0,0l-0.1,0.6
				c0,0.1,0,0.2,0,0.4v0.4c0,0.3,0,0.5,0,0.8s0,0.3,0,0.4s0,0.3,0,0.4c0,0.5,0,1.1,0.1,1.6s0.1,0.8,0.1,1.2l0,0V40l-0.1-0.2v-0.1
				c-0.1-0.2-0.1-0.3-0.2-0.5v-0.6l0,0v-0.1c0-0.3,0-0.5,0-0.8s0-0.2,0-0.4s0-0.2,0-0.3l0,0c0,0.1,0,0.2,0,0.3s0,0.6-0.1,1v0.1v-0.1
				c0-0.2,0-0.4-0.1-0.6c0-0.2,0-0.3,0-0.5v-0.1c0-0.2,0-0.3,0-0.5s0-0.2,0-0.3v-0.1c0,0.1,0,0.2,0,0.3l0,0l0,0c0,0.1,0,0.1,0,0.2
				l0,0c0,0,0,0.1,0,0.2c0,0.3,0,0.5,0,0.8c0,0.5,0,0.9,0.1,1.4c0,0.1,0,0.2-0.1,0.3c-0.1,0.2-0.3,0.4-0.5,0.6v-0.2
				c0-0.2,0-0.4,0-0.5s0-0.1,0-0.2l0,0c0-0.5,0-1,0-1.5c0-0.1,0-0.3,0-0.4v-0.4c0-0.2,0-0.4,0-0.6l0,0v-0.3l0,0c0-0.1,0-0.2,0-0.3
				v-0.4c0-0.2,0-0.5-0.1-0.7c0,0,0,0.2,0,0.4s0,0.6,0,1s-0.1,0.8-0.2,1.1c0,0.2-0.1,0.3-0.2,0.5c-0.1,0.1-0.1,0.3-0.2,0.4v-0.5
				c0-0.2,0-0.4,0-0.7s0-0.5,0-0.7s0-0.5,0-0.8s0-0.5,0-0.8s0-0.4,0-0.6l0,0c0-0.1,0-0.1,0-0.2l0,0l0,0c0-0.3,0-0.5-0.1-0.8
				S42,32.3,42,32.1c0,0,0,0.2,0,0.4s0,0.3,0,0.5v0.5c0,0.2,0,0.4,0,0.6v0.3v0.1v0.1c0,0.3-0.2,0.6-0.3,0.8v-1.3c0-0.2,0-0.5,0-0.7
				s0-0.5,0-0.8s0-0.5-0.1-0.8v-0.4c0-0.1,0-0.3,0-0.4s-0.1-0.5-0.1-0.8l-0.1-0.4l-0.1-0.3v0.1c0,0.1,0,0.2,0,0.3s0,0.6,0,1v0.3
				c0,0.1,0,0.2,0,0.3s0,0.4-0.1,0.6c0,0.3-0.1,0.6-0.3,0.9c0-0.3,0-0.7-0.1-1.2v-0.2v-0.2V31c0-0.2,0-0.5-0.1-0.8
				c0-0.1,0-0.2,0-0.3l0,0v-0.1l-0.1-0.4c0-0.3-0.1-0.5-0.1-0.8c-0.1-0.5-0.2-1-0.3-1.4c0.1,0.5,0.1,0.9,0.2,1.4c0,0.4,0,0.8,0,1.1
				c0,0.2,0,0.3-0.1,0.5c0,0.1-0.1,0.3-0.2,0.4v-0.3c0-0.1,0-0.2,0-0.3L40,29.5v-0.4c0-0.1,0-0.2,0-0.4s0-0.1,0-0.1l0,0v-0.1l0,0
				c0-0.2,0-0.3-0.1-0.5c-0.1-1-0.4-2-0.6-3l0,0l0,0c0,0,0,0.2,0.1,0.4s0,0.3,0.1,0.5c0,0.1,0,0.2,0,0.3v0.3c0,0.4,0,0.8,0,1.1v0.3
				c0,0.1,0,0.2,0,0.2c0,0.1-0.1,0.3-0.2,0.4L39.2,28c0-0.1,0-0.2,0-0.3v-0.1l0,0v-0.1v-0.1c0-0.2-0.1-0.5-0.1-0.7s0-0.3-0.1-0.4
				l-0.1-0.4c0-0.3-0.1-0.5-0.2-0.8s-0.1-0.5-0.2-0.8l-0.1-0.4v-0.2v-0.2l-0.2-0.7l0.1,0.4c0,0.1,0.1,0.3,0.1,0.4s0.1,0.4,0.1,0.5
				s0,0.4,0.1,0.6c0,0.2,0,0.4,0,0.6s0,0.4-0.1,0.7v0.1v0.1l-0.1-0.5L38,25.2c0-0.1,0-0.2-0.1-0.3s-0.1-0.5-0.2-0.7l-0.1-0.4
				l-0.1-0.4l-0.1-0.2l0,0v-0.1l0,0l-0.1-0.5l-0.1-0.4l-0.1-0.4c-0.1-0.2-0.2-0.5-0.2-0.7s-0.1-0.3-0.2-0.5l0,0l0,0l0,0l-0.1-0.2
				c0,0,0,0.1,0.1,0.2l0,0c0,0,0,0.1,0,0.2s0.1,0.3,0.1,0.4s0.1,0.3,0.1,0.5c0.2,0.7,0.2,1.3,0,2c0-0.1-0.1-0.3-0.1-0.5V23
				c0-0.1,0-0.2-0.1-0.3c0-0.1-0.1-0.2-0.1-0.3l0,0v-0.1l0,0c0-0.1,0-0.2-0.1-0.3s-0.1-0.5-0.2-0.8l-0.2-0.8L36,20.2V20l-0.1-0.4
				c-0.1-0.2-0.2-0.5-0.3-0.7s-0.2-0.5-0.3-0.6c0,0,0.1,0.2,0.1,0.4l0.1,0.2c0,0.1,0,0.1,0.1,0.2s0.1,0.3,0.1,0.5s0.1,0.4,0.1,0.6
				c0,0.1,0,0.2,0,0.3s0,0.2,0,0.3c0,0.3,0,0.6-0.1,0.9v-0.1l0,0v-0.1l0,0c-0.1-0.3-0.2-0.6-0.3-1s-0.1-0.5-0.2-0.7
				s-0.1-0.4-0.2-0.6l0,0v-0.1l0,0L34.9,19c-0.1-0.2-0.2-0.5-0.3-0.8l0.1-0.2l-0.1-0.2l-0.2-0.4L34.2,17l0,0l0,0
				c0-0.1-0.1-0.2-0.1-0.3l-0.3-0.6c0,0,0.1,0.2,0.2,0.4s0.1,0.3,0.2,0.4s0.1,0.3,0.2,0.5s0.1,0.4,0.1,0.6v0.1v0.1
				c0,0.1,0,0.2,0,0.3c0.1,0.3,0,0.6-0.1,0.9l-0.3-1l0,0v-0.1l-0.2-0.7l-0.1-0.4c0-0.1-0.1-0.2-0.1-0.4l-0.2-0.4l0,0v-0.1l0,0
				l-0.1-0.2l-0.3-0.7c-0.1-0.2-0.2-0.5-0.3-0.7l0,0l0,0l0,0l0,0c-0.1-0.2-0.2-0.4-0.3-0.6l0.2,0.4c0.1,0.2,0.2,0.6,0.4,0.9
				c0,0.2,0.1,0.4,0.2,0.6s0,0.2,0.1,0.3s0,0.2,0,0.3c0.1,0.3,0.1,0.6,0,0.9L32.8,17l-0.1-0.3l-0.1-0.2l-0.1-0.2l-0.2-0.5l0,0v-0.1
				l0,0c-0.1-0.3-0.2-0.5-0.3-0.8l-0.2-0.4l-0.2-0.4V14l0,0l0,0l0,0l-0.3-0.5l-0.1-0.2l-0.1-0.2L31,12.8c0-0.1-0.1-0.1-0.1-0.2l0,0
				v-0.1l0,0l-0.2-0.3v0.1c0.1,0.1,0.1,0.2,0.1,0.3c0.1,0.1,0.1,0.2,0.2,0.4l0.1,0.2c0,0.1,0.1,0.2,0.1,0.3c0.1,0.4,0.3,0.7,0.3,1.1
				c0.1,0.3,0.1,0.6,0,0.9l-0.1-0.4l0,0V15l0,0l0,0c0-0.1-0.1-0.2-0.1-0.3L31,14.4c-0.1-0.2-0.2-0.4-0.3-0.7s-0.1-0.2-0.1-0.3l0,0
				v-0.1l0,0L30.3,13c-0.1-0.1-0.1-0.2-0.2-0.4L30,12.3l-0.2-0.4v-0.1l0,0l-0.1-0.1l0,0l0,0l-0.1-0.2c-0.1-0.2-0.3-0.4-0.4-0.7
				s-0.1-0.2-0.2-0.3l-0.1-0.1l0,0l-0.1-0.1l0,0v-0.1v0.1v0.1l0.1,0.2c0.1,0.1,0.1,0.3,0.2,0.4c0.1,0.1,0.2,0.3,0.2,0.5
				s0.1,0.2,0.1,0.3l0.1,0.3c0.1,0.2,0.1,0.4,0.2,0.5c0.1,0.3,0.1,0.6,0.1,0.9c-0.1-0.1-0.1-0.3-0.2-0.5l-0.2-0.4l0,0l-0.1-0.1v-0.1
				l-0.2-0.3L29,11.9l-0.4-0.7l0,0l0,0l-0.1-0.1l0,0l-0.4-0.6l-0.4-0.7V9.7l0,0l-0.1-0.1l0,0l-0.1-0.1l-0.1-0.2l-0.1-0.2l-0.4-0.6
				L27.3,9c0.1,0.1,0.1,0.2,0.2,0.4s0.1,0.3,0.2,0.5c0.2,0.3,0.3,0.7,0.4,1.1c0.1,0.3,0.1,0.6,0.1,0.9c-0.1-0.3-0.4-0.6-0.6-1.1
				l-0.4-0.7L27,9.7l-0.2-0.4l-0.3-0.6l0,0l0,0l0,0L26.1,8L26,7.8V7.7V7.6l-0.2-0.3l0,0l0,0l-0.1-0.2l0,0L25.6,7
				c0-0.1-0.1-0.2-0.1-0.3v0.1c0,0.1,0.1,0.2,0.1,0.3v0.1v0.1l0.1,0.2c0.1,0.2,0.1,0.3,0.2,0.5C26,8.2,26,8.4,26.1,8.5
				s0,0.2,0.1,0.3l0.1,0.3c0.1,0.3,0.1,0.6,0.1,0.9l-0.2-0.5L26,9.2c0-0.1-0.1-0.2-0.1-0.3l-0.3-0.7V8.1V8l-0.1-0.2l-0.1-0.1l0,0
				l-0.1-0.2c-0.2-0.5-0.4-1-0.6-1.4V6c-0.2-0.5-0.3-0.9-0.5-1.3c0,0,0,0.2,0.1,0.4s0.2,0.6,0.2,0.9c0,0.1,0.1,0.2,0.1,0.3l0.1,0.3
				c0,0.2,0.1,0.4,0.1,0.6c0,0.1,0,0.2,0,0.3c0,0.1,0,0.2,0,0.2c0,0.1,0,0.3,0,0.4l-0.2-0.5L24.4,7l-0.1-0.3l-0.1-0.4L24,5.8
				l-0.1-0.2l-0.1-0.2L23.7,5l-0.1-0.4l-0.1-0.4c0-0.1-0.1-0.2-0.1-0.4L23,2.5v0.1v0.1v0.1c0,0.1,0,0.2,0.1,0.3v0.2v0.2
				c0,0.2,0,0.3,0.1,0.5s0,0.3,0.1,0.5s0,0.3,0,0.5c0,0.1,0,0.3,0,0.4c-0.5-0.6-0.9-1.2-1.4-1.9l-0.2-0.2c-0.1-0.1-0.1-0.2-0.2-0.2
				l0,0V3l-0.1-0.3l-0.2-0.3c0-0.1-0.1-0.2-0.2-0.3l0,0l0,0V1.8V1.7V1.6V1.5l0,0l0,0l0,0l0,0v0.1v0.1v0.1v0.4c0,0.1,0.1,0.2,0.1,0.3
				l0.1,0.3c0,0.1,0.1,0.2,0.1,0.3v0.1l0,0l0.1,0.3l0.1,0.3C21.8,4.5,22,5.3,22.2,6c-0.1-0.1-0.2-0.2-0.3-0.3
				c-0.1-0.1-0.2-0.2-0.4-0.3L21.3,5L21,4.6l-0.1-0.2l-0.1-0.2L20.6,4h-0.2l-0.1-0.1l-0.1-0.1L21.1,5l0.2,0.3l0.1,0.2l0,0l0.1,0.1
				L21.8,6L22,6.3l0.1,0.2l0.1,0.2L22.4,7l0.1,0.2l0,0l0.1,0.1l0.2,0.3l0.4,0.6l0.3,0.5c-0.1-0.1-0.2-0.1-0.4-0.2L23,8.2L22.8,8
				c-0.1-0.1-0.3-0.3-0.4-0.4l-0.2-0.2L22,7.2c-0.2-0.3-0.4-0.6-0.6-0.8l-0.2-0.3c0.4,0.7,1,1.7,1.6,2.6L23,9l0.1,0.2v0.1v0.1
				l0.4,0.7l0.2,0.3l0,0l0,0l0.1,0.2l0,0v0.1c0.1,0.2,0.2,0.4,0.2,0.5c-0.3-0.2-0.5-0.4-0.7-0.6v-0.1l-0.1-0.1l0,0l0,0
				c-0.1-0.1-0.1-0.1-0.2-0.2c-0.1-0.2-0.2-0.3-0.3-0.5l-0.3-0.4l-0.2-0.4c-0.1-0.1-0.1-0.2-0.1-0.3L22,8.4l0.1,0.3v0.1l0,0L22.3,9
				l0.2,0.3v0.1v0.1l0.1,0.2l0.3,0.6l0,0l0.1,0.1l0,0l0.3,0.7l0.2,0.4l0.2,0.4l0.1,0.1l0,0l0.2,0.5c0.1,0.4,0.3,0.7,0.4,0.9l0,0
				l0.1,0.1l0,0l0,0l-0.1-0.1l0,0c-0.2-0.1-0.3-0.3-0.4-0.5c-0.2-0.3-0.4-0.6-0.6-1c0-0.1-0.1-0.1-0.1-0.2v-0.1l0,0L23,11.5
				l-0.2-0.4l-0.2-0.4c0.1,0.2,0.2,0.4,0.2,0.6l0.1,0.2l0.1,0.2l0.1,0.4l0.3,0.7c0,0.1,0.1,0.3,0.2,0.4l0,0v0.1l0,0l0.1,0.2
				c0.1,0.2,0.2,0.5,0.3,0.7l0.1,0.3l0.2,0.3l0.3,0.6c0.1,0.2,0.2,0.3,0.2,0.5c-0.3-0.2-0.5-0.4-0.7-0.6c-0.1-0.1-0.2-0.3-0.3-0.5
				l-0.1-0.2l-0.1-0.2c-0.1-0.2-0.2-0.3-0.2-0.5s-0.1-0.3-0.2-0.4S23,13.2,23,13.2s0.1,0.2,0.1,0.3s0.1,0.2,0.1,0.3s0.2,0.4,0.2,0.6
				l0,0v0.1l0.1,0.2l0.1,0.2l0.2,0.4l0.2,0.4c0.1,0.1,0.1,0.2,0.2,0.4l0,0v0.1l0,0l0.3,0.6l0.3,0.6l0.2,0.3l0,0v0.1l0,0l0.1,0.2
				l0.3,0.5c-0.3-0.1-0.5-0.3-0.7-0.6c-0.1-0.1-0.2-0.3-0.3-0.4l0,0c-0.1-0.1-0.2-0.3-0.3-0.5L24,16.8l-0.1-0.2
				c-0.1-0.1-0.1-0.3-0.2-0.4l-0.1-0.3l0,0v-0.1v0.1l0,0l0.1,0.2l0.1,0.3l0.1,0.4L24,17l0.1,0.2l0.1,0.2l0,0v0.1l0,0
				c0.1,0.1,0.1,0.3,0.2,0.5l0.2,0.4l0.2,0.4l0.2,0.4l0,0v0.1l0,0l0.5,0.9l0.1,0.1l0.1,0.1l0.2,0.3l0.2,0.2l0,0l0.1,0.1l0,0l0.1,0.1
				c-0.3-0.1-0.5-0.3-0.7-0.5c-0.1-0.1-0.1-0.1-0.2-0.2L25,20c-0.1-0.2-0.2-0.3-0.3-0.5c-0.2-0.3-0.4-0.6-0.5-0.9
				c-0.1-0.1-0.1-0.1-0.1-0.2l0,0L24,18.2l0.1,0.2l0,0v0.1l0,0l0.2,0.4c0.1,0.2,0.2,0.5,0.4,0.7s0.2,0.3,0.3,0.5l0,0v0.1l0,0
				l0.1,0.1l0.4,0.7l0.2,0.4l0.2,0.3l0.1,0.2l0,0V22l0,0c0.1,0.1,0.1,0.2,0.2,0.4c0.3,0.4,0.5,0.7,0.7,1c-0.3-0.1-0.6-0.3-0.8-0.5
				l-0.2-0.2l-0.1-0.1l-0.1-0.1c-0.1-0.1-0.2-0.3-0.4-0.5c-0.1-0.1-0.2-0.3-0.3-0.4c0-0.1-0.1-0.1-0.1-0.2l0,0l-0.1-0.2l-0.2-0.4
				c0.1,0.1,0.1,0.3,0.2,0.4l0,0l0,0l0,0c0,0,0,0.1,0.1,0.1s0.1,0.2,0.2,0.3l0.2,0.3l0.2,0.3l0.1,0.2l0.1,0.2l0.1,0.2l0,0V23l0,0
				l0.2,0.4c0.1,0.2,0.3,0.4,0.5,0.7l0.4,0.6c0.1,0.1,0.1,0.2,0.2,0.3l0.1,0.1l0,0l0.5,0.6c-0.3-0.1-0.6-0.3-0.8-0.5
				c-0.1-0.1-0.1-0.1-0.2-0.2l-0.2-0.2c-0.1-0.1-0.3-0.3-0.4-0.4s-0.2-0.3-0.3-0.4c0-0.1-0.1-0.1-0.1-0.2l-0.1-0.2l-0.2-0.4
				c0.1,0.2,0.2,0.4,0.4,0.6l0.1,0.2l0,0l0,0l0,0l0.3,0.4l0.2,0.3l0.1,0.2l0.1,0.2l0.5,0.7l0.2,0.3l0,0v0.1l0,0l0.2,0.3l0.5,0.6
				l0.2,0.3l0.2,0.2l0.4,0.4c-0.6-0.3-1.2-0.7-1.6-1.2c-0.1-0.1-0.2-0.3-0.4-0.4L26.5,26c-0.2-0.2-0.2-0.4-0.2-0.4
				c0.1,0.2,0.2,0.4,0.4,0.6s0.3,0.4,0.4,0.6l0.2,0.3l0,0l0,0l0.2,0.3L28,28l0.2,0.3l0.2,0.3l0.5,0.6l0.2,0.2l0.1,0.1l0,0l0,0
				l0.1,0.1l0.4,0.4c-0.3-0.1-0.6-0.2-0.8-0.4c-0.2-0.1-0.3-0.2-0.4-0.4l-0.4-0.4l-0.4-0.4L27.4,28h-0.2l0.4,0.6l0.1,0.1l0.1,0.1
				l0.2,0.3l0.5,0.6l0.5,0.6l0.3,0.3l0.1,0.1l0,0l0.1,0.1l0,0l0.1,0.1l0.5,0.5l0.2,0.2l0.2,0.2l0.4,0.4c-0.1,0-0.3-0.1-0.4-0.1
				L30.3,32h-0.2c-0.3-0.2-0.6-0.5-0.9-0.7L29,31.1l-0.2-0.2l-0.3-0.3c-0.2-0.2-0.3-0.3-0.3-0.3c0.5,0.6,1,1.3,1.5,1.8l0,0l0,0l0,0
				c0.1,0.2,0.3,0.3,0.5,0.5s0.4,0.4,0.5,0.6l0.3,0.3l0.3,0.2l0.5,0.5l0.2,0.2l0.2,0.2c-0.1,0-0.3,0-0.4-0.1
				c-0.2-0.1-0.3-0.1-0.5-0.2c-0.3-0.2-0.6-0.4-0.9-0.7c-0.4-0.3-0.7-0.6-1-1c0.2,0.3,0.5,0.6,0.8,0.9l0,0l0,0l0,0l0.1,0.2
				c0.2,0.2,0.4,0.4,0.6,0.6l0.3,0.3l0.3,0.3l0.6,0.5l0.3,0.3l0.1,0.1l0.1,0.1l0.9,0.8c-0.1,0-0.3,0-0.4-0.1l-0.2-0.1l-0.3-0.2
				L32.2,36L32,35.9l-0.2-0.2l-0.4-0.3l0,0L31,35.1c-0.1-0.1-0.2-0.1-0.2-0.2l-0.1-0.1c0.1,0.1,0.1,0.2,0.2,0.2l0,0l0,0l0,0l0,0
				l0.2,0.2l0.5,0.5l0.3,0.3l0.3,0.3L33,37c0.2,0.2,0.4,0.3,0.6,0.5l0.6,0.5l0.3,0.2l0.2,0.2l0.4,0.3H35h-0.1
				c-0.2,0-0.4-0.1-0.7-0.2l-0.1-0.1L34,38.3l-0.2-0.2l-0.5-0.3c-0.2-0.1-0.3-0.2-0.4-0.3s-0.2-0.2-0.3-0.3L32.3,37h-0.1l0,0l0,0
				l0,0l0,0l0,0c0.1,0.2,0.3,0.3,0.4,0.5l0.6,0.5c0.2,0.2,0.4,0.3,0.6,0.5l0.6,0.5l0.6,0.5l0.6,0.4l0.5,0.4l0.2,0.2l0.2,0.2h-0.2
				h-0.2c-0.2,0-0.3-0.1-0.5-0.2c-0.3-0.2-0.7-0.3-1-0.5s-0.6-0.4-0.8-0.6l-0.2-0.2l0,0l0,0l0,0l0,0l0.1,0.1l0,0l0.4,0.4l0.3,0.2
				c0.1,0.1,0.2,0.2,0.3,0.2s0.4,0.3,0.6,0.5l0.3,0.2L36,41l1.2,0.9l1,0.6l0,0l0,0H38c-0.2,0-0.4-0.1-0.7-0.2
				c-0.2-0.1-0.3-0.1-0.5-0.2l-0.5-0.3l-0.2-0.1l-0.3-0.2l0,0l-0.2-0.1l-0.1-0.1l-0.2-0.2L35.2,41l0.2,0.2l0,0l0,0l0.2,0.1l0,0
				l0.1,0.1l0.6,0.5c0.4,0.3,0.9,0.6,1.3,1l0.3,0.2l0.2,0.1l0.2,0.1l0.6,0.4l0.6,0.3l0.2,0.1l0.2,0.1l0,0H40c-0.3,0-0.6,0-0.9-0.1
				c-0.2,0-0.3-0.1-0.5-0.2l0,0l-0.5-0.2H38l-0.2-0.1l-0.2-0.1l-0.4-0.2L36.8,43c0.2,0.2,0.4,0.3,0.7,0.5l0,0l0.1,0.1l0.2,0.1l0,0
				l0,0c0.5,0.3,1,0.7,1.6,1l0.7,0.4l0.3,0.2l0.3,0.2l0.9,0.5l0,0l0.2,0.1c-0.1,0-0.3,0-0.4,0h-0.2l0.2,0.1c-0.2,0-0.3-0.1-0.5-0.1
				L40.5,46l-0.2-0.1l-0.4-0.2l-0.5-0.3l-0.3-0.2L38.9,45l-0.2-0.1l0.3,0.3c0.1,0.1,0.2,0.2,0.4,0.3l-0.6-0.3
				c-0.1-0.1-0.2-0.1-0.4-0.2l0.1,0.1l0.1,0.1l0.3,0.2l0.6,0.4l0,0h0.1l0.3,0.2l0,0l0.3,0.2c0.1,0.1,0.3,0.3,0.4,0.4
				c0.1,0.2,0.2,0.3,0.3,0.5l-0.4-0.2l-0.1-0.1l-0.2-0.2L40,46.4l-0.3-0.2l-0.6-0.5l-0.7-0.5l0,0L38.1,45l0,0
				c-0.5-0.4-1-0.7-1.5-1.1l0.3,0.3l0.4,0.3l0.2,0.2l0.2,0.2c0.3,0.3,0.6,0.5,0.8,0.8c0.2,0.2,0.4,0.5,0.5,0.8l-0.2-0.2L38.6,46
				l-0.5-0.4l-0.6-0.5L37.4,45l-0.2-0.1l-0.3-0.2L36,44l0,0l-0.3-0.2l0,0l-0.1-0.1L35,43.3l-0.3-0.2c-0.1-0.1-0.2-0.1-0.3-0.2
				l0.1,0.1l0.2,0.2l0.8,0.6l0.4,0.4c0.2,0.1,0.3,0.3,0.4,0.4c0.2,0.2,0.4,0.5,0.5,0.8L36,44.6l-1.2-0.9l-0.3-0.2l-0.3-0.2l-0.6-0.5
				h-0.1l0,0l-0.2-0.2L33,42.4L32.3,42l0.3,0.2c0.2,0.2,0.5,0.4,0.8,0.6s0.6,0.5,0.8,0.8c0.1,0.1,0.2,0.3,0.3,0.4
				c0.1,0.1,0.2,0.2,0.2,0.4l-0.2-0.2L34.3,44l-0.5-0.4l-0.6-0.4l-0.6-0.5L32,42.2l-0.6-0.5l-0.6-0.4L30.3,41l0.3,0.2l0.3,0.3
				c0.1,0.1,0.3,0.2,0.4,0.3l0.4,0.4c0.1,0.1,0.1,0.1,0.2,0.2l0.1,0.1l0.1,0.1c0.2,0.2,0.4,0.5,0.5,0.8L32.2,43L32,42.8l-0.3-0.2
				l-0.5-0.4l-0.6-0.5L30,41.3L29.7,41l-0.3-0.2l-0.5-0.4l-0.3-0.2L28.4,40l0.1,0.1l0.2,0.2c0.2,0.2,0.5,0.4,0.7,0.6l0.2,0.2
				l0.2,0.2c0.1,0.1,0.3,0.3,0.4,0.4c0.2,0.2,0.4,0.5,0.5,0.7l-0.9-0.7l-0.1-0.1l-0.1-0.1l-0.3-0.2l-0.6-0.4l-0.2-0.2l0,0h-0.1
				L28,40.4L27.4,40c-0.3-0.2-0.7-0.5-1-0.7c0.3,0.2,0.6,0.5,0.9,0.8c0.3,0.2,0.5,0.5,0.7,0.7c0.1,0.1,0.2,0.2,0.3,0.4
				c0.1,0.1,0.1,0.2,0.2,0.3l-0.2-0.2c-0.1,0-0.1-0.1-0.2-0.2l-0.5-0.4c-0.1-0.1-0.2-0.1-0.2-0.2l-0.3-0.2L26.6,40
				c-0.7-0.5-1.4-1-2.1-1.5l0,0l0,0l0.3,0.2l0.3,0.2l0.2,0.1l0.2,0.2c0.2,0.2,0.5,0.5,0.7,0.7l0.1,0.2c0,0.1,0.1,0.1,0.1,0.2
				c0.1,0.1,0.1,0.2,0.2,0.3l-0.4-0.3L26,40.2L25.7,40l-0.5-0.4L25,39.4l-0.3-0.2l-0.5-0.4l-0.5-0.4l-0.2-0.2l-0.1-0.1L23.1,38
				l-0.5-0.3l0.3,0.2l0.3,0.2l0.3,0.3c0.1,0.1,0.2,0.2,0.3,0.3c0.1,0.1,0.2,0.2,0.3,0.3c0.1,0.2,0.2,0.3,0.3,0.5v0.1v0.1L24,39.4
				v-0.1l-0.2-0.2l-0.5-0.4L23,38.6l-0.3-0.2L22.2,38L22,37.8l-0.3-0.2l-0.5-0.4L20.9,37l0,0l-0.1-0.1l0.1,0.1l0,0l0,0l0,0l0.1,0.1
				l0.3,0.2l0.3,0.3c0.4,0.4,0.8,0.8,1,1.3l-0.4-0.3L22,38.5l-0.2-0.2c-0.2-0.1-0.3-0.2-0.5-0.4l-0.5-0.4l-0.5-0.4L20.2,37H20
				l-0.3-0.2c-0.2-0.1-0.4-0.2-0.5-0.3l-0.5-0.3c0.1,0.1,0.2,0.1,0.3,0.2l0.1,0.1l0.1,0.1l0.3,0.3l0.3,0.3l0.1,0.2
				c0.1,0.1,0.1,0.1,0.1,0.2c0.2,0.2,0.3,0.4,0.4,0.7l-0.8-0.6l-0.5-0.4L19,36.9l0,0h-0.1l0,0l0,0c-0.2-0.1-0.4-0.3-0.5-0.4
				l-0.1-0.1l-0.1-0.1L17.8,36l-0.3-0.2l0,0l0,0l-0.2-0.2l-0.5-0.3l0.3,0.2c0.1,0.1,0.2,0.1,0.3,0.2c0.1,0.1,0.2,0.2,0.3,0.3
				l0.3,0.3l0.1,0.1l0.1,0.1c0.1,0,0.1,0.1,0.1,0.2c0.2,0.2,0.3,0.4,0.4,0.6L18,36.8l0,0l-0.1-0.1l-0.5-0.4l-0.3-0.2L16.9,36
				l-0.3-0.2l0,0l0,0l-0.2-0.1l-0.6-0.4L15.3,35l0,0l0,0l0,0l-0.5-0.3l0.3,0.2c0.2,0.2,0.4,0.3,0.6,0.5l0.4,0.3l0.2,0.2l0.2,0.2
				c0.2,0.2,0.3,0.4,0.4,0.6l-0.4-0.3l-0.2-0.2L16,36.1L15.8,36l-0.4-0.3l0,0l-0.1-0.1l0,0l-0.6-0.4L14.5,35l-0.3-0.2l-0.1-0.1H14
				l0,0l-0.4-0.3l-0.1-0.1l-0.1-0.1L13,34.1L12.8,34l0,0h-0.1l0,0l-0.3-0.2l0.1,0.1l0.2,0.2l0.3,0.2l0.2,0.1c0.1,0,0.1,0.1,0.2,0.2
				c0.3,0.2,0.5,0.4,0.7,0.7c0.2,0.2,0.3,0.4,0.4,0.7l-0.4-0.3L14,35.3l-0.2-0.2l-0.5-0.4l-0.6-0.4l-0.3-0.2L12,34l-0.3-0.2
				l-0.1-0.1l-0.1-0.1l-0.6-0.4L10.6,33h-0.2l0,0h-0.1l0,0l0,0l0.3,0.2l0.3,0.2c0.1,0.1,0.2,0.2,0.4,0.3l0.2,0.2l0.2,0.2
				c0.1,0.1,0.2,0.2,0.4,0.3c0.2,0.2,0.3,0.4,0.4,0.7L12,34.7l-0.5-0.3l-0.3-0.2L11,34l-0.6-0.4l0,0l-0.6-0.4l-0.6-0.4l-0.3-0.2
				c-0.1,0-0.1-0.1-0.1-0.1l-0.1-0.1L8,32.1l0.3,0.2l0.3,0.2L9,32.8c0.3,0.2,0.5,0.4,0.8,0.7c0.2,0.2,0.4,0.4,0.5,0.7l-0.9-0.6
				l-0.6-0.4L8.4,33l-0.3-0.2l-0.4-0.3l0,0l-0.1-0.1l0,0l0,0L7,31.8l-0.1-0.1H6.8l-0.1-0.1l-0.3-0.2l0,0l0,0l-0.1-0.1l0,0l-0.1-0.1
				L6,31c0,0,0.1,0,0.1,0.1l0.2,0.2c0,0,0,0.1,0.1,0.1l0.1,0.1l0.1,0.1l0.3,0.3l0.3,0.4c0.1,0.1,0.1,0.1,0.2,0.2l0.2,0.2l0,0
				c0.2,0.2,0.3,0.5,0.4,0.7L7.5,33l-0.2-0.2l-0.2-0.2l-0.5-0.5L6.5,32H6.4l-0.1-0.1L6,31.7c-0.7-0.6-1.3-1.3-2-2L4.2,30
				c0.1,0.2,0.3,0.4,0.5,0.7l0.2,0.2C5,31,5,31,5.1,31.1s0.2,0.3,0.3,0.4c0,0.1,0.1,0.1,0.1,0.2s0.1,0.1,0.1,0.2
				c0.1,0.1,0.1,0.2,0.1,0.4c-0.1-0.1-0.2-0.2-0.4-0.4l-0.4-0.5l-0.2-0.2L4.5,31l-0.2-0.3l-0.1-0.1L4,30.4l-0.2-0.3l-0.2-0.3
				c-0.1-0.1-0.2-0.2-0.2-0.3l-0.2-0.3l-0.8-1.1v0.1v0.1c0,0,0,0.1,0.1,0.1c0,0.1,0.1,0.2,0.2,0.3l0.1,0.2c0,0,0.1,0.1,0.1,0.2
				l0.2,0.4c0.1,0.1,0.2,0.3,0.2,0.4c0.1,0.1,0.2,0.3,0.2,0.4c0.1,0.1,0.1,0.3,0.2,0.4c-0.6-0.4-1.2-0.8-1.8-1.2l-0.2-0.2l-0.2-0.2
				l0,0V29L1,28.8l-0.2-0.2l-0.3-0.2l0,0l-0.2-0.2H0.2H0.1V28l0,0l0,0l0,0l0,0l0.1,0.1v0.1l0.1,0.1l0.2,0.2l0.2,0.2l0.2,0.2l0.2,0.2
				l0.1,0.1l0,0l0.2,0.2l0.2,0.2c0.5,0.6,1,1.2,1.4,1.8l-0.4-0.1l0,0l-0.4-0.1L1.8,31l-0.4-0.2l-0.2-0.1L1,30.6l-0.3-0.1H0.6l0,0
				H0.5l1.1,0.7L2,31.3l0.2,0.1l0,0l0.1,0.1l0.3,0.2l0.3,0.2L3.1,32l0.2,0.1c0.1,0.1,0.2,0.1,0.3,0.2l0.2,0.1l0,0l0.1,0.1l0.3,0.2
				L4.6,33L5,33.3c-0.1,0-0.2,0-0.4,0l-0.2-0.1l-0.2-0.1c-0.1,0.1-0.2,0-0.4-0.1l-0.2-0.1l-0.2-0.1c-0.3-0.1-0.5-0.3-0.8-0.4
				l-0.3-0.2l0.9,0.6l0,0l0.1,0.1l0,0l1.3,0.9l0,0l0,0l0.1,0.1l0,0L4.8,34H5l0.1,0.1h0.1l0.6,0.4L6,34.7l0,0l0,0l0.2,0.1l0,0
				l0.1,0.1c0.2,0.1,0.3,0.2,0.4,0.3c-0.2,0-0.5-0.1-0.7-0.2l-0.2-0.1l-0.2-0.1L5,34.5l-0.4-0.2l-0.3-0.2L4,33.9l-0.1-0.1L4.1,34
				h0.1l0,0l0.2,0.2l0.3,0.2h0.1l0.1,0.1L5,34.7l0.5,0.4l0,0l0.1,0.1l0,0l0.6,0.5l0.3,0.2l0.3,0.2l0,0l0,0l0.1,0.1H7l0.4,0.3
				l0.8,0.6l0,0l0.1,0.1H8.1c-0.2,0-0.4-0.1-0.6-0.2c-0.3-0.2-0.6-0.3-0.9-0.5l-0.4-0.3C6.1,36.1,6,36,5.9,36l-0.3-0.2
				c0.2,0.1,0.3,0.3,0.5,0.4l0.1,0.1l0.1,0.1l0,0l0,0l0.2,0.2l0.6,0.5l0.3,0.3l0,0l0.1,0.1l0,0l0.2,0.2l0.6,0.5l0.3,0.2l0.1,0.1l0,0
				l0.1,0.1H9l0,0l0.5,0.3l0.4,0.3c-0.3,0-0.5,0-0.8-0.1l-0.5-0.2l-0.2-0.1l-0.2-0.1l-0.4-0.3L7.5,38l-0.3-0.3L7.4,38l0.3,0.2
				l0.5,0.4l0,0h0.1l0,0l0.1,0.1l0.1,0.1L8.8,39l0.3,0.2l0.3,0.2l0,0l0.1,0.1l0,0l0.5,0.3c0.2,0.1,0.4,0.2,0.6,0.3l0.3,0.2l0,0H11
				l0,0l0.2,0.1l0.4,0.2c-0.3,0-0.5,0-0.8-0.1l-0.4-0.1l0,0h-0.1l0,0c-0.1-0.1-0.3-0.1-0.4-0.2l-0.2-0.1L9.5,40l-0.4-0.2L9,39.7l0,0
				H8.9H9l0,0l0.2,0.2C9.3,40,9.4,40,9.5,40.1l0.3,0.2l0.1,0.1l0.1,0.1l0.2,0.1l0,0h0.1l0,0l0.4,0.2L11,41c0.1,0.1,0.2,0.1,0.3,0.2
				l0.4,0.2l0,0h0.1l0,0l0.8,0.4l0.1,0.1l0.1,0.1l0.3,0.1l0.3,0.2l0,0h0.1c-0.2,0.1-0.5,0.1-0.8,0l-0.2-0.1l-0.2-0.1
				c-0.2,0-0.3-0.1-0.5-0.2c-0.3-0.1-0.5-0.2-0.8-0.4l-0.3-0.2l0.2,0.1l0,0l0,0l0,0l0.3,0.2l0.6,0.3l0.4,0.2l0,0h0.1l0,0l0.1,0.1
				l0.7,0.3l0.3,0.2l0.3,0.1c0.2,0.1,0.4,0.2,0.6,0.2l1,0.4c-0.3,0.1-0.5,0.1-0.8,0h-0.2h-0.1h-0.1c-0.2,0-0.3-0.1-0.5-0.2L13.2,43
				L13,42.9l0,0l0,0l0,0l-0.1-0.1L12.6,43c0.1,0.1,0.3,0.2,0.4,0.2l0,0l0,0l0,0l0.1,0.1l0.3,0.2l0.3,0.2l0.3,0.1l0.2,0.1l0.2,0.1
				l0.2,0.1l0,0h0.1l0,0l0.4,0.2c0.2,0.1,0.4,0.2,0.7,0.2l0.6,0.2l0.3,0.1l0,0h0.1l0,0l0.6,0.2c-0.3,0.1-0.5,0.1-0.8,0.1h-0.2h-0.2
				L15.7,45c-0.2,0-0.3-0.1-0.4-0.1L15,44.6l-0.2-0.1l-0.3-0.1l0.6,0.3l0.2,0.1l0,0l0.4,0.2l0.3,0.1l0.2,0.1l0.2,0.1l0.7,0.2
				l0.3,0.1l0,0h0.1l0,0l0.3,0.1l0.6,0.2l0.3,0.1l0.3,0.1l0.5,0.1c-0.6,0.2-1.2,0.2-1.8,0l-0.5-0.1L16.8,46l-0.4-0.1L17,46l0.6,0.2
				l0.3,0.1l0,0l0.3,0.1l0.7,0.2l0.4,0.1l0.3,0.1l0.7,0.1h0.3h0.1h0.1H21l0.5,0.1c-0.3,0.1-0.6,0.2-0.8,0.2c-0.3,0-0.7,0-1-0.1h-0.5
				L18.8,47l-0.4-0.1L19,47h0.2h0.2l0.3,0.1l0.7,0.2l0.7,0.1l0.4,0.1h0.2h0.1h0.1l0.7,0.1h0.3h0.3h0.5c-0.1,0.1-0.2,0.1-0.4,0.1
				L23,48c-0.1,0-0.2,0-0.2,0c-0.4,0-0.7,0-1.1,0h-0.2h-0.2l-0.4-0.1l-0.4-0.1c0.7,0.2,1.4,0.3,2.1,0.4h0.1l0.6,0.1l0.8,0.1
				c0.1,0,0.2,0,0.4,0h0.4h0.6H26c-0.1,0.1-0.3,0.1-0.4,0.2c-0.2,0-0.3,0.1-0.5,0.1c-0.4,0-0.7,0-1.1,0s-0.9,0-1.3-0.1
				c0.4,0.1,0.8,0.1,1.1,0.2l0,0H24l0.8,0.1H25h0.4h0.8h0.7h1.2C28,49,27.9,49,27.7,49.1L27.5,49l0,0l-0.3,0.1l-0.6,0.1h-0.3h-1.2
				h-0.3h-0.1H25h0.1h0.3l0.8,0.1h0.4h2h0.8h0.4H30h0.6l-0.2,0.1h-0.1c-0.2,0.1-0.4,0.2-0.7,0.2h-0.1h-0.1h-0.3l-0.6,0.1h-0.6H27
				h0.6h1.6c0.3,0,0.6,0,0.9,0L31,50l0.8-0.1l0.7-0.1h0.3H33l0,0l-0.1,0.1h-0.3h-0.2L31.8,50h-0.4h0.3H32h0.5
				c-0.2,0.1-0.3,0.1-0.5,0.2c-0.4,0.1-0.8,0.2-1.2,0.2c-0.4,0.1-0.7,0.1-1.1,0.1h-0.5h1.1h0.4l0.9-0.1H32h0.4l1-0.1
				c0.1,0,0.2,0.1,0.2,0.1H33h-0.5h-0.6l-0.6,0.1h-0.1H31h-0.3l-0.5,0.1l-0.3,0.1l-0.2,0.1h0.1H30c0.2,0,0.5-0.1,0.7-0.1h0.4
				c0.1,0,0.3,0,0.4,0s0.3,0,0.4,0.1l0,0l0.2,0.1L31.2,51h-0.1H31h-0.3h-0.6h-0.2h-0.1h-0.3L29,51.3c-0.3,0.1-0.7,0.2-1,0.3
				c0.3-0.1,0.7-0.2,1-0.2s0.6,0,0.8,0c0.1,0,0.2,0,0.4,0.1c0.1,0,0.2,0.1,0.3,0.1h-0.2h-0.2l-0.5,0.1h-0.3H29l0,0l0,0h-0.1l0,0
				l-0.4,0.1c-0.7,0.2-1.4,0.4-2.1,0.7l0,0l0.3-0.1l0.3-0.1h0.2h0.2c0.3,0,0.5-0.1,0.8-0.1h0.2h0.2c0.1,0,0.2,0.1,0.3,0.1l-0.4,0.1
				h-0.2h-0.1l0,0h-0.1l0,0H28l-0.5,0.1l-0.3,0.1l-0.3,0.1l-0.6,0.2l-0.6,0.2h-0.1l0,0l-0.2,0.1l-0.1,0.1h-0.1l-0.5,0.2l0.3-0.1
				l0.3-0.1l0.4-0.1l0.4-0.1h0.4c0.2,0,0.3,0,0.5,0h0.1h0.1l-0.4,0.1l-0.2,0.1l-0.2,0.1l-0.5,0.2l-0.3,0.1l-0.3,0.1l-0.2,0.1l0,0
				l0,0l0,0L24.8,54h-0.2l-0.3,0.1l-0.5,0.2l-0.3,0.2l0,0l-0.1,0.1l0.2-0.1l0,0h0.1l0.3-0.1l0.4-0.1c0.5-0.2,1-0.2,1.5-0.1l-0.4,0.1
				l-0.2,0.1l-0.2,0.1l-0.2,0.1l0,0h-0.1l0,0l-0.2,0.1l-0.5,0.2L23.3,55l-0.1,0.1H23h-0.1l0,0l-0.1,0.1l-0.5,0.3l-0.5,0.2l0.3-0.1
				l0.1-0.1l0.2-0.1l0.4-0.1l0.4-0.1h0.2h0.2c0.2-0.1,0.4-0.1,0.6,0h-0.1l0,0H24l0,0l-0.7,0.3l-0.5,0.2l-0.4,0.2l0,0h-0.1l0,0l0,0
				l-0.5,0.3l-0.1,0.1l-0.1,0.1l-0.3,0.1l-0.2,0.1l0,0l0,0l0,0l-0.2,0.1L20.4,57l0.3-0.1l0.3-0.2l0.4-0.2l0.4-0.1h0.1H22h0.2
				c0.2,0,0.4,0,0.6,0l-0.7,0.3l0,0H22l0,0l-0.5,0.2L21,57.3l-0.3,0.1l-0.3,0.2l0,0h-0.1l0,0l-0.2,0.1L19.7,58l-0.5,0.3l0,0l0,0l0,0
				l-0.4,0.3l0.3-0.2c0.2-0.1,0.4-0.2,0.7-0.3h0.3l0.2-0.1h0.2c0.2-0.1,0.4-0.1,0.6,0h-0.4l-0.2,0.1l-0.1,0.1h-0.1l-0.4,0.2l0,0
				h-0.1l0,0c-0.2,0.1-0.4,0.2-0.6,0.3l-0.3,0.1L18.7,59h-0.1l0,0h-0.1l0,0l-0.4,0.2L18,59.3l-0.1,0.1l-0.2,0.2l-0.2,0.1l0,0h-0.1
				l0,0l-0.2,0.1h0.1l0.2-0.1l0.3-0.2l0.2-0.1l0.2-0.1c0.3-0.1,0.5-0.2,0.8-0.3c0.2-0.1,0.4-0.1,0.7-0.1l-0.4,0.2L19,59.3l-0.2,0.1
				l-0.5,0.3l-0.2,0.1l0,0H18l0,0l-0.2,0.1l-0.3,0.2l-0.3,0.2L17,60.4l-0.1,0.1l-0.1,0.1l-0.5,0.3L16.1,61L16,61.1l0,0h-0.1l0,0l0,0
				l0.3-0.2l0.3-0.2l0.4-0.2l0.2-0.1l0.2-0.1l0.4-0.1c0.2-0.1,0.4-0.1,0.7-0.1L18,60.3l-0.4,0.2l-0.2,0.1L17,61l-0.5,0.3l0,0
				L16,61.6l-0.5,0.3l-0.2,0.2l-0.1,0.1H15l-0.4,0.2l0.3-0.1l0.3-0.1l0.4-0.2c0.3-0.1,0.5-0.2,0.8-0.3c0.2-0.1,0.4-0.1,0.7-0.1
				l-1,0.4l-0.5,0.3l-0.2,0.1l-0.3,0.1l-0.5,0.3L14.1,63L14,63.1h-0.1h-0.1l-0.2,0.1l0,0l-0.1,0.1l0,0h-0.1l-0.2,0.1h0.1l0.2-0.1
				h0.1h0.1h0.1l0.4-0.1l0.4-0.1l0.2-0.1H15l0,0c0.2-0.1,0.5-0.1,0.7-0.1l-0.4,0.2L15,63.2l-0.2,0.1l-0.5,0.2h-0.1h-0.1L14,63.6
				l-0.3,0.1c-0.7,0.3-1.4,0.5-2.2,0.7l0.3-0.1l0.7-0.2h0.2H13c0.1,0,0.3,0,0.4-0.1h0.2h0.2c0.1,0,0.2,0,0.3,0l-0.4,0.1l-0.5,0.2
				L13,64.5l-0.3,0.1l-0.3,0.1h-0.1h-0.1l-0.3,0.1l-0.3,0.1L11.3,65c-0.1,0-0.2,0-0.3,0.1l-1.1,0.2h0.2h0.3h0.1h0.2L11,65h0.4h0.4
				c0.1,0,0.2,0,0.3,0c-0.5,0.3-1,0.6-1.5,0.8l-0.2,0.1c-0.1,0-0.1,0.1-0.2,0.1l0,0h-0.1l-0.2,0.1l-0.2,0.1l-0.2,0.1l0,0l-0.2,0.1
				H9.2H9.1l0,0l0,0H9h0.1h0.1h0.1l0.2-0.1l0.2-0.1l0.2-0.1l0.2-0.1h0.1l0,0h0.2h0.2c0.6-0.1,1.1-0.3,1.7-0.4
				c-0.1,0.1-0.1,0.2-0.2,0.2L11.8,66l-0.3,0.2l-0.3,0.2l-0.1,0.1L11,66.6c-0.1,0.1-0.1,0.1-0.2,0.1h-0.1h-0.1h-0.1l0.9-0.5l0.2-0.1
				l0.1-0.1l0,0l0.1-0.1l0.2-0.2l0.3-0.1l0.1-0.1l0.1-0.1c0.1,0,0.2-0.1,0.2-0.1c0.1,0,0.1,0,0.1-0.1l0,0h0.1l0,0l0,0l0.2-0.1
				l0.4-0.2l0.4-0.2c0,0.1-0.1,0.2-0.2,0.2L13.6,65l0.4,0.4l-0.3,0.2l-0.2,0.1l-0.2,0.1l-0.6,0.4l-0.3,0.2l0.8-0.4l0,0l0.1-0.1l0,0
				l1.1-0.6l0,0l0,0l0.1-0.1l0,0h0.1l0.1-0.1h0.1H15l0.5-0.2l0.2-0.1l0,0h0.1l0,0h0.1l0.4-0.2c-0.1,0.2-0.3,0.4-0.5,0.5l-0.2,0.1
				l-0.2,0.1L15,65.5l-0.3,0.2L14.5,66l-0.2,0.1h-0.1l0.2-0.1l0,0l0,0l0.2-0.1l0.2-0.1h0.1H15h0.1l0.4-0.2l0,0h0.1l0,0l0.5-0.2
				l0.3-0.1l0.3-0.1l0,0h0.1l0,0l0.4-0.2l0.7-0.3l0,0l0.1-0.1l0,0v0.1l-0.1,0.1c-0.1,0.1-0.2,0.2-0.3,0.3c-0.2,0.2-0.5,0.3-0.7,0.4
				l-0.4,0.2l-0.3,0.2L15.9,66l0.5-0.2l0.1-0.1h0.1l0,0l0.2-0.1l0.6-0.2l0.3-0.1l0,0h0.1l0,0l0.2-0.1l0.5-0.2l0.3-0.1l0.1-0.1l0,0
				H19l0,0l0,0c0.2-0.1,0.3-0.2,0.4-0.2l0.4-0.2c-0.1,0.2-0.3,0.4-0.5,0.5L19,65.2v-0.5l-0.2,0.1L18.4,65c-0.1,0.1-0.2,0.1-0.3,0.1
				l-0.3,0.1l0.2-0.1l0.3-0.1l0.5-0.2l0,0h0.1l0,0l0.1-0.1l0.1-0.1l0.3-0.1l0.3-0.1l0.3-0.1l0,0l0,0l0,0l0.4-0.2l0.5-0.3l0.2-0.1
				l0,0h0.1l0,0l0.1-0.1l0.4-0.2c-0.1,0.2-0.2,0.4-0.4,0.5L21,64.3l0,0l0,0l-0.3,0.2l-0.2,0.1l-0.2,0.1L20,64.9L19.8,65l0,0l0,0l0,0
				l0,0l0.2-0.1l0.2-0.1l0.3-0.1l0.1-0.1l0.1-0.1l0.1-0.1l0,0h0.1l0,0l0.3-0.2l0.3-0.1l0.3-0.2l0.3-0.2l0,0h0.1l0,0l0.6-0.4l0.1-0.1
				l0.1-0.1l0.2-0.1l0.3-0.2c-0.1,0.2-0.2,0.4-0.4,0.6c-0.1,0.1-0.2,0.2-0.3,0.3L22.5,64c-0.2,0.1-0.4,0.3-0.6,0.4l-0.1,0.1l0,0l0,0
				l-0.2,0.1l0.1-0.1l0,0l0,0l0,0l0.3-0.1c0.2-0.1,0.3-0.2,0.5-0.3l0.4-0.2l0,0l0,0l0,0l0.1-0.1l0.5-0.3l0.2-0.2l0.2-0.2l0.5-0.3
				l0.7-0.5c-0.1,0.2-0.2,0.4-0.4,0.6l0.1,0.1l-0.1,0.1l-0.1,0.1l-0.3,0.3L24,63.7l-0.1,0.1l0,0l0,0l0,0l-0.1,0.1l-0.3,0.2l0.3-0.2
				l0,0l0,0l0,0l0.1-0.1l0.2-0.1l0.2-0.2l0.2-0.2l0.1-0.1l0.1-0.1l0.2-0.1l0,0l0,0l0,0l0.3-0.2c0.2-0.1,0.3-0.2,0.5-0.4l0.4-0.3
				l0.2-0.2l0,0h0.1l0,0l0.4-0.4c-0.1,0.2-0.2,0.4-0.3,0.6l-0.1,0.2l-0.1,0.2L26,62.8l-0.3,0.3L25.6,63l-0.1,0.1l-0.3,0.2l0.5-0.3
				l0.5-0.3l0.2-0.2l0.1-0.1l0.1-0.1l0.5-0.4l0.2-0.2l0,0l0,0l0,0l0.2-0.2l0.4-0.4l0.2-0.2l0.2-0.2l0.3-0.3
				c-0.2,0.5-0.5,0.9-0.9,1.3L27.4,62l-0.3,0.2l-0.2,0.2l0.4-0.3c0.2-0.1,0.3-0.2,0.5-0.4l0.2-0.2l0,0l0.2-0.2l0.5-0.4L29,61
				l0.2-0.2c0.1-0.1,0.3-0.3,0.4-0.4l0.2-0.2l0,0l0,0l0.1-0.1l0,0L30,60l0.3-0.3c0,0.2-0.1,0.5-0.3,0.7c-0.1,0.1-0.2,0.2-0.2,0.3
				c-0.1,0.1-0.2,0.2-0.3,0.3c-0.1,0.1-0.2,0.2-0.3,0.3L29,61.5l-0.2,0.2c0.1-0.1,0.3-0.2,0.4-0.3l0.1-0.1l0.1-0.1l0.2-0.2l0.5-0.4
				l0.4-0.4l0.2-0.2l0.1-0.1l0,0l0,0l0,0l0.1-0.1l0.4-0.4l0.2-0.2l0.3-0.3l0.3-0.3c0,0.1,0,0.2-0.1,0.3c0,0,0,0.1-0.1,0.2l-0.1,0.2
				c-0.2,0.2-0.3,0.5-0.5,0.7L31,60.2l-0.1,0.2l-0.2,0.2l-0.2,0.2c0.5-0.4,0.9-0.8,1.3-1.2l0,0l0,0l0,0l0.3-0.4
				c0.1-0.2,0.3-0.3,0.4-0.4l0.2-0.2c0.1-0.1,0.1-0.1,0.2-0.2l0.3-0.4l0.1-0.2l0.1-0.2c0,0.1,0,0.2-0.1,0.3c0,0.1-0.1,0.2-0.2,0.3
				c-0.1,0.3-0.3,0.5-0.5,0.7c-0.2,0.3-0.5,0.5-0.7,0.8l0.7-0.7l0,0l0.1-0.1l0.4-0.4l0.2-0.2l0.2-0.2l0.4-0.5l0.2-0.2l0.1-0.1
				l0.1-0.1l0.6-0.7c0,0.1,0,0.2,0,0.3v0.1l-0.1,0.3c-0.1,0.1-0.1,0.2-0.2,0.4l-0.1,0.2c0,0.1-0.1,0.1-0.1,0.2
				c-0.2,0.2-0.3,0.5-0.5,0.6l-0.2,0.2c0,0,0,0.1-0.1,0.1l0.2-0.2l0,0l0,0l0,0l0,0l0.1-0.1c0.1-0.1,0.3-0.3,0.4-0.4l0.2-0.2l0.2-0.2
				l0.4-0.5c0.1-0.2,0.3-0.3,0.4-0.5l0.3-0.4l0.2-0.2l0.1-0.2l0.2-0.3v0.1c0,0,0,0,0,0.1c0,0.2-0.1,0.3-0.2,0.5v0.1v0.1L36,56.8
				L35.9,57l-0.2,0.3l-0.2,0.3l-0.1,0.2l0,0l-0.1,0.1l0,0l0,0l0,0l0.3-0.3c0.1-0.1,0.3-0.3,0.4-0.4l0.4-0.5l0.4-0.5
				c0.1-0.2,0.3-0.3,0.4-0.5c0.1-0.2,0.2-0.3,0.3-0.5l0.3-0.4l0.1-0.2l0.1-0.1l0,0l0,0v0.2v0.2c0,0.1-0.1,0.3-0.1,0.4
				c-0.1,0.3-0.2,0.5-0.4,0.8c-0.2,0.2-0.3,0.5-0.4,0.6L37,56.8l0,0l-0.1,0.1l0,0l0,0l0,0l0.1-0.1l0,0l0.3-0.3l0.1-0.3l0.2-0.2
				l0.4-0.5V55l0.2-0.2c0.2-0.3,0.5-0.6,0.7-1s0.3-0.5,0.5-0.8v0.2c0,0.2-0.1,0.3-0.1,0.5c0,0.1-0.1,0.3-0.2,0.4
				c-0.1,0.1-0.1,0.3-0.2,0.4l-0.1,0.2l-0.1,0.2l0,0L38.5,55c0,0,0,0.1-0.1,0.1l-0.1,0.2v0.1l0.2-0.2l0,0l0,0l0.1-0.1l0,0l0.1-0.1
				l0.3-0.5c0.2-0.3,0.5-0.7,0.7-1c0.1-0.1,0.1-0.2,0.2-0.2l0.1-0.1V53l0.3-0.5l0.3-0.4l0.1-0.2l0.1-0.2c0,0.2,0,0.5-0.1,0.7
				c0,0.1-0.1,0.3-0.2,0.4c0,0.1-0.1,0.2-0.1,0.2c0,0.1-0.1,0.1-0.1,0.2l-0.1,0.2l-0.1,0.2L40,53.9l-0.2,0.3
				c0.5-0.6,0.9-1.2,1.3-1.9c0.1-0.2,0.2-0.3,0.3-0.5l0.2-0.2l0.1-0.2l0.4-0.7l0,0l0.1-0.1c0,0.2,0,0.5-0.1,0.7v0.1l-0.2,0.2
				c0,0.1-0.1,0.1-0.1,0.2l-0.1,0.1L41.6,52l0.2-0.2l0.2-0.2l0,0c0,0.1-0.1,0.3-0.2,0.4c0,0,0,0,0,0.1c-0.3,0.3-0.5,0.6-0.7,0.9
				l0.1-0.2l0.2-0.2l0.1-0.1l0.1-0.1h0.1c-0.1,0.1-0.1,0.2-0.2,0.3c-0.1,0.2-0.2,0.3-0.2,0.3l0.1-0.1l0.1-0.1l0.2-0.2l0.2-0.3
				c0.1-0.1,0.2-0.1,0.2-0.2c0.1-0.1,0.3-0.2,0.5-0.3l-0.1,0.1L42.4,52l-0.3,0.3l-0.3,0.3l-0.1,0.1l-0.1,0.1L41.5,53
				c-0.1,0.2-0.2,0.3-0.4,0.5l0,0L41,53.6l0,0v0.1L40.8,54h-0.1l-0.1,0.1l0,0l0.1-0.1c0.1-0.1,0.2-0.3,0.3-0.4l0.2-0.2l0.2-0.2
				c0.1-0.1,0.3-0.2,0.5-0.3c-0.2,0.2-0.3,0.3-0.4,0.5S41.2,53.8,41,54l-0.1,0.2l-0.1,0.2l-0.2,0.2l0,0v0.1l0,0l0,0l-0.1,0.1
				L40.4,55l-0.2,0.3l0.1-0.2c0.1-0.1,0.2-0.2,0.3-0.4s0.3-0.3,0.4-0.4c0.1-0.1,0.1-0.1,0.2-0.2c0.1,0,0.1-0.1,0.2-0.1l0,0l-0.1,0.1
				l-0.2,0.3l-0.2,0.3L40.7,55l-0.2,0.3l-0.1,0.2l0,0v0.1l0,0L40.2,56c0,0.1-0.1,0.2-0.1,0.3l0.1-0.2L40,56l0.2-0.2l0.2-0.2l0.1-0.1
				l0,0l0,0c0.1-0.1,0.2-0.2,0.4-0.3l-0.2,0.2c0,0,0,0.1-0.1,0.1l-0.1,0.1c-0.1,0.1-0.1,0.2-0.2,0.3s-0.1,0.2-0.2,0.3L40,56.6v0.1
				l0,0v0.1l0,0l0,0c0,0,0,0.1-0.1,0.2s-0.1,0.2-0.1,0.3c0,0,0,0.1-0.1,0.2v0.1l0,0v-0.1l0.2-0.4L40,57l0.1-0.1
				c0.1-0.1,0.1-0.1,0.2-0.2c0.1-0.1,0.2-0.2,0.3-0.3l-0.3,0.5c0,0,0,0,0,0.1v0.1c0,0.1,0,0.1-0.1,0.2c0,0.1-0.1,0.2-0.2,0.3
				l-0.1,0.1l0,0l0,0l-0.1,0.2c0,0.1-0.1,0.2-0.1,0.3c-0.1,0.2-0.2,0.4-0.2,0.6c0.1-0.2,0.2-0.4,0.3-0.6c0.1-0.2,0.2-0.3,0.3-0.4
				l0.2-0.2c0,0,0.1-0.1,0.2-0.1l-0.1,0.1l-0.1,0.1c0,0.1-0.1,0.2-0.1,0.3L40,57.9l-0.1,0.2l0,0l0,0v0.1l0,0l-0.1,0.2
				c-0.2,0.4-0.3,0.8-0.4,1.2l0,0l0,0v-0.2c0-0.1,0-0.1,0.1-0.2v-0.1V59c0.1-0.1,0.1-0.3,0.2-0.4l0.1-0.1l0.1-0.1
				c0,0,0.1-0.1,0.2-0.1c0,0.1-0.1,0.1-0.1,0.2l-0.1,0.1l0,0l0,0v0.1l0,0l0,0c0,0.1-0.1,0.2-0.1,0.3l-0.1,0.2l-0.1,0.2
				c0,0.1-0.1,0.2-0.1,0.3s-0.1,0.2-0.1,0.3l0,0l0,0v0.1c0,0,0,0,0,0.1v0.1l-0.1,0.3v-0.2c0,0,0-0.1,0-0.2c0-0.1,0-0.1,0.1-0.2
				c0-0.1,0.1-0.1,0.1-0.2c0.1-0.2,0.2-0.3,0.3-0.4l0,0l0,0l-0.1,0.2v0.1v0.1l-0.1,0.3c0,0.1,0,0.1,0,0.2c0,0,0,0.1,0,0.2v0.1l0,0
				l0,0l0,0c0,0.1,0,0.1,0,0.2s0,0.1,0,0.2v0.2c0,0.1-0.1,0.2-0.1,0.3s0,0.1,0,0.2l0,0v0.1v-0.1l0,0v-0.1c0-0.1,0-0.1,0-0.2
				c0-0.1,0-0.1,0.1-0.2c0.1-0.3,0.2-0.5,0.4-0.7c0,0.1,0,0.1-0.1,0.2s0,0.1,0,0.1v0.1V61l0,0l0,0l0,0v0.1c0,0.1-0.1,0.2-0.1,0.3
				s0,0.2-0.1,0.3V62c0,0,0,0,0,0.1v0.1l0,0l0,0l0,0v0.1c0,0.1,0,0.2,0,0.3s0,0.2,0,0.3c0-0.1,0-0.1,0-0.2v-0.1v-0.1l0.1-0.2
				l0.1-0.2V62v-0.1c0.1-0.1,0.1-0.2,0.2-0.3c0,0.1-0.1,0.3-0.1,0.5c0,0.1-0.1,0.2-0.1,0.3s0,0.2,0,0.3l0,0l0,0l0,0l0,0L40,63
				c0,0,0,0,0,0.1v0.1v0.2c0,0.1,0,0.1,0,0.2l0,0l0,0v0.1c0,0.1,0,0.2,0,0.3v-0.2c0,0,0-0.1,0-0.2s0-0.2,0-0.2l0.1-0.2l0,0
				c0,0,0,0,0-0.1V63c0-0.1,0.1-0.2,0.2-0.3c0,0.1-0.1,0.3-0.1,0.5l0,0l0,0l-0.1,0.3v0.2v0.2v0.2l0,0l0,0l0,0v0.1c0,0,0,0.2,0,0.3
				v0.3l0,0l0,0l0,0c0,0.1,0,0.2,0,0.3s0-0.1,0-0.2s0-0.3,0.1-0.4l0.1-0.2V64v-0.1c0-0.1,0.1-0.2,0.2-0.3c0,0.1,0,0.2,0,0.2V64v0.2
				c0,0.1,0,0.2,0,0.2l0,0l0,0l0,0l-0.1,0.4V65c0,0.1,0,0.1,0,0.2s0,0.2,0,0.4s0,0.1,0,0.1V66c0,0.1,0,0.1,0,0.2v0.1l0,0l0,0l0,0
				c0,0.1,0,0.1,0,0.2v-0.1v-0.1l0,0l0,0v-0.2V66v-0.1c0-0.2,0.1-0.3,0.1-0.5c0-0.1,0.1-0.2,0.2-0.3c0,0.1,0,0.2,0,0.2v0.1
				c0,0,0,0.1,0,0.2s0,0.2,0,0.3s0,0.2,0,0.3v0.2v0.2v0.2V67v0.3c0,0.1,0,0.1,0,0.2v0.1l0,0l0,0l0,0l0,0c0,0,0-0.1,0-0.2
				s0-0.1,0-0.2s0-0.2,0-0.2v-0.1v-0.1c0-0.1,0-0.2,0.1-0.2c0-0.1,0.1-0.2,0.2-0.3c0,0.1,0,0.2,0,0.2c0,0.1,0,0.2,0,0.3L40,67
				c0,0.1,0,0.1,0,0.2l-0.1,0.3l0,0c0,0.1,0,0.2,0,0.4l-0.1,0.3v0.2v0.1v0.1l-0.1,0.3c0,0,0-0.1,0-0.2s0-0.1,0-0.2s0-0.1,0-0.2
				s0.1-0.3,0.1-0.5c0-0.1,0.1-0.2,0.2-0.3c0,0.2-0.1,0.4-0.1,0.5s0,0.2-0.1,0.3v0.2c0,0.1,0,0.1,0,0.2V69l-0.1,0.3v0.1v0.1v0.2l0,0
				l0,0v0.1l0,0v0.1V70l0,0v-0.1c0-0.1,0-0.1,0.1-0.2c0-0.1,0-0.1,0.1-0.2c0-0.1,0-0.2,0.1-0.2v-0.1V69l0,0c0-0.1,0.1-0.2,0.2-0.3
				c0,0.1,0,0.2-0.1,0.2L40,69c0,0,0,0.1,0,0.2s-0.1,0.2-0.1,0.3v0.1v0.1l0,0l-0.1,0.2c-0.1,0.4-0.3,0.8-0.5,1.2l0.1-0.2
				c0-0.1,0.1-0.2,0.2-0.4v-0.1v-0.1l0.1-0.2V70v-0.1l0.1-0.1V70l-0.1,0.3l-0.1,0.2l0,0l-0.1,0.2l-0.1,0.2V71v0.1V71l-0.1,0.2
				l-0.1,0.2c0,0-0.1,0.1-0.1,0.2L39,72.1l0,0l0,0l0,0c0,0,0-0.1,0.1-0.1v-0.1v-0.1l0.1-0.2l0.1-0.2l0.1-0.2l0.1-0.1
				c-0.1,0.3-0.2,0.7-0.3,1v0.1v0.1l0,0l0,0c0,0.1,0,0.1,0,0.2v0.1c0,0,0,0.1,0,0.2l0,0v0.1l0,0l0,0l0,0l0,0l0.1-0.2v-0.1l0.1-0.1
				v-0.1v-0.1l0,0v-0.1l0.1-0.1c0.1-0.3,0.3-0.6,0.4-0.9c0,0.1,0,0.1,0,0.2s0,0.1,0,0.2l-0.1,0.2c0,0.1,0,0.1-0.1,0.2v0.1v0.1
				c0,0.1,0,0.1,0,0.2v0.1l0,0l0,0l0.2-0.6l0.1-0.2v-0.1l0,0v-0.1l0.1-0.2l0.1-0.2V71v-0.1l0.1-0.2v-0.1l0,0v-0.1l0,0l0,0v-0.1
				c0-0.1,0.1-0.2,0.1-0.3l0.1-0.2c0,0.1,0,0.1,0,0.2v0.1v0.1c0,0.1,0,0.2-0.1,0.2v0.1v0.1c0,0.2-0.1,0.3-0.1,0.4l-0.1,0.2
				c0.1-0.2,0.1-0.3,0.2-0.5l0,0v-0.1l0,0l0.3-0.7l0,0l0,0l0,0l0,0l0,0v-0.1l0,0l0,0c0-0.1,0.1-0.2,0.1-0.3l0.1-0.2l0,0v-0.1l0,0
				l0,0l0.1-0.2c0,0.1,0,0.3-0.1,0.4v0.1v0.1c0,0.1,0,0.2-0.1,0.2c0,0.1-0.1,0.2-0.1,0.2l-0.1,0.2v0.1l0,0l0.1-0.1l0,0l0,0v-0.1
				c0-0.1,0-0.1,0.1-0.2l0,0l0,0v-0.1c0-0.1,0.1-0.2,0.1-0.3l0,0v-0.1l0.2-0.3c0-0.1,0-0.1,0.1-0.2c0-0.1,0-0.1,0.1-0.2l0,0V69l0,0
				c0-0.1,0.1-0.2,0.1-0.2c0.1-0.1,0.1-0.3,0.2-0.4l0,0v-0.1l0,0c0,0.1,0,0.3,0,0.4c0,0.2-0.1,0.3-0.2,0.5h0.1l-0.1,0.2l-0.1,0.2
				c0-0.1,0.1-0.2,0.1-0.3v-0.1c0,0,0,0,0-0.1l0,0l0,0L41,69l0.2-0.3c0-0.1,0.1-0.1,0.1-0.2l0,0l0,0l0,0v-0.1l0.3-0.4l0.1-0.2v-0.1
				l0,0v-0.1l0,0l0,0c0-0.1,0.1-0.2,0.1-0.3s0-0.2,0.1-0.2c0,0.1,0,0.3,0,0.4s0,0.2-0.1,0.2v0.1v0.1l-0.1,0.2l-0.1,0.2
				c0,0.1-0.1,0.1-0.1,0.2l0.1-0.1c0,0,0-0.1,0.1-0.1s0.1-0.2,0.1-0.3l0,0l0,0l0,0c0,0,0,0,0-0.1V68c0-0.1,0.1-0.1,0.1-0.2
				c0,0,134612.8,52348.7,0.1-0.4l0,0v-0.1l0,0c0-0.1,0.1-0.2,0.1-0.3s0.1-0.2,0.1-0.3v-0.2l0,0v-0.1l0,0v-0.1c0,0,0-0.2,0-0.3
				c0,0.2,0,0.3,0,0.5c0,0.1,0,0.2,0,0.2l0,0l-0.1,0.2V67v0.1c0,0.1,0,0.1-0.1,0.2v0.1l0,0l0,0v-0.1l0.1-0.2l0.1-0.2v-0.1v-0.1v-0.1
				l0,0l0,0l0,0c0-0.1,0-0.2,0.1-0.2c0-0.1,0-0.1,0-0.2s0-0.1,0-0.2s0-0.2,0-0.2l0,0l0,0l0,0c0-0.2,0.1-0.3,0.1-0.5v-0.1v-0.1
				c0,0,0-0.1,0-0.2c0,0,0-0.1,0-0.2l0,0V65l0,0l0,0c0,0.2,0.1,0.3,0.1,0.5v0.2c0,0,0,0.1,0,0.2s0,0.2,0,0.3c0,0.2,0,0.3-0.1,0.5
				v0.1l0,0v0.1v-0.1l0,0l0,0l0,0l0.1-0.2l0.1-0.4c0-0.1,0-0.2,0-0.3l0,0l0,0l0,0v-0.1l0.1-0.4v-0.2c0-0.1,0-0.1,0-0.2v-0.1l0,0l0,0
				l0,0v-0.2c0-0.2,0-0.4,0-0.6c0.1,0.1,0.1,0.3,0.1,0.5v0.1v0.2c0,0.1,0,0.2,0,0.3v0.3v0.1l0,0l0,0l0,0v0.1c0,0.1,0,0.1,0,0.2
				c0-0.1,0-0.2,0-0.3l0,0l0,0l0,0c0,0,0,0,0-0.1s0-0.1,0-0.2v-0.2v-0.2v-0.1v-0.1c0,0,0-0.1,0-0.2l0,0l0,0l0,0v-0.2v-0.4
				c0-0.1,0-0.3,0-0.4s0-0.1,0-0.2l0,0v-0.1l0,0c0-0.1,0-0.3,0-0.4c0.1,0.1,0.1,0.3,0.1,0.4v0.1c0,0,0,0.1,0,0.2v0.3
				c0,0.1,0,0.2,0,0.3s0,0.1,0,0.1v0.1c0,0.1,0,0.1,0,0.2c0-0.1,0-0.2,0.1-0.4c0,0,0-0.1,0-0.2l0,0v-0.2c0-0.1,0-0.1,0-0.2v-0.1
				v-0.1v-0.4c0-0.1,0-0.1,0-0.2l0,0l0,0l0,0c0-0.1,0-0.1,0-0.2c0-0.1,0-0.3,0-0.4v-0.3c0-0.1,0-0.2,0-0.3c0.2,0.3,0.2,0.7,0.2,1
				v0.3c0,0.1,0,0.2,0,0.2c0,0.1,0,0.2,0,0.2s0-0.2,0-0.4s0-0.3,0-0.4s0-0.1,0-0.2l0,0c0-0.1,0-0.1,0-0.2c0-0.1,0-0.3,0-0.4V61
				c0-0.1,0-0.3,0-0.4c0-0.1,0-0.1,0-0.2l0,0l0,0v-0.1l0,0v-0.1c0-0.1,0-0.2,0-0.3c0.1,0.1,0.1,0.3,0.2,0.4c0,0.1,0,0.2,0,0.3
				s0,0.2,0,0.3s0,0.2,0,0.3v0.2c0,0.1,0,0.2,0,0.2v-0.4v-0.1V61c0-0.1,0-0.1,0-0.2c0-0.1,0-0.3,0-0.4s0-0.3,0-0.4
				c0-0.1,0-0.1,0-0.2v-0.1l0,0l0,0l0,0v-0.1v-0.4c0-0.1,0-0.1,0-0.2s0-0.1,0-0.2s0-0.2,0-0.3c0,0,0.1,0.1,0.1,0.2v0.1v0.1
				c0.1,0.2,0.1,0.4,0.1,0.6v0.1v0.1c0,0.1,0,0.2,0,0.2v0.2c0-0.4,0-0.8,0-1.2l0,0l0,0l0,0c0-0.1,0-0.2,0-0.3v-0.4
				c0-0.1,0-0.1,0-0.2c0-0.1,0-0.1,0-0.2c0-0.1,0-0.2,0-0.3v-0.1v-0.1c0.1,0,0.1,0.1,0.1,0.1c0,0.1,0.1,0.1,0.1,0.2
				c0.1,0.2,0.1,0.3,0.1,0.5s0.1,0.5,0.1,0.7c0-0.2,0-0.4,0-0.6l0,0l0,0l0,0v-0.1c0-0.1,0-0.3,0-0.4c0-0.1,0-0.1,0-0.2
				c0-0.1,0-0.1,0-0.2c0-0.1,0-0.3,0-0.4V57v-0.1c0,0,0,0,0-0.1c0-0.2-0.1-0.4-0.1-0.6l0.1,0.1v0.1c0,0,0.1,0.1,0.1,0.2
				c0,0.1,0.1,0.2,0.1,0.2v0.1V57c0,0.2,0.1,0.3,0.1,0.5c0,0.1,0,0.1,0,0.2v0.1c0-0.1,0-0.1,0-0.2l0,0l0,0l0,0l0,0v-0.1v-0.4
				c0-0.1,0-0.1,0-0.2v-0.2c0-0.1,0-0.3-0.1-0.4s0-0.2-0.1-0.4s0-0.2-0.1-0.3c0-0.1,0-0.1,0-0.2v-0.1c0,0,0-0.2-0.1-0.2l0,0l0,0
				c0.1,0.1,0.1,0.2,0.2,0.2l0,0v0.1v0.1c0,0.1,0.1,0.2,0.1,0.2c0,0.1,0.1,0.2,0.1,0.2c0,0.1,0,0.1,0,0.2v0.1l0,0l0,0l0,0l0,0l0,0
				l0,0l0,0c0-0.1,0-0.2,0-0.3s0-0.2,0-0.4l-0.1-0.4c0-0.1,0-0.2-0.1-0.4l0.7-0.3c0-0.1-0.1-0.2-0.1-0.3l0.1-0.1v-0.1v-0.1l0,0l0,0
				h0.1l0.1,0.1c0,0,0,0.1,0.1,0.1c0.1,0.1,0.2,0.3,0.2,0.5c0.1,0.2,0.1,0.3,0.1,0.4V55l0,0c0,0.1,0,0.1,0,0.1V55l0,0v-0.3v-0.2
				c0,0,0-0.1,0-0.2s0-0.2-0.1-0.4s0-0.1,0-0.2s0-0.1,0-0.2c-0.1-0.2-0.2-0.4-0.2-0.6c-0.1-0.2-0.1-0.3-0.2-0.5l0,0l0,0l0.1,0.1
				c0.1,0.1,0.1,0.1,0.2,0.2c0.1,0.1,0.1,0.1,0.1,0.2l0.1,0.2l0.1,0.2l0,0l0.1,0.2v0.1l0,0v-0.1l0,0v-0.1l0,0v-0.1
				c0-0.1,0-0.2-0.1-0.3s-0.2-0.5-0.2-0.7L45,52.4v-0.1v-0.1c0-0.1-0.1-0.2-0.1-0.3s-0.1-0.2-0.1-0.2l-0.1-0.1v-0.1l0,0l0,0
				c0.1,0,0.3,0.1,0.4,0.2l0.2,0.2V52l0.1,0.1v0.1v0.1l0.1,0.2c0,0.1,0.1,0.2,0.1,0.2v-0.1c0.1,0.4,0.3,0.8,0.4,1.1
				c0.7,1.6,1.5,3.2,2.5,4.7c0.5,0.7,1,1.5,1.6,2.1c0.3,0.3,0.6,0.7,0.9,1l0.2,0.2l0.1,0.1l0.1,0.1l0.5,0.5c0.6,0.6,1.3,1.2,2.1,1.7
				l0.3,0.2l0.1,0.1l0.1,0.1L55,65l0.1,0.1l0.1,0.1h0.1l0.3,0.2l0.6,0.4h0.1c0.4,0.2,0.9,0.1,1.1-0.3l0,0v-0.1l0,0
				c0.1-0.4,0-0.8-0.4-1l0,0L56.4,64l-0.3-0.2H56l0,0l-0.1-0.1l-0.5-0.3l-0.1-0.1L55,63.2L54.8,63c-0.7-0.5-1.4-1-2.1-1.5l-0.5-0.4
				L52.1,61L52,60.9l-0.2-0.2c-0.3-0.3-0.6-0.6-0.9-0.9c-0.6-0.6-1.2-1.3-1.7-1.9c-1.1-1.4-2-2.8-2.8-4.4L46,52.8l-0.2-0.5
				c-0.2-0.4-0.3-0.8-0.5-1.2V51c0.1,0.1,0.1,0.2,0.2,0.3c0,0.1,0.1,0.1,0.1,0.2v-0.1l0,0v0.1v0.1l-0.1-0.2
				c-0.1-0.1-0.1-0.3-0.1-0.4c0-0.1,0-0.2,0-0.2c0-0.1,0-0.2,0-0.3s0-0.1,0-0.2l0,0l0.1,0.2c0-0.1-0.1-0.2-0.1-0.2
				c0-0.1,0-0.2,0.1-0.2c0,0.2,0.1,0.3,0.1,0.5c0,0-17150.2,5717,0.1,0.3l0.1,0.3l0.2,0.3l0,0c0,0,0,0.1,0.1,0.1l0,0
				c0.1,0.2,0.3,0.5,0.4,0.7c0-0.1-0.1-0.1-0.1-0.2c0-0.1-0.1-0.1-0.1-0.2v-0.1v-0.1c-0.1-0.2-0.1-0.3-0.1-0.5
				C46,51,46,50.9,46,50.7v0.1v0.1l0.1,0.3c0,0.1,0.1,0.2,0.1,0.3v0.1v0.1c0,0,0.1,0.1,0.1,0.2c0.1,0.1,0.2,0.3,0.3,0.4l0,0l0.1,0.1
				l0,0l0,0l0.2,0.2l0.1,0.1l0.1,0.1l0,0L47,52.6c-0.1-0.1-0.2-0.2-0.2-0.3s-0.1-0.1-0.1-0.2c0-0.1-0.1-0.2-0.1-0.2
				c0-0.1,0-0.3,0-0.4c0.1,0.1,0.1,0.3,0.2,0.5s0.2,0.3,0.4,0.5l0.1,0.1l0.1,0.1l0.2,0.2l0,0l0.1,0.1l0,0l0,0l0.1,0.1l0.1,0.1
				l0.2,0.2L48,53.1c-0.1-0.1-0.2-0.2-0.3-0.3s-0.2-0.3-0.2-0.4c0-0.1,0-0.1,0-0.2c0-0.1,0-0.1,0-0.2l0.1,0.1l0.1,0.1l0.2,0.2
				l0.2,0.2l0.2,0.2l0.2,0.2l0.2,0.2l0,0l0.1,0.1l0,0l0.3,0.2l0.3,0.2L49,53.5l-0.2-0.1l-0.2-0.2L48.4,53h0.1l0,0l0,0
				c-0.1-0.1-0.1-0.3-0.1-0.4l0.2,0.2l0.1,0.1l0.1,0.1l0.2,0.2l0.3,0.2l0.3,0.2h0.1l0,0h0.1l0,0l0.2,0.1l0.3,0.2l0.1,0.1l0.1,0.1
				l0,0L50.4,54c-0.1-0.1-0.2-0.2-0.3-0.2l0.1-0.1l-0.1-0.1l-0.2-0.2c-0.1-0.1-0.1-0.2-0.1-0.4l0.4,0.3h0.1h0.1l0.1,0.1l0.3,0.2
				l0.1,0.1l0,0l0,0l0,0l0.1,0.1l0.3,0.2l0.6,0.3c-0.2,0-0.4-0.1-0.5-0.2c-0.1-0.1-0.3-0.2-0.4-0.3c0-0.1-0.1-0.1-0.1-0.2
				c0-0.1,0-0.1,0-0.2l0.1,0.1l0.1,0.1l0.2,0.2l0.1,0.1l0.1,0.1l0,0l0,0h0.1l0,0l0.2,0.1c0.4,0.2,0.8,0.4,1.3,0.5l0,0l-0.2-0.1
				l-0.2-0.1h-0.1l-0.1-0.1c-0.1-0.1-0.3-0.2-0.4-0.3L52,53.9l-0.1-0.1c0-0.1-0.1-0.1-0.1-0.2l0.2,0.1l0.1,0.1l0,0l0,0h0.1l0,0l0,0
				l0.3,0.2l0.2,0.1l0.2,0.1l0.3,0.1l0.3,0.1h0.1h0.1h0.1h0.1l0.3,0.1L54,54.4l-0.2-0.1l-0.2-0.1c-0.1,0-0.2-0.1-0.2-0.1
				c-0.1,0-0.1-0.1-0.2-0.1c-0.1-0.1-0.1-0.1-0.2-0.2l0,0l0,0l0.2,0.1l0.1,0.1l0.1,0.1l0.3,0.1l0.2,0.1l0.2,0.1h0.1l0,0l0.2,0.1
				l0.2,0.1h0.2l0.4,0.1h0.2l0,0h0.1h-0.1l0,0h-0.1L55,54.4l-0.2-0.1c-0.3-0.1-0.6-0.3-0.7-0.5l0.2,0.1h0.1l0.1,0.1h0.2l0,0l0,0l0,0
				h0.1l0.3,0.1l0.4,0.1h0.1h0.1h0.1l0,0h0.1l0.4,0.1l0.3,0.1h-0.2h-0.1h-0.1L56,54.3l-0.3-0.1l-0.1-0.1L55.4,54
				c-0.1-0.1-0.2-0.1-0.3-0.3h0.1l0.5,0.2L56,54l0.3,0.1h0.1l0.4,0.1h0.1H57h0.2h0.2l0,0h0.2l0.3,0.1h-0.2h-0.2l-0.2-0.1L56.9,54
				h-0.1h-0.1h-0.1c-0.1-0.1-0.2-0.1-0.3-0.2l0.5,0.2l0,0l0.3,0.1h0.2h0.2h0.2H58h0.1l0.4,0.1l0.3,0.1l0,0h0.3h-0.2L58.5,54
				l-0.3-0.1h-0.1L58,54.4c-0.1-0.1-0.2-0.1-0.3-0.2l0.2,0.1H58h0.1h0.1l0.2,0.1l0,0l0,0l0,0l0.4,0.1H59h0.2h0.1h0.3h0.1h0.1H60h0.1
				l0,0h0.2l0,0h-0.1l0,0H60h-0.1h-0.1c-0.2,0-0.3-0.1-0.5-0.2c-0.1,0-0.3-0.1-0.4-0.2L59,54h0.1h0.2l0.3,0.1h0.1l0,0h0.1l0,0H60
				h0.2h0.2h0.2h0.1h0.1l0.3,0.1h0.2h0.2h-0.2H61l-0.2-0.1h-0.1h-0.1L60.3,54c-0.1,0-0.3-0.1-0.4-0.2l0.2,0.1l0.3,0.1h0.2h0.2
				l0.3,0.1l0,0l0.3,0.1l0.3,0.1h0.2H62h0.1l0.3,0.1h-0.2L62,54.1L61.8,54l-0.5-0.2c-0.1,0-0.3-0.1-0.4-0.2l0.5,0.1l0.3,0.1h0.2h0.2
				l0.3,0.1l0.3,0.1h0.1l0,0l0,0H63l0,0h0.1l0,0h0.1h0.1l0,0h-0.1h-0.3l-0.2-0.1l-0.2-0.1h-0.1l-0.1-0.1l0,0
				c-0.1-0.1-0.3-0.1-0.4-0.2l0.2,0.1h0.1h0.2l0.3,0.1l0,0l0,0h0.1l0.2,0.1c0.4,0.2,0.8,0.3,1.3,0.5v0.8l-0.4-0.2l-0.1-0.1l-0.1-0.1
				l-0.2-0.1l-0.1-0.1l-0.1-0.1L63,54.2l0.2,0.1l0.3,0.1l0.2,0.1l0,0l0.2,0.1l0.2,0.1h0.1h0.1l0.2,0.1l0.2,0.1l0.2,0.1l0.2,0.1
				l0.6,0.3l0,0l0,0h-0.1l-0.2-0.1L65,55.2l-0.1-0.1L64.7,55l-0.2-0.1l-0.2-0.1c-0.1,0-0.1-0.1-0.2-0.1c0.3,0.1,0.6,0.2,0.9,0.2h0.1
				h0.1l0,0l0,0h0.1l0.1,0.1h0.1l0,0h0.1h0.1l0,0l0,0l0,0l0,0l0,0l-0.1-0.1L65.5,55h-0.1l-0.1-0.1l0,0l0,0l-0.1-0.1L65,54.7l-1-0.5
				h0.3h0.2h0.2h0.1h0.1H65l0,0L64.5,54h-0.1h-0.1l0,0h-0.1h-0.1h-0.2h-0.1h-0.1h-0.2h-0.1h-0.1h-0.1h-0.1l-0.2-0.1H63h0.2h0.2h0.1
				h0.1l0.3,0.1H64c-0.1-0.1-0.3-0.1-0.4-0.2l0,0h-0.1l0,0l-0.6-0.2l0,0h-0.1l0,0h-0.1h-0.1h-0.1l-0.3-0.1h-0.1l0,0H62l0,0l0,0l0,0
				c0.1,0,0.2,0,0.3,0h0.1h0.1l0.2,0.1h0.2H63h0.1l0,0H63l0,0h-0.1h-0.1l0,0l0,0h-0.1l-0.2-0.1l0,0h-0.1l0,0l-0.3-0.1l-0.2-0.1
				l-0.2-0.1l0,0h-0.1l0,0l-0.2-0.1L61,52.9l0,0l0,0l0,0c0.1,0,0.2,0,0.3,0s0.3,0.1,0.4,0.1l0.2,0.1h0.2l0.2,0.1L62,53.1l0,0h-0.1
				l0,0L61.8,53l-0.3-0.1l-0.2-0.1l0,0l0,0l0,0h-0.1l-0.3-0.1l-0.1-0.1h-0.1l0,0l0,0l0,0L60.2,52c-0.1,0-0.1,0-0.2,0
				c0.1,0,0.2,0,0.3,0h0.2h0.1h0.1l0.2,0.1l0.2,0.1l0.2,0.1l-0.1-0.1h-0.1L60.7,52l0,0h-0.1h-0.1l-0.2-0.1l-0.2-0.1h-0.2l0,0l0,0
				l0,0l-0.2-0.1l-0.3-0.1h-0.1l0,0h-0.1H59c0.1,0,0.2-0.1,0.3-0.1h0.2l0,0h0.2H60l0,0c0.1,0,0.1,0,0.2,0h0.1l0,0h-0.1l-0.1-0.1H60
				h-0.1h-0.1h-0.1l0,0l-0.2-0.1h-0.2h-0.2h-0.2l0,0l-0.4-0.1h-0.1h-0.1h-0.1h-0.1H58c0.1-0.1,0.2-0.1,0.3-0.1h0.2H59l0.4,0.1l0,0
				l0,0h0.1h-0.1l0,0L59.2,51l-0.3-0.1h-0.2l0,0h-0.1l-0.3-0.1h-0.2H58h-0.1l0,0h-0.2l-0.5-0.1c0.1-0.1,0.2-0.1,0.3-0.1H58h0.2h0.2
				h0.2h-0.2l0,0h-0.1h-0.1H58h-0.1h-0.1h-0.1h-0.1l0,0h-0.2h-0.3h-0.3h-0.2h-0.3c0.1-0.1,0.2-0.1,0.3-0.1h0.8h0.2L57.4,50h-0.1l0,0
				h-0.2H57h-0.2h-0.3h-0.3H56h-0.5c0.2-0.1,0.5-0.2,0.8-0.2h0.4h0.2h-0.2h-0.3h-0.2h-1.5c0.1-0.1,0.2-0.1,0.4-0.2
				c0.1,0,0.1,0,0.2,0h0.2H56h-0.3h-1.2h-0.3H54h-0.1h-0.2l0.2-0.1H54l0,0c0.2,0,0.3-0.1,0.5-0.1H55c-0.3,0-0.6,0-0.9,0h-0.3h-0.3
				h-0.2h-0.2h-0.3h-0.1h-0.1c0.1,0,0.1-0.1,0.2-0.1l0.2-0.1c0.2-0.1,0.3-0.1,0.5-0.1s0.4-0.1,0.6-0.1h-0.6h-0.3H53h-0.2h-0.3h-0.2
				h-0.1h-0.1h-0.4c0,0,0.1-0.1,0.2-0.1l0,0l0.2-0.1l0.2-0.1h0.1h0.1l0.4-0.1h-0.1h-0.3h-0.2h-0.2h-0.3l-0.3,0.1l-0.3,0.1H51h-0.1
				l0,0h-0.1c0.1-0.1,0.2-0.1,0.3-0.2h0.1h0.1h0.1l0.2-0.1h0.9l-0.6-0.1H52h0.1l0,0h-0.3h-0.2l-0.4-0.1H51h0.1h0.1l0,0H51l0,0
				c-0.2-0.1-0.4-0.2-0.6-0.3l0.8,0.1l1.1,0.1H54h0.5h-0.3c-0.2,0-0.4,0-0.7,0S53,48.1,52.7,48c-0.1,0-0.2-0.1-0.3-0.1
				s-0.2-0.1-0.3-0.2h0.2h0.2H53h0.5h1.1H55h0.2h0.5l0.5-0.1h-1h-0.4h-0.2h-0.1h-0.1c-0.2,0-0.4-0.1-0.6-0.3h1.4h0.5h0.6h0.3h0.3
				l0.5-0.1h0.3h0.2h-0.1h-0.2c-0.2,0-0.4,0-0.7,0h-0.2h-0.2h-0.4c-0.2,0-0.4-0.1-0.6-0.2h0.8h0.3h0.3h0.6h0.2h0.1H58l0.6-0.1
				c0.4-0.1,0.7-0.1,1-0.2c-0.3,0-0.7,0.1-1,0.1s-0.5,0-0.8,0c-0.1,0-0.2,0-0.3-0.1c-0.1,0-0.2-0.1-0.3-0.1h0.4L58,46h0.2h0.3h0.2
				h0.4c0.7-0.1,1.4-0.2,2.1-0.4l0,0l-0.3,0.1h-0.3h-0.2h-0.2c-0.3,0-0.5,0-0.8,0h-0.2H59c-0.1,0-0.2-0.1-0.3-0.1h0.4h0.2h0.2
				l0.5-0.1h0.3h0.3l0.6-0.1l0.5-0.1h0.1l0,0H62h0.1h0.1c0.2,0,0.3-0.1,0.5-0.1l-0.3,0.1l-0.3,0.1h-0.4h-0.4H61
				c-0.2,0-0.3,0-0.5-0.1h-0.1h-0.1h0.4H61h0.2l0.5-0.1l0.3-0.1l0.3-0.1h0.2l0,0l0.3-0.1l0.3-0.1l0.3-0.1l0.5-0.2l0.3-0.1l0,0h0.1
				h-0.2l0,0H64l-0.3,0.1l-0.4,0.1c-0.5,0.1-1,0.1-1.4,0l0.4-0.1h0.2l0.2-0.1h0.2l0,0H63l0,0h0.2c0.2,0,0.4-0.1,0.5-0.1l0.5-0.2h0.1
				h0.1h0.1l0,0h0.1l0.5-0.2l0.4-0.2l-0.3,0.1h-0.1h-0.2l-0.4,0.1L64.1,44h-0.2H64c-0.2,0-0.4,0-0.7-0.1h0.1h0.1l0.7-0.2l0.5-0.1
				l0.4-0.1l0,0h0.1l0,0l0,0l0.5-0.2h0.1h0.1l0.2-0.1l0.3-0.1l0,0l0.2-0.1l0.4-0.2l-0.3,0.1L66.4,43L66,43.1l-0.4,0.1h-0.1h-0.1
				h-0.2c-0.2,0-0.4,0-0.7-0.1l0.7-0.2l0,0h0.1l0.5-0.2l0.3-0.1l0.3-0.1l0.3-0.1l0,0h0.1l0,0l0.2-0.1l0.5-0.2
				c0.2-0.1,0.3-0.2,0.5-0.2l0,0l0,0l0,0l0.4-0.2l-0.3,0.1c-0.2,0.1-0.4,0.2-0.7,0.2L67,42.1h-0.2h-0.2c-0.2,0-0.4,0-0.7,0l0.4-0.1
				l0.2-0.1h0.1h0.1l0.3-0.1l0,0h0.1l0,0l0.6-0.2l0.3-0.1l0.2-0.1h0.1l0,0h0.1l0,0l0.4-0.2l0.1-0.1L69,41l0.2-0.1l0.2-0.1l0,0h0.1
				l0,0c0.1,0,0.1-0.1,0.2-0.1h-0.1l-0.2,0.1l-0.3,0.1L68.9,41l-0.2,0.1c-0.2,0.1-0.5,0.2-0.8,0.2c-0.2,0.1-0.4,0.1-0.6,0l0.3-0.1
				H68l0.2-0.1l0.2-0.1l0.5-0.2l0.2-0.1l0,0h0.1l0,0l0.2-0.1l0.2-0.1l0.2-0.1l0.2-0.1l0,0l0,0h0.1l0,0l0.1-0.1l0.5-0.3l0.2-1.2
				l0.1-0.1l0,0h0.1l0,0l0,0l0,0H71l-0.2,0.1l-0.3,0.2l-0.3,0.2L70,39.2v-0.5l-0.4,0.1c-0.2,0-0.4,0-0.6,0l0.3-0.2l0.3-0.1l0,0l0,0
				l0.1-0.1l0.2-0.1l0.2-0.1l0.5-0.3l0,0h0.1l0,0l0.4-0.2l0.5-0.3l0,0h0.1l0,0l0.1-0.1l0.1-0.1l0.1-0.1l0.4-0.2L72.2,37l-0.3,0.1
				l-0.3,0.2c-0.2,0.1-0.5,0.2-0.7,0.3s-0.4,0.1-0.6,0.1l0.7-0.4l0.5-0.3l0.2-0.1l0.2-0.1l0.3-0.2l0,0l0.1-0.1l0,0l0,0l0.5-0.2
				l0.1-0.1l0,0H73l0.2-0.1l0,0l0.1-0.1l0,0h0.1l0.2-0.1h-0.1L73.3,36h-0.1h-0.1H73l-0.3,0.1l-0.4,0.1h-0.2h-0.2c-0.2,0-0.4,0-0.7,0
				l0.3-0.2l0,0l0,0l0.2-0.1l0.2-0.1l0.5-0.2h0.1h0.1h0.1l0,0h0.1l0,0l0.2-0.1l1-0.4l0,0l0.9-0.3l-0.3,0.1l-0.7,0.2h-0.2h-0.2
				l-0.4,0.1h-0.4c-0.1,0-0.2,0-0.3,0l0.4-0.2l0.8-0.2l0.2-0.1l0.2-0.1l0.3-0.1h0.1h0.1l0.3-0.1l0.3-0.1l0.3-0.1l0.3-0.1l1-0.3h-0.1
				h-0.1h-0.2h-0.1H76h-0.3h-0.3h-0.3h-0.3c0.4-0.3,0.8-0.7,1.3-1l0.2-0.1l0.2-0.1l0,0h0.1l0.2-0.1l0.2-0.1l0.2-0.1l0,0l0.2-0.1l0,0
				h0.1l0,0l0,0l0,0L77.2,32.5z M45,51.5l-0.2-0.3c0,0,0-0.1-0.1-0.1L44.6,51c-0.1-0.1-0.2-0.2-0.2-0.3l0,0v-0.1
				c0.1,0,0.1,0,0.2,0.1c0,0.1,0,0.1,0.1,0.2c0,0,0-0.1,0-0.2l0,0l0.1,0.1l0.1,0.2l0.1,0.3c0,0.2,0.1,0.4,0.2,0.6
				C45.2,51.6,45.1,51.5,45,51.5L45,51.5z M44.8,49.2L44.8,49.2v0.2l-0.1-0.1C44.7,49.3,44.7,49.3,44.8,49.2
				C44.7,49.2,44.8,49.1,44.8,49.2C44.8,49.1,44.8,49.1,44.8,49.2L44.8,49.2z M43.5,47.9L43.5,47.9L43.5,47.9L43.5,47.9L43.5,47.9
				L43.5,47.9L43.5,47.9z M48.9,48.7L48.9,48.7l-0.3,0.1L48.9,48.7L48.9,48.7L48.9,48.7z M47.6,48.8L47.6,48.8L47.6,48.8
				c0.1-0.1,0.2-0.1,0.3-0.2l0,0h0.2h0.1h-0.1l-0.3,0.1L47.6,48.8z M47.2,48.6L47.2,48.6c-0.1,0-0.2-0.1-0.3-0.2l0,0l0.4,0.1
				L47.2,48.6z M46.2,48.9L46.2,48.9l0.2-0.1L46.2,48.9L46.2,48.9L46.2,48.9z M45.8,48.7h-0.2h-0.1l0,0l-0.1-0.1h0.1l0,0L45.8,48.7z
				 M44.9,50C45,50,45,50,44.9,50c0,0.1,0,0.1,0,0.2c0,0.1,0,0.1,0,0.2c0,0.1,0,0.2,0.1,0.3l0,0v0.1l0,0v-0.3l-0.1-0.2V50l-0.2-0.3
				l0.2,0.1V50z M43.3,48.6L43.3,48.6L43.3,48.6C43.3,48.5,43.3,48.5,43.3,48.6L43.3,48.6z M44.1,49.6L44,49.7L44.1,49.6L44.1,49.6z
				 M43.3,49.7l0.1-0.2l0,0l0,0l0,0C43.4,49.6,43.4,49.7,43.3,49.7L43.3,49.7v0.2l0,0L43.2,50l0,0l0,0L43.3,49.7L43.3,49.7z
				 M44.3,49L44.3,49L44.3,49L44.3,49L44.3,49z M43.5,50c0,0.1,0,0.1,0,0.2s0,0,0,0l-0.2,0.2l-0.1,0.1L43,50.6
				c-0.1,0.1-0.1,0.1-0.2,0.2l-0.1,0.1l0.1-0.1l0.2-0.5L43.5,50z M43.9,45L43.9,45c-0.1,0-0.2,0-0.2-0.1l0.1-0.4L43.9,45z
				 M43.3,42.8L43.3,42.8L43.3,42.8C43.3,42.7,43.3,42.6,43.3,42.8L43.3,42.8z M44,47.3L44,47.3c-0.1-0.2-0.1-0.3,0-0.5
				c0,0.1,0.1,0.3,0.2,0.4L44,47.3L44,47.3C44.1,47.4,44,47.4,44,47.3z M43.1,48.9L43.1,48.9L43.1,48.9L43.1,48.9L42.9,49L43.1,48.9
				z M44.3,49.5L44.3,49.5L44.3,49.5L44.3,49.5L44.3,49.5L44.3,49.5L44.3,49.5L44.3,49.5L44.3,49.5L44.3,49.5L44.3,49.5z M44.6,49.9
				L44.6,49.9L44.6,49.9L44.6,49.9L44.6,49.9z M44.8,47.7l-0.1,0.2h-0.1L44.8,47.7L44.8,47.7L44.8,47.7L44.8,47.7z M42.2,51.7
				l0.3-0.5l0,0l0.2-0.2c0.2-0.1,0.3-0.2,0.5-0.3l0,0l-0.5,0.5l-0.2,0.2C42.4,51.4,42.4,51.5,42.2,51.7L42,51.9L42.2,51.7z
				 M48.7,48.2L48.7,48.2h0.2h0.2h0.3L49,48.3C48.9,48.3,48.8,48.2,48.7,48.2L48.7,48.2z M41.5,46.8l0.2,0.1l0.2,0.1l0.7,0.3
				l0.2,0.1c0.1,0.1,0.2,0.2,0.3,0.4l0.1,0.1h-0.1h-0.2l-0.2-0.1l-0.5-0.4L42,47.3c0,0-0.1-0.1-0.2-0.1L41.5,47L41,46.5l0.1,0.1
				L41.5,46.8z M49.8,48.8L49.8,48.8L49.8,48.8L49.8,48.8L49.8,48.8z M49.3,48.6L49.3,48.6c-0.1-0.1,0-0.1,0.1-0.2
				c0.1,0,0.2-0.1,0.3-0.1l0,0l0.5,0.1h0.1h-0.1H50l-0.4,0.1L49.3,48.6z M46.5,45.5L46.5,45.5L46.5,45.5l-0.1,0.3L46.3,46L46,46.5
				l-0.1,0.2c0,0,0,0.1-0.1,0.1L45.7,47c0,0.1-0.1,0.2-0.2,0.3l-0.2,0.2l-0.1,0.1l0,0l0,0c0,0,0,0,0-0.1c0-0.2,0.1-0.4,0.2-0.5l0,0
				l0.4-0.5l0.1-0.2l0.1-0.2l0.2-0.3l0.4-0.5l0,0l0,0L46.5,45.5z M43.7,42c0,0.1,0,0.1-0.1,0.2c-0.1-0.2-0.2-0.3-0.2-0.5v-0.1
				c0-0.2,0-0.5,0.1-0.7l0,0l0.1,0.4C43.5,41.5,43.6,41.7,43.7,42C43.7,41.9,43.7,42,43.7,42z M42.9,39.8L42.9,39.8v0.4
				c0,0.1-0.1,0.1-0.1,0.2c0-0.3,0.1-0.7,0.1-1.1C42.9,39.3,42.9,39.6,42.9,39.8L42.9,39.8z M41.1,47.3L41.1,47.3c0,0,0,0.1,0,0.2
				L40.7,47L41.1,47.3z M50.9,48.9h-0.2h0.1H50.9z M50.9,48.5l-0.4,0.1l-0.3,0.1H50h-0.2c0.1,0,0.1-0.1,0.2-0.1l0.4-0.2h0.2h0.6
				L50.9,48.5z"/>
		</g>
	</g>
</g>
</svg>
