<svg xmlns="http://www.w3.org/2000/svg" xmlns:xlink="http://www.w3.org/1999/xlink" viewBox="0 0 71.06 83.01"><defs><style>.cls-1{isolation:isolate;}.cls-2{opacity:0.47;mix-blend-mode:multiply;fill:url(#linear-gradient);}</style><linearGradient id="linear-gradient" x1="23.06" y1="69.33" x2="100.34" y2="69.33" gradientTransform="translate(119.51 73.35) rotate(152.55)" gradientUnits="userSpaceOnUse"><stop offset="0" stop-color="#d6d6d6"/><stop offset="0.98" stop-color="#d1d1d1"/></linearGradient></defs><g class="cls-1"><g id="Layer_2" data-name="Layer 2"><g id="Layer_1-2" data-name="Layer 1"><path class="cls-2" d="M.41,61.68l0,0,0,0,0,0,0,0,.15-.17.14-.18L1,61l.14-.18,0-.06,0,0,.13-.15.14-.14c.38-.39.77-.76,1.18-1.11a1.71,1.71,0,0,1-.05.3c0,.11,0,.23-.07.34s-.07.22-.1.33-.07.22-.1.32l0,.14,0,.14a1.13,1.13,0,0,1-.08.22l0,.09,0,.07,0,.05.42-.9a2.56,2.56,0,0,1,.11-.24l.07-.15h0l.05-.1a2,2,0,0,1,.13-.25L3,59.44,3,59.32l.07-.12L3.22,59l.13-.24.12-.22.23-.41.2-.33a1,1,0,0,1,0,.3s0,.11,0,.17a1.21,1.21,0,0,1,0,.18c0,.12-.08.24-.12.37L3.61,59l-.07.19c-.1.24-.21.45-.28.61L3.14,60c.29-.51.68-1.17,1.08-1.8l0,0h0l.07-.11h0L4.36,58l.08-.11,0-.06,0-.06.29-.42c0-.07.09-.14.14-.2l.13-.19.23-.31a1.47,1.47,0,0,1-.15.63v0h0l0,.14h0v0L5,57.62,4.81,58l-.18.32-.15.26-.11.18,0,.07c0-.06.09-.12.13-.19l0,0h0l.11-.15.14-.21,0-.05,0-.06.08-.1.26-.36h0l.06-.09c.12-.14.23-.29.34-.44l.17-.22.17-.21.08-.1H6l.25-.3c.17-.22.33-.4.45-.56h0l.07-.09h0a.22.22,0,0,1,0,.08,1,1,0,0,1,0,.15,2.66,2.66,0,0,1-.14.39c-.12.22-.26.46-.41.68L6,57.21c-.06.1-.12.18-.17.25l-.17.23L6,57.34l.08-.1.08-.09,0,0h0L6.29,57l.36-.41.2-.23h0l.06-.07h0L7,56.11c.12-.14.23-.29.34-.43l.17-.2.07-.1h0l.06-.08h0l0,0L8,54.91l.22-.31a1.28,1.28,0,0,1-.14.62c0,.12-.11.24-.17.36s-.07.11-.11.17a1.63,1.63,0,0,1-.11.17q-.11.16-.21.3a3.11,3.11,0,0,1-.2.25l-.19.23.17-.17.18-.18L7.71,56h0l0,0,.1-.1.09-.11.17-.22.18-.22.17-.23h0l0-.07h0l.28-.37.29-.43L9.2,54h0a.43.43,0,0,0,0-.07h0l.08-.12.2-.32a1.43,1.43,0,0,1-.1.64c0,.11-.1.23-.16.35v0l-.18.34L9,55l-.1.16-.18.25-.13.18-.05.06,0,0h0l.12-.13.16-.2c.06-.06.11-.13.17-.2l.08-.1.09-.11.08-.12h0l0,0h0l.21-.28c.06-.08.11-.16.17-.23L9.84,54l.17-.25h0l0-.06h0l.37-.58.06-.11.06-.1.11-.19.1-.17h0l0,0,.07-.11a1.53,1.53,0,0,1-.08.64l-.06.19a1.42,1.42,0,0,1-.08.18c0,.12-.11.24-.17.36a6.94,6.94,0,0,1-.35.6L10,54.4h0l-.1.14a1,1,0,0,1,.1-.11h0l0,0h0l.19-.23c.1-.14.21-.28.31-.43l.22-.33h0l0-.05h0l.06-.1.3-.48c0-.08.1-.16.14-.24l.14-.24s.05-.08.07-.13h0l0-.06h0c0-.09.09-.17.14-.26l.38-.75a1.36,1.36,0,0,1-.05.65A1.33,1.33,0,0,1,12,52l0,.09,0,.1c0,.12-.1.25-.15.37s-.11.23-.17.34a.64.64,0,0,1-.08.14h0a.75.75,0,0,0-.07.12c-.09.16-.15.25-.15.25l.2-.28h0l0,0h0l.06-.09.15-.22.14-.23.15-.24.07-.12.07-.12.09-.17h0l0,0h0l.15-.29c.1-.16.18-.33.26-.49s.15-.31.23-.46a2.14,2.14,0,0,1,.1-.22h0l0-.06h0l.21-.49a1.43,1.43,0,0,1,0,.65c0,.07,0,.13-.05.19a1.52,1.52,0,0,1-.06.2l-.13.37c-.05.13-.11.24-.15.35l-.08.15-.06.13-.14.26.26-.41a1.4,1.4,0,0,1,.1-.16h0v0h0l.16-.28.13-.25a.75.75,0,0,0,.07-.12l.06-.13c.09-.17.17-.34.25-.5L13.7,50h0l0,0h0l.1-.24c.08-.16.15-.32.21-.47l.09-.22.08-.21.14-.35a2.59,2.59,0,0,1-.19,1.42l-.13.36-.13.28-.13.27.25-.42q.12-.22.24-.48l.12-.25h0a2.56,2.56,0,0,0,.11-.24c.08-.18.16-.35.23-.53l.11-.25.1-.26.18-.48.08-.23v0h0l0,0,0-.12.12-.36a1.49,1.49,0,0,1,0,.65c0,.13,0,.26-.07.4s-.07.26-.1.39l-.12.36L15,49.2c-.07.17-.12.27-.12.27s.15-.28.23-.43l0-.12.06-.12.11-.25c.07-.17.15-.34.22-.52s.13-.35.2-.53l.09-.26a.56.56,0,0,0,0-.12h0l0-.06h0L16,47c.06-.17.11-.34.16-.49l.07-.23c0-.08,0-.15.06-.22l.11-.37a2.21,2.21,0,0,1,.07.3c0,.05,0,.11,0,.17a1.21,1.21,0,0,1,0,.19,5.65,5.65,0,0,1-.13.79c0,.07,0,.13-.05.19a1.21,1.21,0,0,0-.05.18l-.1.3-.1.27a14.89,14.89,0,0,0,.62-1.54h0l0,0h0c.05-.14.1-.29.14-.43s.11-.36.16-.53a2.5,2.5,0,0,0,.07-.26l.06-.24.12-.45c0-.07,0-.14,0-.2l0-.18a1.07,1.07,0,0,1,.09.3,2.1,2.1,0,0,1,0,.36,4.56,4.56,0,0,1-.09.8c-.11.51-.26,1-.26,1,.1-.24.21-.52.31-.82h0v0h0s0-.08,0-.13.11-.35.17-.54l.08-.27c0-.09.05-.18.07-.28s.09-.36.14-.54l.06-.26,0-.12,0-.12c.07-.33.12-.62.16-.84a.88.88,0,0,1,.09.26s0,.08,0,.13a2.11,2.11,0,0,1,0,.26c0,.13,0,.27,0,.4a1.49,1.49,0,0,1,0,.21l0,.2c0,.12,0,.24-.06.34v.06c0,.1,0,.2-.06.28S18,45,18,45l0,.08c0-.07.05-.15.08-.22v-.05h0v0h0l.06-.17.15-.52c0-.09.05-.18.08-.27l.07-.28.12-.56a18.24,18.24,0,0,0,.2-1.06l.05-.23,0-.23.05-.38,0,.09,0,.07a1.78,1.78,0,0,1,.09.49v.1A.28.28,0,0,1,19,42c0,.07,0,.14,0,.21a2.93,2.93,0,0,1,0,.41,3.69,3.69,0,0,1-.05.37c0,.12,0,.23-.05.32s0,.15,0,.2v.07h0v0h0v0h0l.12-.41c.05-.17.09-.35.13-.53s.09-.36.12-.55.07-.38.1-.57a5.25,5.25,0,0,0,.09-.55c0-.18.05-.35.07-.52l.05-.46,0-.2,0-.19.07.14.05.15a1.82,1.82,0,0,1,.06.35,4.48,4.48,0,0,1,0,.82c0,.27-.05.51-.07.69s0,.12,0,.17V42l0-.08h0q0-.18.09-.39l.06-.26a2.56,2.56,0,0,0,.05-.27c0-.18.07-.37.1-.56l0-.28c0-.1,0-.19,0-.29,0-.38.08-.75.1-1.08s0-.59.05-.81h0v0a.85.85,0,0,1,.1.19,2.55,2.55,0,0,1,.12.44c0,.13,0,.27,0,.4v.41a1.15,1.15,0,0,1,0,.19,1.62,1.62,0,0,1,0,.22v0a.81.81,0,0,0,0,.15.45.45,0,0,0,0,.11q0,.14,0,.21v.08c0-.06,0-.13,0-.2h0v0l0-.14h0a.43.43,0,0,1,0-.11c0-.17.05-.35.08-.54.06-.36.09-.76.12-1.14l0-.28v-.28c0-.18,0-.36,0-.52l0-.47v-.39a1.54,1.54,0,0,1,.24.63c0,.12,0,.25.05.38a.92.92,0,0,1,0,.16c0,.09,0,.18,0,.27v.39c0,.11,0,.22,0,.31s0,.3,0,.3q0-.27.09-.6h0V38s0-.09,0-.14v0h0c0-.42.07-.88.09-1.32,0-.19,0-.38,0-.56v-.53c0-.28,0-.53,0-.73h0v-.13a1,1,0,0,1,.13.23h0a2.11,2.11,0,0,1,0,.25c0,.33-.05.65-.07,1l0-.44c0-.21.07-.42.11-.63l.06.22c0,.12.05.26.07.4s0,.27,0,.41,0,.48,0,.66a.13.13,0,0,0,0,.06c0,.14,0,.28-.05.41l-.09.8c0,.13,0,.25,0,.38l0,.18v.18s0-.18.06-.45.12-.68.19-1c0-.19.09-.38.14-.57s.11-.36.17-.53a1.53,1.53,0,0,1,.43-.7c-.08.38-.16.76-.23,1.13l-.06.36c0,.12,0,.24-.07.37s-.09.53-.13.8-.09.58-.13.87h0l-.06.4h0c-.09.65-.18,1.31-.26,2,0,0,0-.18.08-.45s.05-.3.09-.48,0-.18.05-.27a2.46,2.46,0,0,1,.07-.29c.09-.39.2-.77.32-1.15a2,2,0,0,1,.42-.78c0,.07,0,.16,0,.25s0,.18-.06.29-.08.42-.12.65-.1.49-.15.76a1.77,1.77,0,0,1,0,.2l0,.2-.07.42-.21,1.2v0c0,.12,0,.24-.05.35h0a.5.5,0,0,1,0,.12q-.06.42-.12.81l-.06.38c0,.12,0,.24-.05.35a1.13,1.13,0,0,0,0-.12c0-.07,0-.18.07-.32.07-.35.15-.7.23-1,0-.19.1-.4.15-.59s.12-.4.19-.58a2.71,2.71,0,0,1,.42-.83c-.08.41-.17.82-.26,1.23s-.2,1.06-.31,1.59c0,.14-.05.28-.08.42s-.05.28-.08.42-.1.57-.15.84l0,.08h0l-.06.33-.06.39c-.05.25-.08.49-.12.71,0,0,0-.17.09-.43s.15-.69.24-1,.23-.79.36-1.17a3.26,3.26,0,0,1,.21-.5,2.27,2.27,0,0,1,.22-.36q0,.12-.06.27l-.06.29c0,.21-.09.44-.15.68s-.11.5-.16.76-.11.54-.17.81-.12.56-.17.84-.11.55-.16.82-.1.53-.14.77-.08.48-.11.7c0,0,0-.17.09-.43s.06-.28.1-.45.09-.36.15-.55.1-.39.16-.58.07-.2.1-.29a5897692757198.6,5897692757198.6,0,0,1,.1-.28,3,3,0,0,1,.44-.86c0,.16-.08.35-.13.56s-.05.21-.08.32-.05.23-.07.35-.11.49-.17.75-.12.53-.17.79l-.18.82c0,.13-.05.27-.08.4s-.05.27-.08.39-.09.52-.14.75l-.06.35c0,.11,0,.22-.05.33l0-.11c0-.07,0-.18.06-.3.08-.33.16-.65.25-1a2.29,2.29,0,0,1,.08-.28,2.46,2.46,0,0,1,.09-.29c.06-.19.13-.38.19-.56a3.43,3.43,0,0,1,.44-.85c-.09.41-.19.81-.28,1.21,0,.06,0,.12,0,.18a1.16,1.16,0,0,0,0,.18l-.09.37c-.05.26-.11.52-.17.78l-.06.3h0l0,.1c0,.13-.06.26-.08.39s-.11.53-.16.78c-.09.45-.16.92-.23,1.38.09-.45.2-.9.31-1.34s.23-.73.36-1.09c.07-.17.14-.33.21-.47a1.72,1.72,0,0,1,.23-.36l-.06.26c0,.09,0,.18-.07.28s-.09.42-.15.64-.05.23-.08.35,0,.25-.08.37-.11.5-.16.75c-.19.94-.37,1.88-.5,2.82h0v0l.08-.39c0-.11.06-.25.09-.41l.06-.24c0-.08,0-.17.07-.26a8,8,0,0,1,.34-1.05,1.73,1.73,0,0,1,.1-.24c0-.08.07-.15.1-.22a2.12,2.12,0,0,1,.23-.35c0,.16-.08.34-.13.53l-.06.31-.07.32c-.05.22-.1.46-.15.7s-.06.24-.08.36-.05.25-.07.38L21.6,56l-.12.73c0,.12,0,.24-.05.36l0,.17a1,1,0,0,0,0,.17c0,.22-.05.43-.07.63,0,0,0-.15.06-.38s.05-.26.08-.41.08-.31.12-.48.09-.35.14-.52.11-.35.17-.51a5.28,5.28,0,0,1,.28-.58l.06-.09a1,1,0,0,1,.08-.11c0,.16-.07.33-.11.52s0,.19-.07.3l-.06.32c0,.21-.09.44-.13.68s-.05.24-.07.36l-.06.37a1.85,1.85,0,0,0,0,.23h0v.07h0c0,.15-.05.29-.07.44l-.06.36a3.48,3.48,0,0,1-.05.36c0,.24-.06.47-.08.69l0,.43h0v0h0c0,.06,0,.12,0,.18s0-.08,0-.21h0v0h0a.78.78,0,0,1,0-.14,3.92,3.92,0,0,1,.06-.4c0-.15.07-.31.1-.48a4.47,4.47,0,0,1,.69-1.76c0,.15-.07.32-.1.51l-.06.29c0,.1,0,.21-.05.32s0,.19-.05.29h0l0,.1h0c0,.1,0,.19,0,.29s-.08.47-.11.72-.07.49-.1.73c0,.06,0,.12,0,.18s0,.13,0,.19V61h0v0c0,.06,0,.12,0,.18,0,.23-.05.47-.06.69s0,.43,0,.62c0,0,0-.14,0-.37a1.37,1.37,0,0,1,0-.19l0-.21c0-.15,0-.31.08-.48s.07-.34.11-.51a2.33,2.33,0,0,1,.07-.25c0-.08.05-.16.07-.24a2.42,2.42,0,0,1,.37-.74s0,.06,0,.09h0l0,.12h0c-.05.3-.1.6-.14.9s-.05.44-.08.68-.05.38-.07.57h0V62h0v.07c0,.24-.05.49-.07.74,0,.06,0,.12,0,.18a1.15,1.15,0,0,0,0,.19c0,.12,0,.24,0,.36s0,.24,0,.35v0h0c0,.11,0,.21,0,.3s0,.44,0,.64c0,0,0-.15,0-.38a3,3,0,0,1,0-.4,4.19,4.19,0,0,1,.06-.48c0-.17.05-.35.08-.51l0-.13,0-.12a1.82,1.82,0,0,1,.07-.25,2,2,0,0,1,.34-.73c0,.34-.08.67-.11,1h0V63h0c0,.21,0,.44-.05.68s0,.23,0,.36,0,.24,0,.36,0,.29,0,.44h0v.09h0a1.55,1.55,0,0,0,0,.22c0,.25,0,.5,0,.74s0,.47,0,.69h0v.08h0c0,.2,0,.4,0,.59,0,0,0-.15,0-.39s0-.56,0-.9a4.6,4.6,0,0,1,.06-.52,2.17,2.17,0,0,1,0-.25,2,2,0,0,1,.05-.24,2,2,0,0,1,.31-.74q0,.22,0,.51a2.66,2.66,0,0,0,0,.3c0,.05,0,.1,0,.15a.86.86,0,0,1,0,.16c0,.17,0,.34,0,.51h0v.11h0q0,.4,0,.81v.38c0,.12,0,.25,0,.38v.09h0v.09h0l0,.56c0,.06,0,.13,0,.19a1.1,1.1,0,0,0,0,.18c0,.12,0,.24,0,.36l0,.24h0v.09h0c0,.11,0,.21.05.32a.87.87,0,0,0,0-.11c0-.07,0-.17,0-.29s0-.26,0-.42a1.93,1.93,0,0,1,0-.24v-.26a7,7,0,0,1,.09-1,1.87,1.87,0,0,1,.26-.76v.82c0,.11,0,.21,0,.32s0,.46,0,.7,0,.5.05.75l0,.39c0,.12,0,.25.05.38s0,.26.05.39v0h0v.12h0v0a1.29,1.29,0,0,0,0,.19c0,.25.08.5.13.73a3.59,3.59,0,0,0,.08.35.94.94,0,0,0,0,.16h0L24,72h0l0,.06-.08-.41a4.28,4.28,0,0,1-.05-.43c0-.16,0-.33-.05-.51s0-.18,0-.27v-.27c0-.17,0-.35,0-.51a1.82,1.82,0,0,1,.21-.78c0,.15,0,.33,0,.52s0,.41.06.63l0,.35c0,.11,0,.24.05.36s.07.49.11.74h0v0l0,.12h0c0,.21.08.44.12.66s.11.51.16.76l0,.06h0l0,.14h0l0,.16c0,.06,0,.12.05.18l0,.17c0,.23.11.44.16.64,0,0,0-.15-.07-.38s0-.27-.06-.42,0-.33-.07-.5A6.34,6.34,0,0,1,24.67,72a1.77,1.77,0,0,1,.14-.8c.06.38.12.77.19,1.16,0,.13.05.26.07.4l0,.09h0c0,.07,0,.15,0,.23s.06.24.08.37,0,.25.07.38.07.37.1.55h0l0,.17h0v.05c.05.25.09.51.14.75a1.16,1.16,0,0,1,0,.18.29.29,0,0,1,0,.09s0,.06,0,.09.05.24.07.35v0h0c0,.06,0,.11,0,.17h0l0,.12c0,.11.05.21.07.31a.35.35,0,0,0,0-.1c0-.07,0-.17,0-.28a.59.59,0,0,1,0-.13v-.09l0-.19c0-.16,0-.32-.05-.5s0-.35-.05-.53v-.26a2.09,2.09,0,0,1,0-.25h0a2.05,2.05,0,0,1,.14-.82c0,.14,0,.3.08.48h0v.06l0,.12h0c0,.06,0,.13,0,.19s0,.22.05.34.08.46.13.71c0,0,0,.06,0,.09s0,.06,0,.09a.78.78,0,0,1,0,.16h0v0l0,.15h0l0,.23c.08.46.16.91.25,1.37h0l0,.19h0c.09.42.17.85.26,1.27l-.05-.38c0-.22-.07-.54-.1-.88,0-.08,0-.17,0-.26s0-.17,0-.26v-.51a1.94,1.94,0,0,0,0-.24l0-.22a1.36,1.36,0,0,1,.11-.34c0,.16.06.34.09.53s.06.42.1.64a.77.77,0,0,1,0,.15h0c0,.06,0,.13,0,.2h0c0,.11,0,.23,0,.35l.06.37c0,.06,0,.12,0,.18a1.23,1.23,0,0,0,0,.19c0,.12,0,.25.07.37l.06.38.06.36q0,.19.06.36c.07.43.16.86.25,1.29v-.16s0-.07,0-.12,0-.18,0-.3,0-.12,0-.18,0-.13,0-.19,0-.28,0-.43,0-.29,0-.44,0-.29,0-.42a2.3,2.3,0,0,1,.05-.39l1.08,2.12.14.27c.05.09.09.18.13.27l0,0,0,.1.13.3c.06.12.09.18.14.3l.15.3v0h0l.15.29,0,.07,0,.08,0,.08,0,0,0,0,0,0,0,0,0-.08,0-.07,0-.08-.12-.31-.12-.3-.12-.3-.12-.3,0-.1,0,0a2.29,2.29,0,0,1-.08-.28L29,80.78c-.19-.74-.33-1.47-.45-2.22a3,3,0,0,1,.28.33c.1.12.19.25.29.38s.19.27.28.4l.27.39.12.18.12.16.19.28.07.1.06.08.05.07-.71-1.21-.18-.34a3.9,3.9,0,0,0-.19-.35L29,78.67c-.06-.12-.12-.24-.17-.36l-.09-.17L28.67,78c-.06-.12-.11-.24-.16-.36s-.09-.23-.14-.34-.09-.23-.13-.34-.16-.43-.22-.62-.12-.37-.17-.52a1.51,1.51,0,0,1,.26.29l.13.19.13.21a5.42,5.42,0,0,1,.26.48c0,.08.08.16.13.24l.12.24.42.84c.11.21.17.35.17.35-.37-.9-.72-1.82-1-2.75,0-.13-.07-.25-.11-.38a1.21,1.21,0,0,0-.05-.18l0-.09s0-.06,0-.09c-.06-.25-.12-.48-.18-.71s0-.22-.07-.33,0-.21-.07-.3-.07-.38-.1-.54a2.23,2.23,0,0,1,.42.73v0h0l.08.18h0v0l.09.25c.07.17.13.35.18.51l.17.48.13.4.09.27,0,.1a2.81,2.81,0,0,1-.08-.31l0-.07h0a2.5,2.5,0,0,0-.07-.26c0-.11-.05-.23-.08-.34l0-.09a.29.29,0,0,0,0-.09l0-.18c-.05-.25-.11-.5-.16-.75s-.1-.51-.15-.77L28.33,73c0-.13,0-.26,0-.38s-.07-.49-.09-.72c-.05-.39-.09-.79-.14-1.18l.06.07.09.16a2.47,2.47,0,0,1,.2.51c.1.34.18.69.25,1,0,.17.07.34.1.49s.06.29.08.41l.08.39c0-.21-.05-.43-.08-.66l0-.17a1.1,1.1,0,0,0,0-.18l0-.37c0-.25-.06-.51-.08-.78s-.05-.53-.07-.79-.05-.52-.07-.76,0-.25,0-.37l0-.34c0-.22-.05-.44-.07-.63s0-.37-.06-.52a1.77,1.77,0,0,1,.34.69c0,.16.09.33.13.5a2,2,0,0,1,.05.26c0,.09,0,.18,0,.26s.05.35.07.51,0,.31.05.43,0,.41,0,.41,0-.22,0-.34,0-.23,0-.35,0-.44,0-.66h0v-.09a1.21,1.21,0,0,0,0-.19c0-.07,0-.13,0-.2l0-.39c0-.12,0-.26,0-.38l0-.39c0-.25-.05-.51-.07-.75s-.05-.47-.08-.69l0-.31s0-.07,0-.11h0l0-.19c0-.18,0-.36-.06-.51a1.68,1.68,0,0,1,.35.66c0,.14.08.28.11.42l0,.1h0l.09.46c0,.08,0,.16,0,.25l0,.24c0,.15,0,.29.05.41s0,.22,0,.29v0h0v0h0a2,2,0,0,1,0-.25c0-.11,0-.23,0-.34s0-.24,0-.36a1.21,1.21,0,0,0,0-.19c0-.06,0-.12,0-.18s0-.14,0-.21V67h0c0-.16,0-.32,0-.48l0-.37c0-.13,0-.25,0-.38s0-.27,0-.41h0v-.09h0c0-.3-.07-.6-.1-.9,0,0,0-.1,0-.15s0-.11,0-.16,0-.19,0-.28,0-.35-.07-.5a1.52,1.52,0,0,1,.36.64c0,.07,0,.14.07.22l.06.24c0,.16.07.33.1.49.06.33.1.64.13.87,0,.06,0,.1,0,.15v0c0,.13,0,.21,0,.21a1.41,1.41,0,0,0,0-.2h0v-.06h0c0-.13,0-.26,0-.39s0-.47,0-.71,0-.34-.05-.51h0v-.06h0c0-.05,0-.1,0-.15,0-.24-.05-.49-.08-.73s0-.24,0-.36l0-.35q0-.35-.09-.66c-.05-.35-.1-.71-.16-1.07a1.54,1.54,0,0,1,.36.63c0,.07.05.14.08.22l0,.11,0,.12a15,15,0,0,1,.2.94l0,.2h0v.05h0v.14l.05.37c0-.14,0-.29,0-.45h0v0h0V63c0-.11,0-.23,0-.34l0-.35c0-.11,0-.23,0-.35a1.1,1.1,0,0,0,0-.18,1.1,1.1,0,0,0,0-.18l0-.24h0v-.06h0c0-.14,0-.28-.05-.42s-.06-.46-.1-.69-.06-.44-.1-.65,0-.2-.05-.3h0l0-.09h0c0-.22-.07-.44-.12-.66a2.4,2.4,0,0,1,.46.84,1.55,1.55,0,0,1,.08.23l.12.47q0,.24.09.45c0,.07,0,.14,0,.2a1.41,1.41,0,0,1,0,.18,3.65,3.65,0,0,1,.05.37c0-.2,0-.41,0-.62s-.05-.44-.07-.67,0-.23,0-.35l0-.18a1.11,1.11,0,0,0,0-.17c0-.24-.07-.47-.11-.71s0-.2,0-.3h0v-.06h0l-.06-.32c0-.22-.08-.44-.12-.64s0-.2-.06-.3,0-.19-.05-.28-.08-.33-.11-.48a3,3,0,0,1,.7,1.55c0,.16.08.31.11.45s.05.27.07.38.06.36.06.36c0-.19,0-.4-.06-.61s-.05-.44-.09-.66,0-.23-.05-.35v0h0L30,56.93c0-.23-.08-.47-.13-.7l-.06-.34c0-.12-.05-.23-.07-.34s-.1-.44-.15-.64,0-.21-.06-.3,0-.19-.07-.28l-.13-.48a1.7,1.7,0,0,1,.43.65,3,3,0,0,1,.18.45c.06.16.11.32.15.47s.09.31.13.45.06.27.08.38.07.36.07.36c0-.19,0-.39-.08-.61a1,1,0,0,0,0-.16l0-.16-.06-.34c0-.22-.08-.46-.13-.69s-.1-.47-.16-.71-.05-.23-.08-.35,0-.1,0-.16h0a.24.24,0,0,0,0-.08h0s0-.07,0-.11c-.06-.22-.12-.44-.17-.65l-.09-.3c0-.1-.05-.19-.07-.28s-.11-.34-.15-.48a1.61,1.61,0,0,1,.35.45,2.12,2.12,0,0,1,.11.21,6.44,6.44,0,0,1,.37.95c0,.08.06.16.08.23l.06.22.1.39c.06.22.09.36.09.36-.12-.7-.27-1.4-.44-2.09v0c-.05-.19-.09-.37-.14-.56s-.14-.47-.2-.7l-.1-.34a3,3,0,0,1-.1-.32l-.2-.59c0-.09-.05-.18-.08-.26L29,49.21a1.18,1.18,0,0,1,.26.28c.08.12.16.25.24.4a6.93,6.93,0,0,1,.42,1c.14.41.27.82.38,1.23-.07-.37-.16-.73-.24-1.09h0v0h0a1.16,1.16,0,0,1,0-.18c-.06-.23-.14-.47-.21-.72s-.07-.24-.1-.36l-.12-.37-.24-.71-.12-.34-.06-.17a1,1,0,0,0-.06-.16c-.14-.37-.28-.73-.43-1.1a1.25,1.25,0,0,1,.25.26l.1.14c.07.09.13.19.2.3s.17.32.25.49l.12.25c0,.08.07.17.11.25s.11.29.16.44h0c.05.15.11.29.15.43l.09.28,0,.1c0-.1,0-.2-.07-.3l0-.06h0v0h0c0-.08,0-.16-.07-.24s-.13-.46-.21-.69-.07-.25-.11-.37-.08-.24-.13-.37-.18-.5-.27-.74-.18-.5-.28-.73-.19-.47-.29-.68-.09-.21-.13-.31-.09-.2-.14-.29-.17-.36-.24-.51l.1.08.08.08a3.62,3.62,0,0,1,.42.54l.08.12.07.12.14.26c.09.17.18.34.26.51l.22.5c.07.15.12.29.17.41s.07.19.09.26h0l0,.11h0v0h0v-.06h0c-.05-.18-.11-.37-.17-.57s-.16-.47-.26-.71-.18-.5-.29-.75-.21-.51-.32-.76-.23-.5-.34-.74-.23-.46-.34-.68l-.32-.6-.14-.27-.12-.19h0l0,0,.17.12.15.15a4.94,4.94,0,0,1,.34.41c.22.33.44.67.63,1s.31.61.45.92.17.4.17.4a.49.49,0,0,0,0-.11h0q-.09-.25-.21-.54c0-.12-.09-.24-.14-.36l-.16-.37c-.11-.24-.23-.5-.36-.76l-.18-.38-.2-.38c-.26-.47-.52-.95-.8-1.41s-.44-.69-.67-1h0l0-.05a.94.94,0,0,1,.18.12l.06,0a2.53,2.53,0,0,1,.37.36l.12.25v0l.15.29h0a.54.54,0,0,0,.05.11c.12.23.24.46.36.67l.18.32.18.29-.05-.1a2.4,2.4,0,0,1-.14-.28c-.11-.24-.25-.56-.39-.91a.36.36,0,0,0,0-.11l.06.08c.12.17.24.34.35.52l.24.4a.41.41,0,0,1,.05.09c.09.14.17.29.25.43l.14.29.06.11c0-.09-.08-.19-.13-.28h0l0,0a1.86,1.86,0,0,0-.1-.2h0a1,1,0,0,0-.07-.15c-.11-.23-.23-.48-.37-.73-.21-.4-.45-.8-.69-1.19,0-.11-.05-.21-.07-.32a3,3,0,0,1-.06-.58,2.17,2.17,0,0,1,.15.22,4.75,4.75,0,0,1,.27.42.8.8,0,0,1,.09.14h0c.2.43.42.9.66,1.39l.18.36.19.36.29.53h0l.1.18,0,.07h0a2.54,2.54,0,0,0,.16.28,3.45,3.45,0,0,0,.2.32c.13.21.25.41.38.59,0,0-.09-.14-.21-.37s-.28-.55-.43-.89A7.66,7.66,0,0,1,29,41.73a3.43,3.43,0,0,1-.08-.5,1.14,1.14,0,0,1,0-.42l.11.24.12.26.29.59c.11.21.22.44.33.67s.25.46.38.69.26.48.4.71l.3.49h0c0,.06.07.12.11.17h0v0c.15.22.28.44.42.65l.41.57s-.09-.14-.22-.37-.14-.24-.22-.39l-.25-.48c-.08-.17-.16-.35-.23-.53l-.1-.27s0-.08-.05-.13l0-.13a2.07,2.07,0,0,1-.1-.92l.25.49.15.29.16.3.37.64c.13.22.26.46.4.68l.43.69.22.35.23.33.45.62.22.29.21.27-.06-.1a1.85,1.85,0,0,1-.18-.26c-.14-.22-.32-.52-.5-.85l-.13-.26-.13-.26c-.07-.18-.14-.35-.2-.53a2.25,2.25,0,0,1-.14-.9l.61,1,.09.16.1.15.2.32c.14.22.29.44.43.67L34,47h0l0,.08.24.34.47.65c.33.42.64.81.93,1.14,0,0-.4-.53-.79-1.17a7.5,7.5,0,0,1-.5-1,2.4,2.4,0,0,1-.15-.48,1.54,1.54,0,0,1,0-.42l.14.23a2.52,2.52,0,0,1,.15.24l.37.55.2.3.21.32.07.09h0l.09.11h0l.3.43a22.34,22.34,0,0,0,2,2.34h0l0,0-.27-.33-.27-.36L37,49.9l-.16-.23a8.94,8.94,0,0,1-.55-1l-.09-.24a2.17,2.17,0,0,1-.07-.24,1.24,1.24,0,0,1-.05-.41l.31.45.19.26.05.07h0l.08.11.07.1.44.59.24.31.25.31c.17.21.34.43.52.64l.53.6.27.29.13.14.13.13.5.5L39.55,52l-.29-.35-.32-.43-.32-.48a4.19,4.19,0,0,1-.28-.5,3,3,0,0,1-.22-.63s0-.07,0-.11,0-.1,0-.14l.33.44.2.25c.06.09.14.18.21.27l.47.57.25.3.27.3a1.54,1.54,0,0,0,.17.19h0l0,.05h0l.32.36.28.29.28.29.55.54.36.32h0l.14.13-.17-.18h0l-.12-.13c-.09-.09-.2-.2-.31-.33l-.34-.42a3.85,3.85,0,0,1-.93-1.82l.36.43.2.24.23.26c.06.08.14.16.21.24h0l0,.05,0,0h0l.21.23c.17.19.35.39.54.58l.57.58.15.14.15.14.29.27c.19.18.38.36.57.52s.37.31.55.44c0,0-.13-.11-.31-.29l-.15-.15-.17-.17c-.12-.12-.24-.26-.36-.4s-.25-.3-.36-.45l-.17-.23L42.55,53a2.08,2.08,0,0,1-.33-.85l.07.07h0l.08.09h0L43,53l.52.53L44,54h0l.07.06h0l.05,0c.19.19.39.38.6.56l.15.14.15.13.31.26.3.25,0,0h0l.26.21.57.42-.33-.28-.33-.31-.38-.38c-.13-.14-.26-.29-.38-.44L45,54.58l-.09-.11-.16-.23a1.92,1.92,0,0,1-.36-.84c.2.21.47.48.77.77h0l.09.08.54.5.29.27.3.26.36.31h0l.08.06h0l.18.16.64.5.6.45h0l0,0h0l.53.36-.34-.26c-.2-.17-.47-.39-.74-.66s-.27-.27-.4-.41l-.19-.22L47,55.39a2,2,0,0,1-.4-.82l.4.37.24.21.12.11.13.12.42.35h0l.09.08h0l.67.54.33.25a3.92,3.92,0,0,0,.32.25l.09.06h0l.08.06h0l.49.35.16.12.16.1.32.21.22.14h0l.09,0h0l.29.18-.09-.07-.26-.18-.36-.28-.2-.16-.21-.18a8.8,8.8,0,0,1-.8-.82,2,2,0,0,1-.44-.8l.29.24h0l.11.09h0l0,0,.24.2.27.21.59.46.25.18h0l.1.08h0l.29.21.33.23.34.23L52,58l0,0h0l.1.06h0l.17.11c.22.14.45.27.66.39l.32.18.14.08h0l.11.05h0l0,0-.07-.05,0,0-.24-.15-.37-.26c-.14-.1-.29-.2-.44-.32L52.25,58l-.22-.2a4.89,4.89,0,0,1-.39-.4,2,2,0,0,1-.49-.78l.44.34.34.24h0l.1.08.1.06.29.21.31.21.65.43h0l.1.07h0l.59.36.68.42.06,0h0l.12.08h0l.14.08.16.1.15.09.58.36-.33-.24-.35-.27-.42-.32a8.67,8.67,0,0,1-.85-.74,2.11,2.11,0,0,1-.53-.76c.27.19.61.41,1,.67l.63.42.32.21.33.23.59.42h0l.05,0c.21.17.43.32.64.47l.15.12.08,0,.07.06.3.22,0,0h0l.14.1h0l.11.08a2.48,2.48,0,0,1,.26.19l-.08-.08-.23-.19-.1-.09-.08-.07-.15-.13-.38-.36c-.14-.13-.28-.26-.41-.4s-.13-.13-.2-.2L56.42,59a2.26,2.26,0,0,1-.5-.78l.46.33.26.19.27.22.59.46.07.06.08.06.15.13.13.1h0l.18.15,1.16,1,.09.09,1,.9-.29-.29c-.17-.19-.41-.43-.65-.71a2,2,0,0,1-.19-.22l-.19-.21c-.12-.15-.24-.3-.34-.45l-.15-.22a2.25,2.25,0,0,1-.12-.21,1.12,1.12,0,0,1-.15-.39l.42.37.5.45.27.25.27.27.28.27.15.13.14.15.28.28.28.29.28.29.27.28,1,1-.05-.06-.06-.08-.08-.1L62,62.75l-.13-.16-.13-.18c-.1-.12-.19-.25-.29-.38l-.28-.4a4.78,4.78,0,0,1-.26-.42,3.72,3.72,0,0,1-.21-.39c.71.32,1.4.66,2.08,1l.26.14.25.15,0,0,.09.07.26.18.27.18.27.18h0l.26.17.07,0,.07,0,.08.05,0,0,0,0,0,0,0,0L64.69,63l-.07,0-.06-.06-.25-.21-.25-.21-.25-.2-.26-.19L63.46,62l0,0a2.09,2.09,0,0,1-.22-.2l-.21-.2a23,23,0,0,1-1.62-1.66,3.49,3.49,0,0,1,.43.07l.47.13a3.68,3.68,0,0,1,.47.15l.46.15.2.08.2.07.32.12.12,0,.09,0,.08,0-1.28-.62L62.59,60l-.22-.1h0l-.14-.07-.36-.19-.36-.18-.17-.09-.18-.1-.34-.18L60.61,59h0l-.13-.08-.32-.18-.58-.33-.48-.3a1.54,1.54,0,0,1,.42,0,1.05,1.05,0,0,1,.24.06l.25.07a4.76,4.76,0,0,1,.53.19l.27.12.26.11c.34.15.64.3.87.41l.37.18c-.73-.43-1.68-1-2.58-1.57l-.34-.22-.16-.1-.09-.06-.08,0-.61-.42-.29-.2,0,0h0L58,56.53h0l-.08-.06-.46-.33a2.3,2.3,0,0,1,.9.23l.06,0,.16.07h0l0,0,.26.12.5.27.46.26.38.23.25.15.09.06-.26-.19-.06,0h0L60,57.18l-.3-.21-.08,0-.07-.06-.16-.12-.51-.37h0l-.13-.09h0l-.64-.48-.32-.24-.3-.25-.13-.11h0l-.44-.36-.8-.64h0l-.13-.1h0v0l.17,0h0a2.79,2.79,0,0,1,.67.25,9.65,9.65,0,0,1,1,.59l.2.14.08.06h0l.15.11.36.25.33.24-.51-.44-.14-.12-.14-.12-.28-.25-.61-.52c-.1-.1-.21-.19-.32-.28h0l-.1-.09h0l-.19-.16c-.21-.18-.42-.34-.62-.5l-.3-.24-.29-.21-.53-.39-.45-.32a2,2,0,0,1,.89.22,4.74,4.74,0,0,1,.5.26l.25.15a1.43,1.43,0,0,1,.24.16c.16.1.31.21.45.31l.35.28.33.27-.24-.24-.27-.25-.51-.45h0l-.07-.06-.15-.13-.16-.13-.32-.25L55.42,52l-.32-.24h0l-.1-.07h0l-.53-.39-.61-.42-.27-.18h0l-.1-.06h0l-.17-.12-.46-.29a2,2,0,0,1,.9.18,3.41,3.41,0,0,1,.48.22l.06,0,.47.26L55,51l.22.14.37.26.25.19,0,0,.06,0-.06-.06h0l-.19-.17-.28-.23L55.1,51,55,50.85l-.16-.12-.17-.12h0l-.07-.06h0l-.41-.3L53.81,50l-.34-.23-.37-.25h0L53,49.48h0L52.18,49l-.14-.1-.15-.08-.27-.16-.25-.14h0l-.11-.06h0l-.12-.08a2.32,2.32,0,0,1,.91.14l.26.1.26.11.52.26a8.26,8.26,0,0,1,.85.51l.13.09h0l.19.14-.16-.14h0l-.05,0h0l-.34-.26c-.19-.15-.41-.3-.62-.45l-.47-.32h0l-.06,0h0l-.14-.09-.69-.44-.35-.21-.34-.19-.19-.11h0l-.09,0h0l-.37-.21-1.07-.56a2,2,0,0,1,.91.1l.27.08.13,0,.14,0,.52.23.49.25.2.11h0l.17.1.36.23-.4-.3h0l0,0h0L52,47.39a3.53,3.53,0,0,0-.32-.21L51.35,47,51,46.75l-.17-.1-.18-.11-.24-.13h0l-.05,0h0l-.4-.23-.7-.37-.66-.34-.31-.15-.1,0h0l-.69-.32a2,2,0,0,1,.92.06l.27.07.27.08.53.21c.18.08.35.15.5.23l.21.1.19.1c.23.12.37.21.37.21l-.58-.39-.24-.14h0l-.41-.24L49.16,45l-.18-.1-.18-.1-.72-.37-.32-.15h0l-.06,0h0l-.33-.16-.67-.3-.32-.14-.29-.12-.51-.21a3.93,3.93,0,0,1,2,.34,4.73,4.73,0,0,1,.5.2c.16.06.3.13.41.18l.39.19-.61-.35-.68-.36-.36-.18,0,0h0l-.34-.16-.75-.34-.36-.16-.37-.15-.69-.27-.31-.12-.11,0-.07,0h0l-.12,0-.52-.18a2,2,0,0,1,.92,0,3.82,3.82,0,0,1,.55.11l.55.16.51.18c.16.06.3.11.42.17l.39.17-.62-.33-.16-.09L46,42.1l-.35-.16-.74-.33-.76-.3-.37-.14-.18-.07h0l-.09,0h0l-.11,0-.7-.24-.33-.11-.3-.1-.53-.15a1.3,1.3,0,0,1,.41-.09h.25l.26,0a6.52,6.52,0,0,1,1.12.22l.27.07.25.08.42.16.4.15a20.32,20.32,0,0,0-2.19-.93h0l-.06,0h0L42,39.88l-.75-.25-.36-.11-.35-.1-.64-.18-.28-.07-.25-.07a1.45,1.45,0,0,1,.41-.1h.5a7.53,7.53,0,0,1,1.13.17,13.18,13.18,0,0,1,1.36.4c-.34-.15-.73-.31-1.15-.46h0L41.41,39l-.77-.26-.39-.12-.39-.12-.76-.2-.37-.1-.17,0-.18,0-1.18-.26a1.27,1.27,0,0,1,.36-.11l.18,0,.37,0,.56,0,.29,0,.28,0,.49.1.08,0,.4.1.3.08.11,0-.32-.13-.06,0h0L40,38l-.73-.23-.39-.12-.39-.11-.79-.2-.77-.18L36.16,37l-.33-.07-.32,0L35,36.75l.12,0,.11,0a2.63,2.63,0,0,1,.67-.1h.28l.28,0a5.42,5.42,0,0,1,.58.06l.53.08.44.1.29.07.08,0h0l-.59-.2L37,36.5l-.79-.2-.8-.16L34.63,36l-.74-.12-.65-.09-.28,0-.26,0a.56.56,0,0,1,.19-.09.66.66,0,0,1,.2-.06,2.51,2.51,0,0,1,.5-.07,7.28,7.28,0,0,1,1.14,0c.37,0,.72.1,1,.14l.3.06h.12l-.12,0h0l-.56-.15-.37-.09-.38-.09-.79-.15-.4-.07-.41-.07c-.53-.08-1.05-.15-1.51-.2l-1.15-.11h-.06a.83.83,0,0,1,.16-.09l.06,0a2.92,2.92,0,0,1,.66-.15,5.09,5.09,0,0,1,.56,0l.58,0,.26,0,.31,0H33l.22,0h.15l.3.05.12,0-.29-.07h0l-.2,0h0l-.15,0-.75-.14c-.52-.1-1.08-.16-1.61-.23l-.4,0-.19,0L30,34,29.23,34l-.65,0H28a1.89,1.89,0,0,1,.87-.3l.49,0h.92l.26,0,.45,0c.26,0,.43.05.43.05l-.85-.16h0l-.1,0-.2,0h-.06c-.59-.09-1.24-.15-1.86-.2l-.79,0-.38,0H25.64A1.76,1.76,0,0,1,26,33l.25,0-.23,0a3,3,0,0,1,.45-.12,2.32,2.32,0,0,1,.38-.06l.18,0c.14,0,.28,0,.43,0l.6.08.36,0,.18,0h.17l-.44-.07-.46-.1.72,0,.43,0-.17,0-.17,0-.36,0-.67-.07h-.09l-.4,0h0l-.36-.1a4.14,4.14,0,0,1-.53-.19,2.38,2.38,0,0,1-.53-.3h.61l.32.08.35.08.37.07.78.15.83.13h0l.38.06h0c.62.09,1.25.18,1.87.24l-.42-.07-.46-.08-.26-.06-.28-.06c-.37-.1-.75-.21-1.12-.33a2.13,2.13,0,0,1-.79-.46l.25.06.28.06.64.13.73.14.2,0,.19,0,.4.06c.37.07.75.12,1.13.18h0l.32,0h0l.12,0,.76.1.35,0,.33,0h-.12l-.3,0c-.33-.06-.65-.13-1-.21l-.56-.14c-.19,0-.38-.12-.55-.18a2.3,2.3,0,0,1-.81-.44q.59.14,1.17.24l1.5.27.39.06.4.06.77.12h.07l.31,0,.35,0,.66.07-.4-.07c-.32-.06-.64-.12-1-.2A11.21,11.21,0,0,1,33.52,32a2.22,2.22,0,0,1-.47-.2,1.55,1.55,0,0,1-.34-.23l.25.06.28.05.63.12.71.13.75.13.77.13.74.11c.25,0,.48.08.71.1l.63.07-.39-.06-.41-.09-.5-.11L36.35,32l-.27-.08-.13,0-.12,0a2.44,2.44,0,0,1-.81-.43l.52.11c.1,0,.2,0,.3.06l.32.05.69.13.73.13.73.13.37.06.35,0,.68.1.31,0,.29,0h-.1l-.26,0-.88-.2L38.82,32l-.26-.08-.5-.17a2.78,2.78,0,0,1-.78-.42l1.1.21.17,0,.16,0,.34.06.7.13.27,0h.09l.35.06.7.12,1.23.16c-.4-.08-.79-.16-1.19-.26a7,7,0,0,1-1-.32,4.08,4.08,0,0,1-.42-.19,1.39,1.39,0,0,1-.32-.23l.23.05.26.05.58.11.31.07.33.06.68.12c.84.16,1.67.29,2.52.38h0L44.09,32l-.37-.07-.21-.05-.23-.06c-.31-.09-.63-.19-.94-.31l-.21-.1-.2-.1a2,2,0,0,1-.3-.23l.48.1.27.05.29.06.62.12.33.07.33,0,.67.12.66.11.31,0,.16,0,.15,0,.56.06-.34-.06-.36-.08c-.13,0-.28-.06-.43-.11l-.46-.13-.44-.17a2.43,2.43,0,0,1-.51-.28L43.84,31l-.09-.08.46.09.27.06.28.05.61.12.33.06.32.06.66.11.33,0,.32.05.61.08.38,0h0l.15,0-.18,0h0l-.12,0-.36-.07-.42-.11a3.49,3.49,0,0,1-1.54-.71l.46.09.26.05.28.06.61.11.64.11.66.1.16,0,.16,0,.33,0,.61.08.57,0-.34-.05-.16,0-.19,0-.43-.1L49,31.1,48.81,31l-.21-.09a1.72,1.72,0,0,1-.63-.41l1,.19.61.1.51.09h.13l.67.1.16,0,.17,0,.32,0,.32,0h0l.27,0,.58,0-.34,0L52,31.1,51.61,31l-.45-.13-.11,0-.11,0-.21-.08a1.72,1.72,0,0,1-.63-.41l.91.16h0l.1,0,.61.1.32,0,.34.05.39.05h0l.24,0,.68.07c.21,0,.43.05.63.06h.07L55,31l-.36-.05c-.21,0-.51-.08-.81-.15s-.31-.07-.46-.12l-.23-.07-.21-.08a1.59,1.59,0,0,1-.63-.4l.47.08.27,0,.14,0,.15,0,.46.06h.1l.74.1.34,0,.35,0h.18l.52.05h.17l.17,0,.33,0h.53l-.27,0-.39-.05-.22,0-.24-.05a5.29,5.29,0,0,1-.92-.26,1.6,1.6,0,0,1-.64-.39l.47.07.28.05.29,0,.65.08.69.09.36,0,.36,0,.37,0,.18,0h.18l.7.05h.64l-.38,0-.41,0-.47-.08-.25-.05-.25-.06L57.47,30a1.62,1.62,0,0,1-.67-.39l.49.07.59.08.32,0,.34,0,.7.08h0l.74.06.73.07.35,0h.17l.17,0,.62.07-.37-.07L61.28,30l-.47-.09a9,9,0,0,1-1-.26,1.64,1.64,0,0,1-.7-.38l1.11.13.68.09.36.05.37.06.52.09h0l.16,0h0l.72.14.17,0,.09,0,.08,0,.33.07h0l.16,0h0l.12,0,.3.07-.1,0L64,30l-.12,0-.09,0-.18-.05-.45-.16-.49-.17-.25-.09-.22-.1h0A2.22,2.22,0,0,1,61.5,29l.52.1.3.05.31.08.68.16.09,0,.09,0,.17.05.36.1c.89.26,1.78.56,2.67.88l-.35-.16c-.21-.09-.5-.22-.8-.37l-.24-.12-.24-.11c-.15-.08-.31-.16-.45-.25l-.21-.13-.19-.13a1.82,1.82,0,0,1-.28-.27l.51.15.6.21.33.11.33.13.35.13.17.07.18.07.34.15.35.15.34.16.33.15,1.18.59-.07,0-.08,0-.1-.06-.27-.17-.16-.1-.17-.11-.37-.24-.39-.25L67,29.65l-.32-.26q1.1.06,2.19.21l.27,0,.28.05h0l.11,0,.29.09.3.07.31.08h0l.29.07h.08l.08,0,.08,0h.09l0,0h0l-.07,0-.08,0-.08,0-.29-.11-.3-.11-.3-.09-.29-.1-.11,0h0l-.26-.11-.27-.11c-.7-.29-1.39-.59-2.09-.91l.38-.09h0l.43-.06.44,0,.43,0h1l-1.29-.09-.36,0h-.37L67,28l-.37,0-.19,0H66.3l-.37,0-.21,0h-.14l-.34,0-.63-.06-.53-.07a1.34,1.34,0,0,1,.34-.14l.21,0,.23,0a4.36,4.36,0,0,1,.51,0h.52c.29,0,.58,0,.87,0l.38,0-1.09-.14h0l-.18,0h0l-1.55-.2h0l-.18,0h0L64,27l-.19,0h-.09l-.09,0-.7-.1-.32-.05h0l-.18,0h-.1l-.53-.09a1.73,1.73,0,0,1,.8-.17H63l.52,0,.49,0,.4,0,.28,0,.1,0-.31-.07h-.07l-.25,0-.35-.06-.08,0h-.09l-.18,0-.6-.1h0l-.15,0h0L62,26.13l-.38-.07L61.25,26h0l-.15,0h0l-.53-.1-1-.17h0l-.15,0h0l.12-.06,0,0a2.08,2.08,0,0,1,.6-.08,9.24,9.24,0,0,1,1,.06l.49.07.41.05.39.07-.64-.15-.17,0-.18,0-.05,0h0l-.31-.07-.75-.16L60,25.17h0l-.12,0h0l-.24,0L58.9,25l-.36,0-.16,0h0l-.13,0h0l-.62-.07-.51,0a1.47,1.47,0,0,1,.74-.23,4,4,0,0,1,.5,0h.26l.27,0,.5.05.42.06.41.08-.33-.09-.34-.08-.65-.13h0l-.09,0h0l-.17,0-.19,0L58,24.29l-.38-.05-.38,0h-.12l-.62-.05-.68,0H54.73a1.52,1.52,0,0,1,.7-.29l.43-.05H56a3.7,3.7,0,0,1,.47,0h.49l.41,0,.29,0h0l-.25-.05-.34,0-.35-.05-.18,0-.18,0-.19,0h-.09l-.47,0-.37,0-.37,0h-1.7l-.29,0-.36,0h-.14a1.7,1.7,0,0,1,.69-.34l.23-.06.24,0,.5-.06a8.63,8.63,0,0,1,.88,0h.38l-.19,0h-.06l-.39,0c-.23,0-.46,0-.7,0h-.73l-.73,0-.36,0-.35,0c-.22,0-.45,0-.65.06l-1.08.14a1.69,1.69,0,0,1,.67-.39l.23-.07.11,0,.12,0,.49-.1.47-.06.2,0h.19l.38,0H51.6l-.35,0h-.18l-.18,0-.25,0h-.06l-.41,0-.69.1-.65.1-.31.06h0l-.09,0h0l-.66.13a1.71,1.71,0,0,1,.66-.42.85.85,0,0,1,.22-.09l.24-.08.48-.13.46-.1.2,0,.18,0,.37,0-.62,0-.23,0h0l-.43.05-.35,0-.18,0-.17,0-.71.12-.31.07h-.06l-.32.06-.64.15-.3.08-.28.07-.48.14a3.27,3.27,0,0,1,1.6-.84l.45-.13.39-.08.36-.07-.61.07L47,22l-.35.07h0l-.33.07-.71.17-.34.09-.34.09-.65.2-.3.09,0,0h0l-.11,0h0l-.11,0-.48.16a2.33,2.33,0,0,1,.66-.52l.47-.23.48-.19.45-.16c.14-.05.28-.08.39-.11l.36-.09c-.19,0-.4.06-.61.11l-.16,0-.17,0-.33.08-.7.19-.71.22-.35.12-.16.05h0l-.08,0h0l-.1,0-.65.24-.3.12-.28.11-.48.2a1.86,1.86,0,0,1,.28-.29l.18-.14a1.64,1.64,0,0,1,.22-.14c.31-.18.63-.34,1-.49l.24-.1.22-.09.39-.14.36-.11a20,20,0,0,0-2.09.63h0l0,0h0l-.56.21-.7.28-.33.14-.32.14-.59.27-.25.12-.23.12a1.94,1.94,0,0,1,.28-.32,3.21,3.21,0,0,1,.4-.3,9.61,9.61,0,0,1,1-.57,10.31,10.31,0,0,1,1.23-.52c-.37.11-.73.23-1.1.36h0l-.18.07-.72.29-.36.15-.36.16-.71.34-.34.17-.16.08-.16.08-1.08.58a2.26,2.26,0,0,1,.25-.29l.18-.18h0a2.39,2.39,0,0,1,.26-.21l.48-.33.25-.16.25-.14.41-.22.07,0,.4-.2.28-.13.1,0-.31.11,0,0h0l-.24.09L38,23l-.36.16-.37.18-.74.37c-.24.12-.48.26-.71.39s-.46.25-.67.38l-.3.18-.29.17-.48.31.11-.16,0-.07a4.79,4.79,0,0,1,.51-.5l.12-.09.12-.09.25-.18.51-.34c.17-.11.33-.21.48-.29l.41-.23.26-.13h0L37,23h0l-.06,0h0l-.57.25-.7.35-.74.39-.74.43-.72.44-.66.44-.58.4-.26.18-.18.14h0l0,0,.08-.13.23-.15h0l.12-.08h0l0,0a5.33,5.33,0,0,0,.46-.32l.41-.32-.26.17-.28.18-.35.18-.14.07a3.85,3.85,0,0,1,.35-.35,12.23,12.23,0,0,1,1-.79,10.61,10.61,0,0,1,.9-.58l.39-.23-.11.06h0L34,24l-.35.19c-.12.07-.24.13-.36.21s-.5.3-.74.45l-.38.24-.36.25c-.29.19-.57.4-.86.6a.81.81,0,0,1-.27,0l.37-.19.21-.11.21-.13.47-.28.5-.31.49-.34.12-.09h0l.1-.07h0l.23-.18.44-.36.2-.17.18-.18-.06.06-.18.14-.61.4-.18.1-.18.1a3.2,3.2,0,0,1-.39.16,1.86,1.86,0,0,1-.39.1l0,0,0,0a.83.83,0,0,1-.27,0l.74-.48.11-.07L33,24l.23-.16.47-.34.17-.14h0l.05,0,0,0h0l.2-.17.46-.38c.26-.24.52-.49.77-.75a8.12,8.12,0,0,1-.81.64,3.94,3.94,0,0,1-.72.41l-.34.12a1.13,1.13,0,0,1-.31,0l.16-.1.17-.13.38-.29.21-.16.22-.17.07-.06h0l.08-.07h0l.3-.25a13.78,13.78,0,0,0,1.58-1.57h0l0,0-.22.22-.24.22-.15.13-.16.12a3.89,3.89,0,0,1-.69.45l-.17.08a.52.52,0,0,1-.16.06.83.83,0,0,1-.3,0c.09-.07.2-.15.31-.25l.18-.15,0,0h0l.08-.07h0l.06-.05.4-.36.21-.19.21-.21a5.55,5.55,0,0,0,.42-.42c.14-.14.27-.29.4-.43l0-.05h0l0,0h0l.13-.14.09-.1.09-.11.32-.41s-.08.1-.21.23l-.23.24-.3.27-.32.26a4,4,0,0,1-.34.23,2.34,2.34,0,0,1-.44.19h-.18l.3-.27.17-.16.18-.17.38-.38.2-.21.2-.21.13-.14h0l0-.05h0l.24-.27.19-.22.19-.23.35-.45c.08-.1.14-.19.21-.29h0v0h0a.44.44,0,0,0,.08-.11L38,17h0l0,0h0l-.08.09c-.06.07-.13.16-.22.25l-.28.28a2.36,2.36,0,0,1-1.23.77c.08-.08.17-.18.28-.28l.16-.17.17-.18.16-.18h0l0-.06h0l.16-.18.38-.44.38-.46.1-.12.09-.12.08-.1v0h0L38.3,16l.33-.47c.11-.15.2-.29.29-.43l-.19.25-.1.12-.11.13-.27.3-.3.29a1.07,1.07,0,0,1-.16.14l-.15.12a1.39,1.39,0,0,1-.59.29l.05-.06h0l.06-.07h0l.48-.54.34-.42.29-.36h0l0-.06h0l0,0,.37-.48.09-.12.08-.12.17-.25c.06-.07.11-.15.16-.22h0v0l0,0h0c0-.07.09-.14.14-.2s.19-.31.27-.45l-.18.26-.21.26c-.07.1-.16.2-.25.31l-.29.31-.08.07-.07.07-.16.13a1.3,1.3,0,0,1-.57.31l.51-.62h0l0-.07h0l.33-.43.18-.24a2.07,2.07,0,0,0,.17-.24l.21-.29h0l0-.06h0l.11-.15.33-.5.3-.48h0l0,0h0l.24-.42-.18.27c-.11.15-.26.37-.44.58l-.28.32-.15.16-.15.13a1.38,1.38,0,0,1-.56.34l.25-.32.14-.19.07-.1.08-.1.23-.33h0l.05-.08h0l.38-.54.17-.25.17-.25,0-.07h0l0-.07h0l.24-.37a.57.57,0,0,1,.08-.13l.07-.12.14-.25.1-.17h0l0-.07h0L41,9.7l0,.07-.12.2-.2.27a.91.91,0,0,1-.11.16l-.12.17a6.75,6.75,0,0,1-.57.63,1.48,1.48,0,0,1-.55.36l.24-.33.14-.19.14-.21c.1-.15.21-.3.31-.46l.13-.19h0l0-.09h0l.15-.21.16-.26.16-.26.16-.26L41,9l.07-.13.29-.5.12-.24L41.54,8h0l0-.08h0l0,0s-.06.11-.17.27l-.18.29L41,8.76a1.09,1.09,0,0,0-.13.17c0,.05-.09.11-.14.17l-.28.3a1.48,1.48,0,0,1-.55.39c.07-.1.15-.21.23-.34L40.43,9c0-.07.1-.15.15-.22s.1-.16.15-.24l.3-.49h0l.31-.53.31-.5.15-.25.07-.11L42,6.57l.26-.42L42,6.39a2,2,0,0,1-.2.26L41.61,7a8.42,8.42,0,0,1-.55.64,1.67,1.67,0,0,1-.54.41L41,7.26l.31-.47.16-.24.17-.24L42,5.82l.36-.47.09-.11,0-.06,0,0,.17-.22,0,0h0l.08-.1h0l.06-.08L43,4.52,43,4.58l-.15.16-.07.07-.06.07a.94.94,0,0,1-.1.1l-.27.29-.3.3-.16.14-.15.13h0a1.8,1.8,0,0,1-.58.38c.08-.1.16-.22.26-.34l.14-.19.16-.2.36-.43,0-.06,0,0,.1-.11.2-.23c.5-.56,1-1.1,1.57-1.63l-.23.21c-.15.12-.34.29-.56.46l-.17.14-.16.13-.34.25-.17.11-.16.09a1,1,0,0,1-.29.12l.29-.31.35-.36.2-.19.21-.2.21-.2.11-.1.12-.1.23-.2.23-.2.23-.19.23-.19.85-.67,0,0-.07,0L45,1.73l-.22.14L44.64,2l-.14.09-.31.2-.31.2-.32.18-.3.15a15.23,15.23,0,0,1,.93-1.43,2,2,0,0,0,.13-.18s.09-.11.14-.17l0,0,.06-.06L44.7.74l.17-.18L45,.38h0L45.19.2l0-.05,0,0,0,0,0,0,0,0,0,0,0,0,0,0,0,0-.05,0L45,.34,44.79.5l-.18.17-.17.17L44.38.9l0,0-.17.14L44,1.22c-.45.38-.91.75-1.37,1.12,0-.1.06-.2.09-.3s.08-.22.13-.33L43,1.39c.06-.1.11-.21.16-.31s0-.09.08-.14l.07-.13A2,2,0,0,1,43.45.6l0-.08,0-.07,0,0c-.2.29-.39.58-.58.87,0,.08-.1.16-.16.24l-.09.14h0l-.07.1L42.5,2c-.06.08-.11.17-.16.25l-.08.12-.09.13c-.05.08-.1.16-.16.24l-.09.14h0L41.86,3l0,0h0l-.12.19c-.1.14-.2.28-.28.41L41.19,4a1.11,1.11,0,0,1,0-.29l.06-.17.06-.18a3.14,3.14,0,0,1,.18-.37,1.14,1.14,0,0,1,.1-.19,1.62,1.62,0,0,1,.1-.18c.13-.24.26-.45.36-.61l.16-.25-.51.7h0l-.09.12h0l-.72,1,0,0h0l-.09.12h0l-.06.09-.09.12,0,.06,0,.06-.34.44-.15.21v0h0L40,4.78h0l0,.06-.25.34a1.59,1.59,0,0,1,.2-.65L40,4.35l.11-.19.21-.36.22-.33.18-.27L40.84,3l0-.06-.16.18,0,0h0l-.12.15-.17.22,0,0,0,.06-.09.11-.3.37h0l-.07.09h0l-.38.46-.18.23-.19.23h0L39,5.27h0l-.26.33-.49.6h0l-.07.09h0s0,0,0-.07l0-.16a2.75,2.75,0,0,1,.17-.41A5.76,5.76,0,0,1,38.85,5l.23-.32.2-.26c.11-.15.19-.24.19-.24s-.23.24-.34.37L39,4.6l-.1.11,0,0h0a1.49,1.49,0,0,0-.17.18l-.39.44-.21.24h0l-.06.08h0L38,5.82l-.37.46-.17.23-.08.1h0l-.06.09h0l0,0L37,7.12c-.08.13-.16.24-.23.34a1.74,1.74,0,0,1,.17-.66,3.35,3.35,0,0,1,.2-.37,1.18,1.18,0,0,1,.11-.19,1.74,1.74,0,0,1,.11-.18l.24-.33a2,2,0,0,1,.21-.26l.2-.25-.18.19-.18.19L37.28,6h0l0,0h0l-.09.11-.09.12a2.11,2.11,0,0,0-.19.23l-.19.24L36.49,7h0l-.05.07h0l-.29.4-.3.47-.13.2h0l0,.07h0l-.08.13-.21.36A1.55,1.55,0,0,1,35.51,8c0-.12.1-.24.15-.36l0-.06h0l.19-.35A1.74,1.74,0,0,1,36,7.08l.1-.16.19-.28.14-.19h0l0-.06,0,0h0l-.13.15-.17.21L36,7l-.09.11-.09.12-.09.13h0l0,0h0a3.46,3.46,0,0,1-.22.31L35.26,8l-.16.25c-.06.1-.12.19-.17.29h0l0,.07h0c-.13.21-.26.42-.38.64l-.06.11-.06.11a2.12,2.12,0,0,0-.11.21c-.07.14-.14.26-.19.37a1.64,1.64,0,0,1,.09-.69l.06-.2c0-.06,0-.13.08-.2l.18-.39a6.82,6.82,0,0,1,.37-.65.7.7,0,0,1,.06-.09v0h0l.1-.15-.1.13h0l0,0h0l-.19.25-.32.48-.22.36h0l0,0h0l-.07.1-.3.53-.15.27c0,.08-.09.17-.13.26s-.18.34-.25.49l-.39.83a1.61,1.61,0,0,1,.06-.7,1.94,1.94,0,0,1,0-.2l0-.1s0-.07,0-.11.1-.27.16-.4a3.17,3.17,0,0,1,.17-.37.8.8,0,0,1,.08-.16h0l0,0h0l.05-.1L33.68,9l-.2.31h0l0,0h0l-.07.1c0,.08-.1.16-.14.24l-.15.26-.15.26-.07.13a.91.91,0,0,0-.07.14,1.14,1.14,0,0,0-.1.19h0l0,.05h0l-.16.31c-.09.18-.17.37-.25.54l-.23.51-.1.25h0l0,.07h0l-.21.53a1.53,1.53,0,0,1,0-.7,1.55,1.55,0,0,1,0-.21l.06-.21c0-.14.09-.28.14-.41l.15-.38c0-.06.05-.11.07-.17l.07-.14.14-.28c-.09.13-.18.29-.27.45s-.18.33-.27.51-.08.18-.13.27a.91.91,0,0,1-.07.14l-.06.14c-.08.18-.17.37-.25.56a1.86,1.86,0,0,0-.1.25h0l0,.05h0c0,.08-.07.17-.11.25l-.2.52-.09.25a1.43,1.43,0,0,1-.08.22l-.13.4a2.84,2.84,0,0,1,.18-1.55c0-.13.09-.27.13-.39l.13-.31c.07-.18.13-.3.13-.3l-.25.47-.24.53-.12.27h0v0h0l-.11.27-.22.57c0,.1-.08.19-.11.28s-.06.19-.1.29-.12.36-.17.53a2.25,2.25,0,0,0-.08.24l0,0h0l0,.09h0l0,.1c-.05.14-.09.28-.12.4a1.75,1.75,0,0,1-.05-.71c0-.14,0-.28.06-.43s.07-.28.1-.42.08-.28.12-.4l.11-.32.11-.3-.22.48a.5.5,0,0,0-.05.13l-.06.13c0,.09-.07.18-.11.28s-.15.38-.21.57-.14.39-.2.58a2.47,2.47,0,0,1-.1.29.74.74,0,0,1,0,.14h0L29,16h0s0,.06,0,.09-.11.37-.16.54a2.33,2.33,0,0,1-.07.25l-.06.23c0,.15-.07.29-.1.41a1,1,0,0,1-.07-.32c0-.06,0-.12,0-.19a1.41,1.41,0,0,1,0-.2,6.38,6.38,0,0,1,.13-.86,1.6,1.6,0,0,1,0-.21,1.33,1.33,0,0,1,.05-.19c0-.12.07-.23.09-.33a2.93,2.93,0,0,1,.11-.3,14.89,14.89,0,0,0-.62,1.69h0v0h0c-.05.15-.1.31-.14.47s-.11.39-.16.58A2.29,2.29,0,0,0,28,18l-.06.26c0,.18-.08.34-.12.49s0,.15,0,.22a1.62,1.62,0,0,0,0,.19,1.26,1.26,0,0,1-.09-.31,2.42,2.42,0,0,1,0-.39,5,5,0,0,1,.09-.87,9.88,9.88,0,0,1,.26-1c-.11.29-.22.59-.31.89h0v0h0c0,.05,0,.09,0,.14s-.12.39-.17.59-.05.2-.08.3-.05.2-.08.3-.09.39-.13.58l-.06.28,0,.14,0,.13c-.06.3-.11.61-.16.91a1.16,1.16,0,0,1-.1-.28.59.59,0,0,0,0-.13,2.64,2.64,0,0,1,0-.29c0-.14,0-.28,0-.43s0-.15,0-.22l0-.22c0-.28.1-.55.14-.74s0-.17.06-.23l0-.08-.09.24v.05h0v0h0l-.06.19-.15.56c0,.1-.06.2-.08.3a2.64,2.64,0,0,0-.07.3c-.05.2-.09.4-.14.6s-.08.4-.11.59-.07.38-.1.55,0,.17,0,.25a1.5,1.5,0,0,1,0,.24c0,.15,0,.29-.05.42l-.05-.1,0-.08a1.94,1.94,0,0,1-.09-.52v-.1a.41.41,0,0,1,0-.11v-.21l0-.44.06-.41a2.19,2.19,0,0,1,.06-.33,2,2,0,0,1,0-.21h0l0-.08h0v0h0v0h0c-.05.14-.09.29-.14.45s-.09.37-.13.56-.09.4-.13.6-.08.4-.11.6-.07.4-.1.59-.06.38-.08.56,0,.34-.06.49,0,.15,0,.21,0,.12,0,.17h0v0a.52.52,0,0,1-.07-.15.88.88,0,0,1-.05-.15,3.25,3.25,0,0,1-.07-.38,6.32,6.32,0,0,1,0-.87c0-.28.06-.54.09-.74s0-.1,0-.15h0c0-.05,0-.08,0-.11v0h0l0,.08h0a4.26,4.26,0,0,0-.11.42l-.06.27a1.5,1.5,0,0,0-.06.29c0,.2-.08.4-.11.6s0,.2-.05.3,0,.2-.05.3c-.05.38-.1.77-.14,1.14s-.05.6-.08.91c0,0-.05-.08-.07-.13a.17.17,0,0,0,0-.05,1.75,1.75,0,0,1-.12-.5,2.86,2.86,0,0,1,0-.42c0-.15,0-.29,0-.44a1.21,1.21,0,0,0,0-.19,2,2,0,0,0,0-.23v0c0-.06,0-.11,0-.16s0-.07,0-.11,0-.17,0-.23a.45.45,0,0,0,0-.08,1.6,1.6,0,0,1-.05.21h0v0l0,.16h0s0,.07,0,.11-.07.37-.11.56c-.07.4-.12.8-.17,1.2l0,.3c0,.05,0,.1,0,.15a.71.71,0,0,1,0,.14c0,.19,0,.38,0,.55s0,.34,0,.49,0,.15,0,.21v.2a1.65,1.65,0,0,1-.24-.67c0-.12,0-.26,0-.39v-.25a1.48,1.48,0,0,1,0-.21v-.21c0-.06,0-.13,0-.19a2.88,2.88,0,0,1,0-.33c0-.2,0-.32,0-.32a15.9,15.9,0,0,0-.32,2.27c0,.2,0,.39-.05.58a2.46,2.46,0,0,1,0,.28c0,.09,0,.18,0,.27l0,.75h0v.14a1.55,1.55,0,0,1-.26-.65s0-.11,0-.16l.06-.23c0-.07,0-.13,0-.2l0-.09,0-.09a2.14,2.14,0,0,1-.07.23c0,.1-.06.19-.1.29,0-.06,0-.11,0-.17s0-.29,0-.43v-.07a8.56,8.56,0,0,0,.23-1.12l-.05.22q0,.1-.06.24l0,.13c0,.05,0,.1,0,.15a.25.25,0,0,0,0,.07c0-.13,0-.25,0-.35a3.06,3.06,0,0,1,0-.31l0,.12,0,.12a2.51,2.51,0,0,1,0,.27c0,.13,0,.28-.05.42l-.12.27a1.84,1.84,0,0,1-.3.48l.05-.14a1,1,0,0,1,.05-.16c0-.11.07-.24.1-.36s.07-.26.11-.4l0-.1s0-.07,0-.11a1.6,1.6,0,0,0,.05-.21l.12-.57v0l0-.17v0a.15.15,0,0,1,0-.07c0-.13,0-.26.05-.39l0-.17a.91.91,0,0,1,0-.17v.06s0,.09,0,.15l-.12.5a2.46,2.46,0,0,1-.09.29c0,.1-.07.2-.11.3a1.54,1.54,0,0,1-.27.46c.06-.22.11-.43.16-.64s.1-.52.15-.78a1.42,1.42,0,0,0,0-.2,1.5,1.5,0,0,0,0-.2c0-.1,0-.2,0-.29h0V25h0c0-.05,0-.11,0-.16s0-.12,0-.18,0-.22,0-.33,0,.08,0,.21,0,.29-.08.47a3.7,3.7,0,0,1-.16.57,1.89,1.89,0,0,1-.11.25.91.91,0,0,1-.13.19l0-.13,0-.15c0-.1,0-.21.05-.33s0-.24.06-.36,0-.26.05-.39l0-.39a2.17,2.17,0,0,0,0-.26h0v-.09h0c0-.13,0-.25,0-.36s0-.22,0-.31v.19c0,.06,0,.13,0,.21l0,.25a2.56,2.56,0,0,1-.05.27l0,.14s0,0,0,.06a.64.64,0,0,1,0,.07,1.57,1.57,0,0,1-.21.43q0-.12,0-.27a.77.77,0,0,0,0-.15c0-.06,0-.11,0-.17l0-.35c0-.12,0-.24,0-.37s0-.25,0-.37v-.1h0V23h0v0a1.09,1.09,0,0,0,0-.18c0-.11,0-.23,0-.34a.76.76,0,0,0,0-.15c0-.06,0-.1,0-.15v.05s0,.08,0,.13,0,.28,0,.45,0,.08,0,.13,0,.09,0,.13a2,2,0,0,1-.05.26,1.2,1.2,0,0,1-.19.41c0-.19,0-.38,0-.56v-.83h0v0a1.09,1.09,0,0,0,0-.18c0-.12,0-.24,0-.35s-.06-.42-.1-.63a3.16,3.16,0,0,1,0,.61,2.84,2.84,0,0,1,0,.51l-.06.22a.55.55,0,0,1-.1.17.37.37,0,0,0,0-.11v-.13c0-.1,0-.2,0-.3v-.16a1,1,0,0,1,0-.17v-.05h0v-.06h0c0-.08,0-.16,0-.23a8.07,8.07,0,0,0-.21-1.29h0v0s0,.07,0,.18,0,.12,0,.19a.45.45,0,0,0,0,.11v.12a2.68,2.68,0,0,1,0,.49.43.43,0,0,1,0,.11l0,.1a.54.54,0,0,1-.08.17c0-.07,0-.15,0-.24s0-.09,0-.14v0h0V21.1h0v-.05c0-.1,0-.21,0-.32a.88.88,0,0,0,0-.16,1.11,1.11,0,0,1,0-.17l-.06-.35c0-.11-.05-.22-.07-.33v0h0v0h0l0-.1a.24.24,0,0,0,0-.08.31.31,0,0,0,0-.08c0-.1-.06-.19-.08-.28s0,.07,0,.17a1.06,1.06,0,0,1,0,.19l0,.22c0,.08,0,.16,0,.24v.24a1.06,1.06,0,0,1-.06.28s0,0,0,0l0,.06q0-.11,0-.24A5802707427593.3,5802707427593.3,0,0,1,21,20c0-.1,0-.2,0-.31l0-.17,0-.16,0-.11h0v0h0c0-.07,0-.13,0-.2s0-.11,0-.17,0-.11,0-.16a2.81,2.81,0,0,0-.1-.31l-.06-.19h0l0-.08,0,.09h0v0h0l0,.06c0,.05,0,.11,0,.18a1.7,1.7,0,0,1,0,.22,1.33,1.33,0,0,1-.05.84,2.23,2.23,0,0,0,0-.23.68.68,0,0,0,0-.14l0-.14,0-.13h0v-.05h0l0-.13c0-.1-.05-.21-.08-.32l-.09-.34,0-.08,0-.08,0-.06h0v0h0l0-.07a2.83,2.83,0,0,0-.11-.31,1.82,1.82,0,0,0-.11-.28,1,1,0,0,1,.06.17l0,.08,0,.1c0,.07,0,.14.05.22s0,.16,0,.23a.49.49,0,0,1,0,.12s0,.08,0,.11a.87.87,0,0,1-.06.36c0-.13-.07-.31-.12-.5s0-.2-.08-.3l-.08-.26h0v0h0v0c0-.11-.07-.22-.1-.33l0-.08,0-.08-.06-.17-.06-.16h0a.78.78,0,0,1-.05-.14l-.12-.28s0,.07.06.17a1.67,1.67,0,0,0,.05.18l.06.22a2,2,0,0,1,0,.24V17a.11.11,0,0,1,0,.05.49.49,0,0,1,0,.12.73.73,0,0,1,0,.35c0-.12-.08-.28-.13-.45h0v-.05c0-.09-.06-.2-.09-.3l-.05-.16-.06-.17a1.46,1.46,0,0,0-.07-.19h0v0h0l0-.1L19,15.77a2.88,2.88,0,0,0-.13-.31h0v0h0l-.12-.26.07.17c0,.11.09.26.13.41L19,16a.36.36,0,0,1,0,.11s0,.08,0,.12a.75.75,0,0,1,0,.35l-.07-.23,0-.13,0-.07,0-.07a2.09,2.09,0,0,1-.08-.23h0l0-.05h0c0-.13-.08-.25-.13-.37l-.06-.17-.06-.17-.14-.33,0-.08,0-.08-.07-.16-.05-.11h0v0h0l-.07-.14,0,0a.51.51,0,0,1,0,.1h0v0a1.89,1.89,0,0,1,.06.18.49.49,0,0,1,0,.11s0,.08,0,.12a4,4,0,0,1,.11.47.83.83,0,0,1,0,.36c0-.07-.05-.15-.08-.24s0-.08,0-.13a.78.78,0,0,1-.05-.14c0-.1-.07-.21-.11-.31L18,14.41l-.06-.17-.07-.17-.06-.17,0-.08,0-.08c0-.12-.08-.22-.12-.33l-.07-.15,0-.07h0l0,0h0v0l.07.18s0,.12.06.19l.07.22,0,.12a.35.35,0,0,1,0,.13c0,.08,0,.16.05.23a.72.72,0,0,1,0,.36c0-.07-.05-.15-.07-.23s-.06-.18-.1-.28a.88.88,0,0,0-.05-.15.75.75,0,0,0-.05-.16l-.11-.33h0l-.12-.34c0-.12-.08-.23-.11-.34l-.06-.16a.24.24,0,0,0,0-.08l0-.08L17,12.11a1.37,1.37,0,0,1,0,.17c0,.05,0,.12,0,.19a2.25,2.25,0,0,0,.05.22c0,.16.07.33.1.48a.86.86,0,0,1,0,.36L17.08,13,17,12.7l0-.17a1.36,1.36,0,0,0,0-.17c0-.11,0-.23-.08-.34s-.05-.23-.07-.34l0-.09v-.08l0-.16h0v-.08h0l0-.06a.68.68,0,0,1,0-.14v0a1.23,1.23,0,0,1,0,.13s0,.11,0,.18l0,.23,0,.24s0,.08,0,.12v.11h0a1.34,1.34,0,0,1,0,.37c0-.07,0-.16,0-.24l0-.14a.77.77,0,0,1,0-.15l-.06-.33v-.15h0v0l0-.17c-.06-.43-.11-.87-.17-1.31,0,0,0,.07,0,.18s0,.25,0,.41v.12a.49.49,0,0,1,0,.12v.33s0,.07,0,.1,0,.11,0,.15,0-.16,0-.25,0-.18,0-.29,0-.1,0-.16h0s0-.11,0-.16v-.17a.28.28,0,0,1,0-.09v-.08c0-.06,0-.12,0-.18a1,1,0,0,1,0-.17c0-.06,0-.12,0-.17s0-.12,0-.17c0-.21,0-.41,0-.62v.65a1.47,1.47,0,0,1,0,.21v.19a.88.88,0,0,1,0,.17C16.1,9.75,16,9.39,16,9l0-.14s0-.09,0-.13V8.69a.77.77,0,0,0,0-.15l0-.15c0-.05,0-.1,0-.16h0a.59.59,0,0,1,0-.14v0s0,.1,0,.16,0,.1,0,.15l0,.15c0,.05,0,.1,0,.15v.07c0,.05,0,.09,0,.14V9c0,.34,0,.69,0,1,0-.06,0-.12,0-.19a1.6,1.6,0,0,1-.05-.21c0-.08,0-.15,0-.23s0-.15,0-.22l0-.1,0-.1,0-.16V8.69l.09.68,0,.18,0,.11h0v.07c0,.07,0,.13,0,.19l0,.18v.1s0,.06,0,.09a1,1,0,0,0,0,.17l0,.11h0v.09h0l0,.14c0,.11,0,.21,0,.3s0,.18,0,.25a1.26,1.26,0,0,1-.07-.16l0-.11,0-.11-.06-.25a.69.69,0,0,0,0-.13.5.5,0,0,1,0-.12c0-.17-.05-.33-.07-.45a1.11,1.11,0,0,1,0-.18c0,.18,0,.36,0,.54h0v.09h0c0,.25.05.5.08.75v0h0v.08h0v.25l0,.33s0,.1,0,.15v0h0v.08h0v0l0,.25a1.36,1.36,0,0,1-.13-.39l0-.12s0-.09,0-.13a2.34,2.34,0,0,1,0-.26l0-.23a1.68,1.68,0,0,1,0-.2.76.76,0,0,1,0-.14v-.05a.76.76,0,0,1,0,.15v0h0s0,.08,0,.12a.86.86,0,0,0,0,.16v.17a2.83,2.83,0,0,0,0,.29h0v.07c0,.12,0,.24,0,.36a1.09,1.09,0,0,1,0,.18,1,1,0,0,1,0,.17h0v.07h0a2,2,0,0,0,0,.25l0,.47h0v.08h0a1.09,1.09,0,0,1-.14-.4,4.29,4.29,0,0,1-.07-.5,2.32,2.32,0,0,1,0-.24c0-.08,0-.14,0-.2a1.41,1.41,0,0,0,0-.18v.38a.22.22,0,0,1,0,.08v0h0a.61.61,0,0,1,0,.14V13c0,.06,0,.13,0,.19h0v.06h0a.37.37,0,0,0,0,.11c0,.12,0,.25,0,.36s0,.12,0,.17,0,.06,0,.08h0V14h0v0a2.34,2.34,0,0,0,0,.3c0,.09,0,.18,0,.25a1,1,0,0,1-.18-.39,1.82,1.82,0,0,1-.07-.25l0-.14s0-.08,0-.13a1.05,1.05,0,0,1,0-.24,1.62,1.62,0,0,1,0-.21c0-.12,0-.19,0-.19a.76.76,0,0,1,0,.15v.16c0,.1,0,.21,0,.31h0v0h0a.19.19,0,0,0,0,.08v.1c0,.06,0,.12,0,.18a1.11,1.11,0,0,0,0,.19,1.11,1.11,0,0,0,0,.19h0v0h0c0,.11,0,.21.05.31s.05.24.08.35,0,.1,0,.15h0v.05h0a.29.29,0,0,0,0,.09c0,.1.06.19.08.27a1.45,1.45,0,0,1-.24-.4,1,1,0,0,1-.09-.24l0,0-.07-.25,0-.13a.5.5,0,0,0,0-.12l0-.21c0-.07,0-.12,0-.15v0h0v.12c0,.06,0,.12,0,.17s0,.12,0,.18,0,.06,0,.09,0,.07,0,.1,0,.07,0,.1h0v0h0a2,2,0,0,0,0,.24,1.17,1.17,0,0,0,.05.2,1.46,1.46,0,0,0,0,.2l.06.22h0v.05h0l.15.48,0,.08,0,.08.06.16a.78.78,0,0,1,0,.14h0l0,0h0L16,17a1.43,1.43,0,0,1-.28-.38l-.06-.13a.83.83,0,0,1-.07-.13c0-.1-.08-.19-.11-.28a3,3,0,0,1-.16-.49l0-.07v0h0l0-.12a.43.43,0,0,0,0,.11h0v0h0a1.55,1.55,0,0,0,0,.21,3.06,3.06,0,0,0,.1.38c0,.09.05.19.08.28h0v0h0l0,.08c0,.14.09.27.14.41a1.46,1.46,0,0,0,.07.19,1.07,1.07,0,0,0,.07.19.49.49,0,0,0,0,.11h0l0,.05h0a1.19,1.19,0,0,0,.08.2c.07.2.16.39.24.58a1.45,1.45,0,0,1-.3-.36.75.75,0,0,0-.07-.12.25.25,0,0,0,0-.07l0-.07-.13-.27c0-.09-.07-.18-.11-.26s0-.08,0-.12h0v0h0l0-.08c0-.13-.07-.21-.07-.21l.07.25h0v0h0a.19.19,0,0,0,0,.07l.06.19.06.2a1.59,1.59,0,0,1,.07.2.42.42,0,0,0,0,.1l0,.1.06.14h0v0h0l.09.23c0,.13.1.26.16.38s.1.25.15.36l.08.16h0l0,.05h0c.06.12.11.24.17.35a1.11,1.11,0,0,1-.31-.33.83.83,0,0,1-.08-.12L16,18.88l-.14-.27-.12-.26a1.17,1.17,0,0,0-.05-.11l0-.11c-.05-.12-.08-.21-.08-.21s.07.23.11.36a.69.69,0,0,1,.05.13h0v0h0c0,.07.05.15.08.23s.05.13.08.19a1,1,0,0,0,0,.1l0,.1c.06.13.11.27.17.39s.05.12.08.17h0l0,0h0a.89.89,0,0,1,.08.17l.17.34c0,.06.06.11.08.16a1.09,1.09,0,0,1,.08.15l.13.25a2,2,0,0,1-.64-.81c0-.08-.09-.17-.13-.25l-.1-.21c-.06-.13-.09-.21-.09-.21s.08.23.13.35.1.25.15.37l.09.19h0l.09.18.18.38.09.19.1.18.18.33.09.15v0h0l0,.05h0l0,.06.14.24a1,1,0,0,1-.34-.28,1.84,1.84,0,0,1-.17-.22c-.06-.08-.11-.17-.16-.25s-.1-.16-.14-.24a2.21,2.21,0,0,1-.11-.21l-.1-.2c0,.11.09.22.14.34l0,.09,0,.09.09.19c.06.12.12.25.19.37s.13.25.2.37a1.62,1.62,0,0,0,.1.18s0,0,0,.08h0l0,0h0l0,.05.19.32.09.15.09.13a2.3,2.3,0,0,0,.15.23l-.17-.09L17.29,23l-.09-.09a3.83,3.83,0,0,1-.36-.44l-.07-.12-.07-.11-.12-.2-.11-.2A10.38,10.38,0,0,0,17,23h0l0,0h0l.17.28.21.33.11.16.1.14c.06.1.13.19.18.27l.09.11a.86.86,0,0,0,.07.1.47.47,0,0,1-.17-.07.77.77,0,0,1-.19-.14,3.6,3.6,0,0,1-.37-.41,6.17,6.17,0,0,1-.39-.6c.1.2.2.39.31.57h0l0,.09c.06.11.14.22.21.34l.11.17.11.16c.08.11.15.22.23.32L18,25l.06.07.05.07.36.44a.37.37,0,0,1-.16,0l-.07,0-.14-.1-.2-.17-.09-.1L17.7,25c-.12-.14-.22-.28-.3-.38l-.08-.13,0-.05a1.09,1.09,0,0,0,.08.15v0h0l.07.12.2.32.11.16.12.16a3.71,3.71,0,0,0,.23.32,3.25,3.25,0,0,0,.23.29l.22.27.11.12.1.1.17.19h-.11a.8.8,0,0,1-.27-.12l-.06,0-.05,0-.1-.09-.19-.18L18,26a1.53,1.53,0,0,1-.13-.16l-.09-.11h0l0-.05h0l0,0h0c.05.08.1.17.16.25s.14.2.21.3a3.55,3.55,0,0,0,.23.31l.24.29c.09.09.17.19.24.27a2.72,2.72,0,0,0,.24.24l.21.21.09.09.07.06h-.17a1,1,0,0,1-.21-.09,1.85,1.85,0,0,1-.4-.29c-.13-.12-.24-.24-.32-.33L18.3,27h0l-.07-.08,0,.05h0c.05.07.1.15.16.22l.1.14.11.14a3.33,3.33,0,0,0,.25.28l.12.14a1.59,1.59,0,0,0,.13.13c.16.16.32.32.49.46s.25.21.38.31h0l0,0h-.14a.92.92,0,0,1-.26-.07l-.22-.11-.2-.14L19,28.33l0,0-.14-.13-.09-.1,0,0,.08.11h0v0l.06.07h0l0,.05c.07.09.15.17.23.26s.33.33.51.49l.13.11.06.06.06.05.25.19.23.16.1.06.06,0h0l0,0a.65.65,0,0,1-.41,0L20,29.63l-.08,0-.14-.08-.1-.07-.09-.06-.15-.13-.14-.12.1.1-.92-.81a27.58,27.58,0,0,0-4.38-3,26.78,26.78,0,0,0-2.42-1.15c-.41-.17-.83-.34-1.25-.48l-.32-.11-.16-.06-.16-.05-.65-.19a21.31,21.31,0,0,0-2.63-.6l-.34-.06-.16,0-.17,0-.68-.08-.16,0H4.82l-.34,0-.68-.05H3.74a.83.83,0,0,0-.83.83.57.57,0,0,0,0,.13h0a.84.84,0,0,0,.82.69H5l.64,0h.15l.16,0,.32,0a21.27,21.27,0,0,1,2.52.38l.63.14.15,0,.16,0,.31.09c.41.1.82.23,1.23.36q1.21.41,2.4.93a26.42,26.42,0,0,1,4.49,2.59l.61.46c.15.11.3.22.44.34.34.27.67.54,1,.83l.06.05-.3-.19a1,1,0,0,1-.14-.11l.05.05,0,0-.06,0-.06,0a1,1,0,0,1,.14.12,2.25,2.25,0,0,1,.31.31,1.56,1.56,0,0,1,.16.2c0,.08.1.16.14.24a1.46,1.46,0,0,1,.07.19l0,0-.14-.09.2.16a1,1,0,0,1,0,.23l-.36-.4L20.22,31l-.12-.11a2.73,2.73,0,0,0-.25-.23l-.29-.23h0l-.13-.09h0a3.21,3.21,0,0,0-.68-.38l.16.1a1.12,1.12,0,0,1,.15.11l.09.06.09.08a2.44,2.44,0,0,1,.33.39,1.11,1.11,0,0,1,.17.43L19.65,31a.38.38,0,0,0-.09-.09l-.21-.18-.25-.19a.18.18,0,0,0-.07-.05L19,30.47l-.15-.09-.42-.24h0l-.13-.06h0l-.05,0-.29-.13-.15-.05-.13,0,0,0,.12.05a3,3,0,0,1,.36.21l.19.15a1.45,1.45,0,0,1,.17.18.86.86,0,0,1,.2.39l-.42-.28a4.86,4.86,0,0,0-.56-.3l-.16-.07-.15-.07L17.21,30h0l-.08,0h0L17,30l-.15,0-.3-.06.18.05c.1,0,.24.09.38.16a1.8,1.8,0,0,1,.39.27.8.8,0,0,1,.15.17.48.48,0,0,1,.08.18l-.09-.05-.11,0-.25-.12L17,30.36l-.31-.11c-.11,0-.22-.07-.33-.09l-.23-.05h0l-.08,0h0L15.67,30l-.3,0,.18,0,.18.05a1.11,1.11,0,0,1,.22.07,1,1,0,0,1,.22.09l.1.06.05,0,.05,0a.75.75,0,0,1,.26.31l-.21-.08-.13,0-.13,0-.3-.08-.33-.07-.34-.06H15l-.17,0h-.46l.42.07.11,0,.12,0,.22.1a.65.65,0,0,1,.28.26L15,30.65h-.16l-.16,0-.33,0h-.72l-.67,0a3.8,3.8,0,0,1,.63,0,3.23,3.23,0,0,1,.47.12.67.67,0,0,1,.19.1.4.4,0,0,1,.13.13l-.11,0h-.13l-.28,0h-.67a7.25,7.25,0,0,0-1.39.12h.62A2.41,2.41,0,0,1,13,31l.11,0,.09.05a.4.4,0,0,1,.14.11H12.07l-.37,0-.38,0h-.06l-.12,0h-.09l-.08,0-.33.08.2,0,.21,0h.51a1.75,1.75,0,0,1,.24,0,1,1,0,0,1,.28.09l0,0a.1.1,0,0,1,.05,0h-.54l-.34,0-.18,0-.18,0-.12,0h0l-.22,0-.19,0-.19,0-.36.08-.22.05h0l-.1,0,.11,0h0l.07,0,.22,0,.25,0A1.54,1.54,0,0,1,11,32l-.25,0-.15,0-.15,0-.15,0h-.05l-.15,0-.36.06-.38.07-.1,0-.09,0h-.1L9,32.3l-.36.09-.32.1.2,0,.09,0,.12,0,.25,0,.27,0h.26a.84.84,0,0,1,.4.1H9.84l-.47.07L9,32.58c-.1,0-.19,0-.29.06H8.66l-.38.09-.09,0-.1,0-.18.05-.18,0h0l-.15,0-.32.11.2,0,.21,0,.25-.05.28,0h.26a1,1,0,0,1,.41.06l-.5.1H8.28l-.34.08-.18,0-.18,0-.22.05h0l-.05,0h0l-.11,0-.37.11-.34.11h0l-.28.1.19,0a3.48,3.48,0,0,1,.46-.11l.27-.05h.27a1,1,0,0,1,.42,0l-.25.06-.14,0-.08,0-.08,0L7,33.61H6.93l-.4.1-.18.05-.19,0,0,0h0l-.27.08-.09,0-.08,0-.17,0-.11,0h0l0,0h0l-.14,0h0l.11,0h0l.2-.06.12,0,.13,0a4.85,4.85,0,0,1,.53-.08,1.37,1.37,0,0,1,.43,0L6.52,34l-.15,0-.15,0-.33.08-.14,0h0l-.06,0h0l-.15,0-.18.06-.18,0L5,34.42l-.09,0-.08,0-.33.11-.15,0-.07,0h0l0,0h0l.18-.06.2,0,.24-.06.13,0,.13,0,.27,0a1.44,1.44,0,0,1,.43,0l-.24.06-.29.08-.16,0-.16,0-.33.09h0l-.35.11-.33.1-.16,0-.08,0-.08,0-.28.08.18,0,.19,0,.24,0L4.44,35a2,2,0,0,1,.44,0l-.51.14-.32.08-.17,0-.17,0-.35.07L3,35.4H2.85l-.16,0h0l-.08,0h0l-.15,0h.19l.2,0,.24,0,.27,0h.26a1.57,1.57,0,0,1,.45,0l-.24,0-.14,0-.16,0-.32,0H3l-.18,0c-.45.05-.91.09-1.37.11H2.86l.21,0-.26,0H1.05l-.69,0H.9l.24,0,.24,0,.25,0,.22,0a8.57,8.57,0,0,1-.88.18l-.11,0h.21l1.07,0L2,36.35l-.14.06-.16.05-.15,0-.07,0H1.45l-.11,0h-.1c.14,0,.32,0,.5-.08l.14,0H2l.14,0,.15,0,.08,0h.07l.15,0,.09,0h.08l.12,0,.25-.05.23,0a.21.21,0,0,1-.1.08l-.07,0-.08,0L3,36.41l-.1,0-.1,0-.34.08-.15,0,.45-.06H2.8l.64-.1H3.6l.08,0h.08l.3-.05.13,0h.14l.23,0a.61.61,0,0,1-.28.15l-.08,0h0l-.1,0-.21.05-.2,0-.16,0h.41l.26,0h.07l.32,0,.16,0H5l.23,0,.42-.05H5.7a.65.65,0,0,1-.29.15,2.71,2.71,0,0,1-.43.1l-.21,0-.17,0-.16,0H5l.32,0h.34l.32,0,.15,0H6.3l.26,0,.21,0a.52.52,0,0,1-.27.17l-.2.07-.1,0-.11,0-.21,0-.18,0h.12l.27,0h.36l.16,0,.16,0h.05l.26,0,.28-.05.12,0h0l.08,0,.2-.05a.66.66,0,0,1-.25.2l-.19.07h0l-.2.05-.11,0-.09,0-.17,0-.12,0h.64l.2,0,.15,0,.15,0,.17,0H8l.36-.1h.06l.07,0,.11,0,.1,0h0l.05,0a.55.55,0,0,1-.25.22l-.09.05-.09,0-.2.08-.36.09H7.76l-.09,0h.11l.16,0,.29-.05.21,0h.09l.29-.08.15,0,.14,0,.08,0h0l.15,0a3.33,3.33,0,0,0,.43-.16.7.7,0,0,1-.24.25l-.09.05-.05,0,0,0-.2.09L9,36.91,8.84,37l-.15,0,.18,0H9l.13,0,.14,0,.15,0,.07,0,.07,0,.1,0h0l.16-.06.28-.1.26-.1.12,0h0l.27-.12a.83.83,0,0,1-.24.27l-.09.06-.09.05-.19.1-.18.08-.08,0-.07,0-.15,0,.25-.06.1,0h0l.16,0,.14,0,.08,0,.07,0,.28-.11.12,0h0l.12-.05.26-.12.11-.06.11-.06.19-.09a1.34,1.34,0,0,1-.6.53l-.17.1-.16.07-.14.05.24-.07.27-.1.14,0h0l.13,0,.28-.13.14-.06.13-.07.25-.14.12-.06,0,0h0l0,0h0l0,0,.19-.11a1.17,1.17,0,0,1-.24.32,1.24,1.24,0,0,1-.18.14l-.18.13-.18.11-.15.08-.14.06.24-.09.07,0,.06,0,.14-.06.27-.13.28-.15.14-.07.06,0h0l0,0h0l0,0,.25-.16.12-.07.11-.07.19-.13a1.62,1.62,0,0,1-.1.18.27.27,0,0,1-.07.08l-.07.09a3.37,3.37,0,0,1-.36.3l-.09.06-.09.06-.15.09-.14.08a9,9,0,0,0,.82-.41h0l.22-.13.27-.17.13-.09.12-.08.23-.16.1-.07.09-.07a1.62,1.62,0,0,1-.1.18.9.9,0,0,1-.15.19,2.76,2.76,0,0,1-.36.33,4.11,4.11,0,0,1-.47.32l.43-.22h0l.07,0,.27-.17.14-.09a.71.71,0,0,0,.14-.1l.28-.19.13-.09.06-.05.06,0c.17-.12.31-.24.43-.33l-.1.19,0,0a1.09,1.09,0,0,1-.13.17l-.18.2-.1.08-.09.09-.33.26-.11.07,0,0,.12-.06h0a.31.31,0,0,1,.1-.05l.26-.17L15,36l.14-.1.29-.21.28-.21.26-.21.12-.1.11-.09,0,0,.13-.05a1.75,1.75,0,0,1-.21.32l0,.05-.05,0-.09.1-.15.14-.1,0h0l-.08,0-.48.24-.23.12-.2.12.07,0,.2-.09.58-.23-.15.12-.1.08h0l0,0h0l0,0h0l.22-.13.17-.12.35-.1.31-.07-.06,0h0l-.06,0h0v0l0,0h0l.12-.09h.05a1.64,1.64,0,0,1,.67,0l-.8.31-1,.43-.25.12-.26.13-.38.19h0l-.13.06,0,0h0L14,37l-.23.13-.42.26.26-.14c.17-.08.39-.19.64-.28a5,5,0,0,1,.78-.24,2.58,2.58,0,0,1,.36,0,1.42,1.42,0,0,1,.31,0l-.17.07-.19.08-.42.2-.48.21-.5.26-.51.26-.34.2h0l-.12.07h0l-.46.29-.4.27.25-.15.29-.14a2.68,2.68,0,0,1,.34-.16l.38-.16.19-.06.1,0,.09,0a1.58,1.58,0,0,1,.67,0l-.35.17-.2.09-.22.11-.46.25-.49.27-.49.29-.24.15-.24.15-.44.3-.21.15-.19.15.07,0,.18-.12.62-.33.18-.09.19-.08a2.43,2.43,0,0,1,.38-.13,1.58,1.58,0,0,1,.65-.08l-.74.41-.11.06-.11.07-.23.13L11.5,40l-.18.12h0l-.06,0h0l-.21.15-.47.32q-.45.33-.81.63s.38-.27.84-.53a4.32,4.32,0,0,1,.73-.33,1.89,1.89,0,0,1,.35-.1,1.1,1.1,0,0,1,.31,0l-.16.1-.18.1-.39.24L11,40.9l-.23.14-.07.05h0l-.08.06h0l-.3.21a15.21,15.21,0,0,0-1.67,1.32h0l.24-.18c.07-.05.15-.12.25-.18l.15-.11.17-.1a6,6,0,0,1,.71-.37l.18-.06.17,0a1.06,1.06,0,0,1,.3,0l-.32.21-.19.12-.19.14-.43.3-.22.16-.22.17-.44.35-.43.37-.05,0h0l0,0-.14.12-.1.09L8,43.82l-.35.34L7.88,44l.25-.2.3-.22.35-.21a2.31,2.31,0,0,1,.35-.18A2.37,2.37,0,0,1,9.58,43h.19l-.31.23-.18.13a1.33,1.33,0,0,0-.19.14l-.41.32L8.47,44l-.21.18-.14.12h0l0,0h0l-.25.22-.21.19-.2.19c-.14.13-.26.25-.38.38l-.23.24h0l-.09.1.12-.12h0l.08-.08.24-.21.3-.23a2.65,2.65,0,0,1,1.3-.62l-.3.24-.17.14L8.11,45l-.17.14h0l0,0h0l-.16.14-.41.38c-.14.12-.28.26-.41.39l-.1.1-.1.1-.07.07h0l0,0-.09.1c-.13.13-.25.27-.36.4s-.22.25-.31.37L6,47l.11-.1.12-.12.28-.25.32-.24L7,46.19a1,1,0,0,1,.17-.1,1.42,1.42,0,0,1,.61-.22l-.05.05h0l-.06,0-.52.46c-.11.12-.24.24-.37.36l-.31.31h0l0,0h0l0,0L6,47.59,6,47.7l-.1.1L5.67,48l-.17.21,0,0h0l-.15.18L5,48.82a2.65,2.65,0,0,1,.2-.22l.21-.23c.08-.09.18-.17.27-.26L6,47.84l.08-.06.08-.06.16-.1a1.37,1.37,0,0,1,.6-.24l-.54.53h0l0,.06L6,48.34l-.18.2-.19.21L5.42,49h0l0,0h0l-.11.13-.34.44L4.6,50h0l0,0h0l-.25.37.19-.23A4.79,4.79,0,0,1,5,49.71l.29-.28.15-.12.16-.12a1.46,1.46,0,0,1,.59-.27l-.26.28-.15.16-.08.09-.08.09-.24.29h0l0,.06h0l-.38.47-.17.22-.18.23,0,.06h0l0,.06h0l-.24.33-.08.12-.07.11-.15.22-.09.15h0l0,.06h0l-.12.21.05-.07a2,2,0,0,1,.12-.17l.19-.25.12-.14.13-.15a4.94,4.94,0,0,1,.57-.55,1.47,1.47,0,0,1,.57-.29l-.2.24,0,0h0v0a1.15,1.15,0,0,0-.14.17l-.15.19-.32.4-.12.18h0l-.06.07h0l-.14.2-.16.23L4,52.47l-.16.24,0,0h0l0,.06,0,0-.07.11-.28.47a2.26,2.26,0,0,0-.11.22l-.06.1h0l0,.08h0l0,0,0,0,0-.06.09-.15a3.1,3.1,0,0,1,.18-.26l.23-.3.12-.15A1,1,0,0,1,4,52.73l.28-.28a1.48,1.48,0,0,1,.56-.32l-.23.3-.17.24h0l0,0-.07.1L4.16,53,4,53.23l-.3.45h0l-.05.07h0l-.25.41-.28.47,0,0,0,.08h0l-.06.1L2.94,55l-.07.11c-.09.14-.17.27-.24.4l.16-.23L3,55l.22-.29a5,5,0,0,1,.52-.59,1.38,1.38,0,0,1,.54-.36c-.13.19-.28.43-.47.7l-.28.44-.15.23-.16.22L3,55.7H3l-.07.1h0l0,0-.32.44-.08.11,0,.06,0,.05-.15.2,0,0h0l-.07.09h0l-.06.08L2,57.07,2,57l.14-.15.06-.07,0-.06.09-.1a3.32,3.32,0,0,0,.25-.27l.28-.28L3,56l.14-.13a1.6,1.6,0,0,1,.56-.33l-.2.27h0l0,0L3.38,56l-.15.19-.32.41,0,.05-.05.06-.07.08h0l0,0-.07.09h0l-.1.12-.72.83,0,0-.65.73.21-.2.5-.45L2,57.81l.15-.13a3.33,3.33,0,0,1,.32-.24l.16-.1.15-.08a1,1,0,0,1,.28-.1l-.26.3-.32.34L2.34,58l-.19.19-.19.2-.1.09-.1.1-.2.2-.2.19-.2.19-.2.19L.23,60l.05,0,0,0,.07-.06.19-.14.12-.09.12-.09.28-.19.28-.2.3-.17A1.75,1.75,0,0,1,2,58.85c-.21.49-.45,1-.71,1.45l-.09.18-.1.18,0,0,0,.07-.13.18-.13.19-.12.18v0h0l-.11.18,0,0,0,.05,0,0v0l0,0ZM20.26,30l.27.19.13.09.12.07.36.21h0l.07,0a.54.54,0,0,1-.22,0l-.17-.14a1,1,0,0,1,.13.14h-.14l-.17-.18-.23-.24L20,29.8Zm1.26,1.89h0l-.13-.19.09,0,.09,0a.83.83,0,0,1,0,.22Zm1.76.59h-.06l.05,0,.1,0h-.09Zm-5.17,1.71h0l.27-.25a1.3,1.3,0,0,1-.08.17v0Zm1.14-.65h.08a3.4,3.4,0,0,1-.18.3h0l-.24.08-.07,0,.09-.08.25-.24Zm.42,0,0,0,.24,0h0l-.43.12Zm.77-.76a.69.69,0,0,1-.05.13l-.11,0,.09-.09h0Zm.48,0,.12-.12.09-.09h0l.13,0-.06.1h0Zm.14-1.56,0-.07L21,31.14,20.83,31l-.2-.21h0l-.05-.05h0l.2.13.19.18.23.22.19.2-.21,0Zm2.1.49.17.06H23.2ZM22,31.3l.06-.14v.07Zm.64-.51v.27h0v0h0a1.2,1.2,0,0,1-.16-.25l0-.07,0-.08h0c0-.08.05-.15.08-.22h0v0l0-.06c0,.13,0,.26,0,.39Zm-.57,1.14,0,0v0h.05Zm.35-1.26-.06-.21a0,0,0,0,0,0,0c0-.1.08-.19.11-.29l0-.11a.56.56,0,0,1,0-.12c0-.07,0-.15.08-.23a.56.56,0,0,1,0-.12v.12c0,.18,0,.36,0,.52S22.48,30.52,22.4,30.67Zm1.93,4.64a.45.45,0,0,1,0-.12,1.13,1.13,0,0,1,.21.12c0,.11.08.22.12.35ZM25.83,37s0-.06,0-.08l.07.18Zm-2.76-3.82.1.06.12.38L23,33.31v-.15a.43.43,0,0,1,0,0Zm.11-1.81H23.1a.61.61,0,0,1,0-.13l.17,0C23.25,31.24,23.22,31.3,23.18,31.35Zm-1.37,0h0l-.12.05,0,0-.08-.1h0l.07,0h0Zm-.47-.21a.93.93,0,0,0,.05.1l-.08-.1,0,0Zm.83,2.07v-.18l.11-.07-.06.22h0a1,1,0,0,1,0,.17Zm.55-4.75c0,.2,0,.4,0,.59v.06a2.26,2.26,0,0,1-.11.22,2.19,2.19,0,0,1-.31.48v0c.08-.21.16-.43.23-.64a1.72,1.72,0,0,0,.07-.21,1.72,1.72,0,0,1,.07-.21c0-.12.07-.24.11-.37C22.73,28.44,22.72,28.47,22.72,28.51ZM18.5,34.59h0l-.16,0-.2.06-.26.09.31-.26A.91.91,0,0,1,18.5,34.59Zm7.07-2.11H24.26l-.44-.18-.1-.06h0l.07,0,.24-.07.22,0c.2.06.42.11.65.16l.18.05.19,0,.39.08.39.07h-.52Zm-8.3,2.05.09-.09a.14.14,0,0,0,0,.06l-.05,0h0Zm.57,0H18l-.11.13-.19.2h0l-.5.18-.11,0,.1-.08.15-.13.34-.3ZM21.7,36h0v-.35c0-.1,0-.2,0-.29V34.23c0-.13,0-.25,0-.38a2.44,2.44,0,0,1,.1-.24.89.89,0,0,1,.08-.17l0,0h0a.14.14,0,0,0,0,.07,4.46,4.46,0,0,1,.11.55v0c0,.21-.09.44-.13.68l0,.18,0,.19c0,.13,0,.25-.06.39l-.09.65h0v0A.71.71,0,0,0,21.7,36Zm4.12,1.74,0-.22a3,3,0,0,1,.43.36l.05.13.28.69v0l-.24-.34-.43-.57ZM27.5,39.4l0,0-.2-.34a.71.71,0,0,1,0-.21l.44,1Zm-1.84-7.52h0a.52.52,0,0,1-.1-.11l.66.17ZM16.23,35l.16-.13,0,.07Zm.14.29.28-.23a3,3,0,0,0,.27-.23l.12-.1.21-.06-.15.22c-.09.1-.18.21-.28.31l-.14,0-.57.24Z"/></g></g></g></svg>